<?xml version="1.0" encoding="utf-8"?>
<!-- Generator: Adobe Illustrator 27.5.0, SVG Export Plug-In . SVG Version: 6.00 Build 0)  -->
<svg version="1.1" xmlns="http://www.w3.org/2000/svg" xmlns:xlink="http://www.w3.org/1999/xlink" x="0px" y="0px"
	 viewBox="0 0 3710 3710" style="enable-background:new 0 0 3710 3710;" xml:space="preserve">
<g id="Background">
	<g>
		<g>
			<rect style="fill:#FFFFFF;" width="3710" height="3710"/>
		</g>
	</g>
</g>
<g id="Illustration">
	<g id="Competitive_intelligence">
		<path style="fill:#F4F7FA;" d="M1138.176,623.292c-92.736,135.184,15.999,354.351-121.605,456.02
			c-133.948,98.968-298.498-63.254-424.735,21.938C404.57,1227.626,438.768,1805.898,712.56,2165.19
			c82.339,108.052,151.138,150.093,181.608,272.294c65.429,262.397-164.522,418.487-120.763,548.264
			c98.531,292.211,1613.859,537.41,2221.876-340.78c283.969-410.151,326.457-1002.412,72.739-1452.238
			C2609.558,379.902,1346.26,319.963,1138.176,623.292z"/>
		<g>
			<g>
				<g>
					<defs>
						<path id="SVGID_1_" d="M1938.867,2106.74c10.532-9.501,25.069-39.457,25.638-48.828
							c3.792-62.363,18.477-178.663-22.242-230.666c-6.954-8.881-54.283,11.165-65.964,6.68c-33.277,5.457-44.483,9.413-78.667-0.94
							c-100.921-30.567-66.178-243.18-240.289-188.945c-127.534,39.727-191.07,137.112-292.422-33.408
							c-101.353-170.52-435.617-377.716-528.87-145.286c-53.518,133.393,142.358,202.477,162.266,339.658
							c18.918,130.358,115.299,181.744,258.618,168.633c143.319-13.111,119.252,69.731,153.104,182.624
							c40.663,135.609,224.551,37.343,305.576-15.266C1680.863,2098.633,1875.59,2034.778,1938.867,2106.74z"/>
					</defs>
					
						<linearGradient id="SVGID_00000161628901084514410680000014926135155726231698_" gradientUnits="userSpaceOnUse" x1="1585.5942" y1="1435.0835" x2="865.9776" y2="2439.8813">
						<stop  offset="0.0036" style="stop-color:#E38DDD"/>
						<stop  offset="1" style="stop-color:#9571F6"/>
					</linearGradient>
					
						<use xlink:href="#SVGID_1_"  style="overflow:visible;fill:url(#SVGID_00000161628901084514410680000014926135155726231698_);"/>
					<clipPath id="SVGID_00000031913937806522815800000002999880510547240632_">
						<use xlink:href="#SVGID_1_"  style="overflow:visible;"/>
					</clipPath>
					<g style="clip-path:url(#SVGID_00000031913937806522815800000002999880510547240632_);">
						<path style="fill:#FCFDFE;" d="M1782.302,1961.608c-174.468,0-347.932-40.027-509.612-118.422
							c-204.599-99.207-387.038-257.287-527.597-457.155l2.764-1.946c140.229,199.403,322.221,357.107,526.305,456.06
							c214.482,103.997,449.812,140.283,680.524,104.947l0.515,3.338C1897.73,1957.234,1839.949,1961.608,1782.302,1961.608z"/>
						<path style="fill:#FCFDFE;" d="M1320.619,2214.676l-2.692-2.039c77.067-101.734,243.209-218.061,370.36-259.309l1.042,3.213
							C1562.736,1997.611,1397.333,2113.407,1320.619,2214.676z"/>
						<path style="fill:#FCFDFE;" d="M1864.838,1961.209c-69.559-9.012-131.799-52.708-184.989-129.875
							c-38.792-56.277-71.979-128.77-98.64-215.465l3.229-0.993c26.558,86.365,59.595,158.548,98.193,214.541
							c52.622,76.343,114.073,119.557,182.642,128.441L1864.838,1961.209z"/>
						<path style="fill:#FCFDFE;" d="M910.529,1912.298l-1.794-2.863c82.385-51.596,207.573-108.17,336.119-84.768l-0.607,3.325
							C1116.757,1804.759,992.404,1861.019,910.529,1912.298z"/>
						<path style="fill:#FCFDFE;" d="M995.407,1661.381c-39.879-49.537-104.785-161.187-91.407-352.364l3.368,0.238
							c-13.296,190.025,51.101,300.857,90.671,350.008L995.407,1661.381z"/>
					</g>
				</g>
			</g>
			<g>
				<g>
					<defs>
						<path id="SVGID_00000097487130338551595020000010147351094021920407_" d="M1842.274,2243.413
							c72.705-53.33,144.604-108.375,215.636-165.097c1.719,0.439-41.772-179.651-157.757-223.418
							c-227.903-83.039-184.288-292.542-191.139-398.898c-4.333-152.758-86.383-276.099-217.523-207.254
							c-146.607,73.56-270.746-148.742-333.642-378.173c-23.198-115.958-176.04-188.829-288.006-163.582
							c-115.349,23.24-189.819,144.597-134.41,370.746c53.05,267.885,292.254,316.725,408.712,402.156
							c114.475,83.783,2.913,262.63,168.576,301.926c141.418,38.062,298.614,35.217,300.134,178.822
							C1612.527,2103.616,1663.609,2192.577,1842.274,2243.413z"/>
					</defs>
					
						<linearGradient id="SVGID_00000047051971942143083850000002618266724413125041_" gradientUnits="userSpaceOnUse" x1="1571.6587" y1="953.8074" x2="1202.1992" y2="2003.8512">
						<stop  offset="0" style="stop-color:#AA80F9"/>
						<stop  offset="0.9964" style="stop-color:#6165D7"/>
					</linearGradient>
					
						<use xlink:href="#SVGID_00000097487130338551595020000010147351094021920407_"  style="overflow:visible;fill:url(#SVGID_00000047051971942143083850000002618266724413125041_);"/>
					<clipPath id="SVGID_00000005265023756023760100000017880216143331606403_">
						<use xlink:href="#SVGID_00000097487130338551595020000010147351094021920407_"  style="overflow:visible;"/>
					</clipPath>
					<g style="clip-path:url(#SVGID_00000005265023756023760100000017880216143331606403_);">
						<path style="fill:#FFFFFF;" d="M1948.363,2197.644c-1.214-2.118-217.794-309.153-486.887-580.964
							c-40.573-45.708-82.7-90.891-123.443-134.586c-109.293-117.218-222.308-238.428-308.251-373.835
							C933.536,956.615,881.18,801.326,869.726,633.518l6.739-0.462c11.376,166.657,63.392,320.913,159.02,471.584
							c85.606,134.876,198.406,255.855,307.489,372.846c40.769,43.725,82.927,88.941,123.428,134.576
							c260.615,263.241,485.391,575.927,488.099,582.788l-3.144,1.24L1948.363,2197.644z"/>
						<path style="fill:#FFFFFF;" d="M1133.607,1251.989c-125.681-47.931-285.625-126.065-371.551-168.042
							c-36.004-17.586-64.443-31.48-67.992-32.186c0.378,0.076,1.31,0.043,2.18-0.607l-4.038-5.417
							c2.674-1.989,2.766-2.078,72.815,32.14c85.83,41.931,245.596,119.976,370.993,167.798L1133.607,1251.989z"/>
						<path style="fill:#FFFFFF;" d="M1048.237,1136.064c-47.575-207.522,35.043-358.641,58.042-384.929
							c1.394-1.593,2.728-2.857,4.635-2.718l-0.62,6.729c1.188,0.122,1.94-0.468,1.946-0.478
							c-2.474,1.973-30.062,38.576-50.857,107.708c-17.851,59.351-33.481,154.748-6.561,272.177L1048.237,1136.064z"/>
						<path style="fill:#FFFFFF;" d="M1628.621,1796.789c-54.514-95.328-75.918-217.962-63.618-364.49
							c6.398-76.228,21.821-155.873,45.838-236.719c1.16-3.902,2.162-7.274,2.279-7.953l6.693,0.911
							c-0.125,0.96-0.699,2.919-2.495,8.966c-23.886,80.404-39.222,159.591-45.582,235.363
							c-12.182,145.135,8.93,266.451,62.751,360.571L1628.621,1796.789z"/>
						<path style="fill:#FFFFFF;" d="M1199.398,1709.989l-3.655-1.834l0.783-4.011c1.506-1.349,51.751-25.661,121.246-37.824
							c63.41-11.09,155.858-13.627,236.198,37.329l-3.619,5.707c-151.081-95.826-347.947-0.894-349.784,0.165l-1.666-2.9
							l-0.115,0.043L1199.398,1709.989z"/>
						<path style="fill:#FFFFFF;" d="M1911.76,2147.47c-20.195-43.854-35.669-128.701,5.285-283.881
							c0.92-3.483,1.712-6.492,1.801-7.129l2.972,0.419l3.263-1.989c0.871,1.425,0.871,1.425-1.504,10.424
							c-40.443,153.241-25.41,236.485-5.68,279.332L1911.76,2147.47z"/>
						<path style="fill:#FFFFFF;" d="M1858.074,2075.706c-55.696-66.206-200.109-59.45-259.617-53.476
							c-2.599,0.261-4.272,0.422-4.885,0.442l-0.198-6.756c0.554-0.013,2.062-0.172,4.409-0.409
							c175.276-17.609,241.558,27.432,265.463,55.851L1858.074,2075.706z"/>
					</g>
				</g>
			</g>
		</g>
		<g>
			<g>
				<g>
					
						<linearGradient id="SVGID_00000054958652287890884520000002867734315528690076_" gradientUnits="userSpaceOnUse" x1="1636.6228" y1="1125.3342" x2="2167.3577" y2="2118.207">
						<stop  offset="0" style="stop-color:#FF9085"/>
						<stop  offset="1" style="stop-color:#FB6FBB"/>
					</linearGradient>
					<path style="fill:url(#SVGID_00000054958652287890884520000002867734315528690076_);" d="M2328.913,612.054l-966.974-32.729
						c-22.108-0.748-40.066,16.38-40.066,38.259v1756.531c0,21.88,17.958,38.594,40.066,37.336l966.974-54.986
						c20-1.137,36.182-18.879,36.182-39.63V650.852C2365.095,630.1,2348.913,612.731,2328.913,612.054z"/>
					<g style="opacity:0.3;">
						<path style="fill:#D8DEE8;" d="M1932.163,1909.119c-16.445-200.845,106.931-283.745,59.883-465.713
							c-58.155-224.927-281.827-234.568-358-455.137c-29.186-84.511-40.717-212.274,42.83-398.284l-314.937-10.659
							c-22.108-0.748-40.066,16.38-40.066,38.259v1756.531c0,21.88,17.958,38.594,40.066,37.336l862.214-49.029
							C2004.787,2192.569,1942.271,2032.568,1932.163,1909.119z"/>
					</g>
					
						<linearGradient id="SVGID_00000053511733942450243610000005331079700074922912_" gradientUnits="userSpaceOnUse" x1="2321.8528" y1="687.374" x2="1608.114" y2="1855.3085">
						<stop  offset="0" style="stop-color:#FFFFFF"/>
						<stop  offset="0.9964" style="stop-color:#EBEFF2"/>
					</linearGradient>
					<path style="opacity:0.3;fill:url(#SVGID_00000053511733942450243610000005331079700074922912_);" d="M2328.913,634.233
						l-966.974-31.613c-9.062-0.296-16.44,6.755-16.44,15.718v1754.48c0,8.963,7.378,15.844,16.44,15.34l966.974-53.871
						c8.208-0.458,14.881-7.761,14.881-16.282V650.172C2343.794,641.652,2337.122,634.501,2328.913,634.233z"/>
				</g>
				<g>
					
						<linearGradient id="SVGID_00000139983812017981595050000016060572559096880819_" gradientUnits="userSpaceOnUse" x1="1534.4528" y1="1998.0367" x2="2169.8716" y2="1998.0367">
						<stop  offset="0" style="stop-color:#FFFFFF"/>
						<stop  offset="0.9964" style="stop-color:#EBEFF2"/>
					</linearGradient>
					<path style="opacity:0.6;fill:url(#SVGID_00000139983812017981595050000016060572559096880819_);" d="M2146.287,1962.438
						l-586.74,21.142c-13.851,0.499-25.094,12.122-25.094,25.961l0,0c0,13.838,11.243,24.624,25.094,24.09l586.74-22.61
						c13.032-0.502,23.584-11.771,23.584-25.171l0,0C2169.872,1972.451,2159.32,1961.969,2146.287,1962.438z"/>
					
						<linearGradient id="SVGID_00000163033394098591148060000011393972367362924711_" gradientUnits="userSpaceOnUse" x1="1534.4528" y1="2085.8826" x2="2169.8716" y2="2085.8826">
						<stop  offset="0" style="stop-color:#FFFFFF"/>
						<stop  offset="0.9964" style="stop-color:#EBEFF2"/>
					</linearGradient>
					<path style="opacity:0.6;fill:url(#SVGID_00000163033394098591148060000011393972367362924711_);" d="M2146.287,2048.976
						l-586.74,23.757c-13.851,0.561-25.094,12.234-25.094,26.073l0,0c0,13.838,11.243,24.573,25.094,23.978l586.74-25.226
						c13.032-0.56,23.584-11.876,23.584-25.276l0,0C2169.872,2058.884,2159.32,2048.449,2146.287,2048.976z"/>
					
						<linearGradient id="SVGID_00000075126295125923779900000010460053422216887176_" gradientUnits="userSpaceOnUse" x1="1534.4528" y1="2173.7285" x2="2169.8716" y2="2173.7285">
						<stop  offset="0" style="stop-color:#FFFFFF"/>
						<stop  offset="0.9964" style="stop-color:#EBEFF2"/>
					</linearGradient>
					<path style="opacity:0.6;fill:url(#SVGID_00000075126295125923779900000010460053422216887176_);" d="M2146.287,2135.514
						l-586.74,26.373c-13.851,0.622-25.094,12.346-25.094,26.185l0,0c0,13.838,11.243,24.523,25.094,23.866l586.74-27.841
						c13.032-0.618,23.584-11.982,23.584-25.381l0,0C2169.872,2145.316,2159.32,2134.928,2146.287,2135.514z"/>
				</g>
				<g>
					
						<linearGradient id="SVGID_00000111177902077194947860000010748290363757713851_" gradientUnits="userSpaceOnUse" x1="1534.4528" y1="712.5055" x2="1854.0752" y2="712.5055">
						<stop  offset="0" style="stop-color:#FFFFFF"/>
						<stop  offset="0.9964" style="stop-color:#EBEFF2"/>
					</linearGradient>
					<path style="opacity:0.6;fill:url(#SVGID_00000111177902077194947860000010748290363757713851_);" d="M1842.026,704.474
						l-295.145-8.359c-6.862-0.194-12.428,5.201-12.428,12.05l0,0c0,6.849,5.566,12.553,12.428,12.739l295.145,7.994
						c6.656,0.18,12.049-5.138,12.049-11.877l0,0C1854.075,710.279,1848.682,704.663,1842.026,704.474z"/>
					
						<linearGradient id="SVGID_00000103247004147573509380000016777911865792207782_" gradientUnits="userSpaceOnUse" x1="1534.4528" y1="756.3343" x2="1854.0752" y2="756.3343">
						<stop  offset="0" style="stop-color:#FFFFFF"/>
						<stop  offset="0.9964" style="stop-color:#EBEFF2"/>
					</linearGradient>
					<path style="opacity:0.6;fill:url(#SVGID_00000103247004147573509380000016777911865792207782_);" d="M1842.026,747.977
						l-295.145-7.708c-6.862-0.179-12.428,5.228-12.428,12.077l0,0c0,6.849,5.566,12.54,12.428,12.711l295.145,7.343
						c6.656,0.166,12.049-5.164,12.049-11.904l0,0C1854.075,753.756,1848.682,748.151,1842.026,747.977z"/>
					
						<linearGradient id="SVGID_00000052794437463658295960000008030593940464805778_" gradientUnits="userSpaceOnUse" x1="1534.4528" y1="800.1631" x2="1854.0752" y2="800.1631">
						<stop  offset="0" style="stop-color:#FFFFFF"/>
						<stop  offset="0.9964" style="stop-color:#EBEFF2"/>
					</linearGradient>
					<path style="opacity:0.6;fill:url(#SVGID_00000052794437463658295960000008030593940464805778_);" d="M1842.026,791.481
						l-295.145-7.057c-6.862-0.164-12.428,5.255-12.428,12.105l0,0c0,6.849,5.566,12.528,12.428,12.684l295.145,6.691
						c6.656,0.151,12.049-5.191,12.049-11.931l0,0C1854.075,797.232,1848.682,791.64,1842.026,791.481z"/>
				</g>
			</g>
			<path style="opacity:0.35;fill:#FFFFFF;" d="M1934.388,1909.045c-16.442-200.822,106.906-283.713,59.869-465.66
				c-58.142-224.902-281.763-234.541-357.919-455.085c-27.975-81.015-39.727-201.792,33.01-375.63l-305.053-9.973
				c-9.06-0.296-16.437,6.754-16.437,15.717v1754.276c0,8.962,7.377,15.843,16.437,15.338l835.833-46.565
				C2001.928,2179.312,1944.075,2027.37,1934.388,1909.045z"/>
		</g>
		<g>
			<path style="opacity:0.75;fill:#F4F7FA;" d="M1669.758,1168.683c0-168.279-143.269-304.697-319.999-304.697
				c-176.73,0-319.999,136.418-319.999,304.697c0,102.125,52.769,192.511,133.759,247.795
				c34.36,23.454,55.197,62.111,55.197,103.713v23.317c0,50.663,41.071,91.733,91.733,91.733h78.618
				c50.663,0,91.733-41.07,91.733-91.733v-23.317c0-41.602,20.838-80.259,55.198-103.713
				C1616.989,1361.193,1669.758,1270.807,1669.758,1168.683z"/>
			
				<linearGradient id="SVGID_00000046297577008812601660000011315766011251094972_" gradientUnits="userSpaceOnUse" x1="1343.0939" y1="1824.4182" x2="1348.7771" y2="1778.9524">
				<stop  offset="0.0036" style="stop-color:#26264F"/>
				<stop  offset="1" style="stop-color:#444B8C"/>
			</linearGradient>
			
				<ellipse style="fill:url(#SVGID_00000046297577008812601660000011315766011251094972_);" cx="1349.76" cy="1771.094" rx="70.984" ry="37.581"/>
			
				<linearGradient id="SVGID_00000046310856339668543820000017974353633704316583_" gradientUnits="userSpaceOnUse" x1="1319.7202" y1="1782.9799" x2="1376.5527" y2="1680.6814">
				<stop  offset="0.0036" style="stop-color:#26264F"/>
				<stop  offset="1" style="stop-color:#444B8C"/>
			</linearGradient>
			<path style="fill:url(#SVGID_00000046310856339668543820000017974353633704316583_);" d="M1255.447,1703.959v38.379
				c0,12.985,7.389,24.881,19.109,30.471c16.271,7.759,43.323,16.275,82.638,15.267c31.895-0.817,52.693-6.026,65.916-11.498
				c12.774-5.287,20.962-17.918,20.962-31.743V1723.6L1255.447,1703.959z"/>
			
				<linearGradient id="SVGID_00000152987029778140784880000011868934655837357207_" gradientUnits="userSpaceOnUse" x1="1255.4471" y1="1734.5009" x2="1444.0717" y2="1734.5009">
				<stop  offset="0.0036" style="stop-color:#26264F"/>
				<stop  offset="1" style="stop-color:#444B8C"/>
			</linearGradient>
			<path style="opacity:0.3;fill:url(#SVGID_00000152987029778140784880000011868934655837357207_);" d="M1255.447,1737.575
				c2.875,2.795,6.204,5.166,9.944,6.949c18.254,8.705,137.818,28.155,166.659,17.319c3.746-1.407,7.115-3.29,10.066-5.561
				c1.262-3.624,1.956-7.482,1.956-11.447V1723.6l-188.625-19.641V1737.575z"/>
			
				<linearGradient id="SVGID_00000008125164087750706820000003419820287333422239_" gradientUnits="userSpaceOnUse" x1="1325.1302" y1="1755.0256" x2="1381.2523" y2="1647.0439">
				<stop  offset="0.0036" style="stop-color:#26264F"/>
				<stop  offset="1" style="stop-color:#444B8C"/>
			</linearGradient>
			<path style="fill:url(#SVGID_00000008125164087750706820000003419820287333422239_);" d="M1263.821,1677.847
				c-10.623-1.106-19.869,7.226-19.869,17.907v1.088c0,14.567,8.29,27.914,21.438,34.185
				c18.254,8.705,137.818,28.156,166.659,17.319c14.518-5.455,23.516-17.92,23.516-33.43v-0.876c0-9.221-6.968-16.952-16.139-17.907
				L1263.821,1677.847z"/>
			
				<linearGradient id="SVGID_00000084529392819713421830000010997724307532915878_" gradientUnits="userSpaceOnUse" x1="1246.996" y1="1702.7103" x2="1452.4292" y2="1702.7103">
				<stop  offset="0.0036" style="stop-color:#26264F"/>
				<stop  offset="1" style="stop-color:#444B8C"/>
			</linearGradient>
			<path style="opacity:0.3;fill:url(#SVGID_00000084529392819713421830000010997724307532915878_);" d="M1439.427,1696.133
				l-175.606-18.286c-6.928-0.722-13.251,2.585-16.825,7.925c3.528,8.312,9.951,15.265,18.395,19.292
				c18.254,8.705,142.91,30.692,166.659,19.501c9.245-4.357,16.494-11.711,20.379-20.65
				C1449.535,1699.671,1444.878,1696.701,1439.427,1696.133z"/>
			
				<linearGradient id="SVGID_00000112590535563570730960000014741472596039824011_" gradientUnits="userSpaceOnUse" x1="1243.9526" y1="1665.592" x2="1455.5663" y2="1665.592">
				<stop  offset="0.0036" style="stop-color:#26264F"/>
				<stop  offset="1" style="stop-color:#444B8C"/>
			</linearGradient>
			<path style="fill:url(#SVGID_00000112590535563570730960000014741472596039824011_);" d="M1256.951,1615.668
				c-7.179,0-12.998,5.819-12.998,12.998v30.058c0,14.567,8.29,27.914,21.438,34.184c18.254,8.705,142.91,30.692,166.659,19.501
				c14.03-6.612,23.516-20.102,23.516-35.612v-48.131c0-7.179-5.819-12.998-12.998-12.998H1256.951z"/>
			
				<linearGradient id="SVGID_00000049195188654808969030000007806527142256936344_" gradientUnits="userSpaceOnUse" x1="1344.504" y1="1649.6301" x2="1365.3427" y2="1552.0679">
				<stop  offset="0.0036" style="stop-color:#26264F"/>
				<stop  offset="1" style="stop-color:#444B8C"/>
			</linearGradient>
			
				<ellipse style="fill:url(#SVGID_00000049195188654808969030000007806527142256936344_);" cx="1349.76" cy="1625.026" rx="103.19" ry="24.397"/>
			<path style="fill:#FFFFFF;" d="M1669.758,1168.683c0-168.279-143.269-304.697-319.999-304.697
				c-176.73,0-319.999,136.418-319.999,304.697c0,102.125,52.769,192.511,133.759,247.795
				c34.36,23.454,55.197,62.111,55.197,103.713v23.317c0,50.663,41.071,91.733,91.733,91.733h78.618
				c50.663,0,91.733-41.07,91.733-91.733v-23.317c0-41.602,20.838-80.259,55.198-103.713
				C1616.989,1361.193,1669.758,1270.807,1669.758,1168.683z"/>
			<ellipse style="opacity:0.5;fill:#F4F7FA;" cx="1349.76" cy="1605.788" rx="75.506" ry="17.852"/>
			<g>
				
					<linearGradient id="SVGID_00000069372844428870784210000009095810221998399934_" gradientUnits="userSpaceOnUse" x1="1228.9565" y1="1610.6497" x2="1313.2579" y2="1364.3761">
					<stop  offset="0" style="stop-color:#FFC444"/>
					<stop  offset="0.9964" style="stop-color:#F36F56"/>
				</linearGradient>
				<path style="fill:url(#SVGID_00000069372844428870784210000009095810221998399934_);" d="M1330.083,1616.698
					c-2.162,0-4.039-1.606-4.323-3.807l-55.547-431.978c-0.307-2.39,1.382-4.576,3.772-4.883c2.395-0.322,4.576,1.381,4.884,3.771
					l55.548,431.978c0.307,2.391-1.382,4.577-3.772,4.883C1330.456,1616.687,1330.268,1616.698,1330.083,1616.698z"/>
				
					<linearGradient id="SVGID_00000167388966870883196160000012117003920394391985_" gradientUnits="userSpaceOnUse" x1="1309.5511" y1="1638.2378" x2="1393.8527" y2="1391.964">
					<stop  offset="0" style="stop-color:#FFC444"/>
					<stop  offset="0.9964" style="stop-color:#F36F56"/>
				</linearGradient>
				<path style="fill:url(#SVGID_00000167388966870883196160000012117003920394391985_);" d="M1364.584,1616.698
					c-0.185,0-0.373-0.011-0.561-0.036c-2.39-0.307-4.079-2.493-3.772-4.883l55.548-431.978c0.308-2.39,2.492-4.095,4.884-3.771
					c2.39,0.307,4.079,2.493,3.772,4.883l-55.548,431.978C1368.624,1615.091,1366.747,1616.698,1364.584,1616.698z"/>
				
					<linearGradient id="SVGID_00000179647831135543804620000006627376782039823508_" gradientUnits="userSpaceOnUse" x1="1199.6005" y1="1600.6012" x2="1283.902" y2="1354.3274">
					<stop  offset="0" style="stop-color:#FFC444"/>
					<stop  offset="0.9964" style="stop-color:#F36F56"/>
				</linearGradient>
				<path style="fill:url(#SVGID_00000179647831135543804620000006627376782039823508_);" d="M1409.823,1180.563
					c-1.418,0-2.809-0.69-3.648-1.962l-15.331-23.257c-0.158-0.239-0.401-0.377-0.622-0.349c-0.38,0.009-0.541,0.279-0.593,0.366
					l-10.121,16.953c-1.678,2.808-4.618,4.534-7.866,4.615c-3.228,0.104-6.279-1.498-8.099-4.225l-13.898-20.837
					c-0.151-0.226-0.354-0.343-0.601-0.345c-0.295,0.056-0.433,0.104-0.582,0.318l-12.209,17.647
					c-1.763,2.55-4.654,4.076-7.734,4.082c0,0-0.013,0-0.019,0c-3.079,0-5.975-1.517-7.751-4.063l-17.602-25.215
					c-0.159-0.228-0.382-0.307-0.621-0.33c-0.252,0.011-0.448,0.139-0.587,0.377l-16.066,27.734
					c-1.207,2.084-3.879,2.795-5.963,1.587c-2.086-1.208-2.796-3.878-1.588-5.963l16.066-27.734
					c1.634-2.819,4.539-4.583,7.771-4.719c3.206-0.164,6.278,1.381,8.144,4.055l17.6,25.215c0.153,0.217,0.353,0.33,0.595,0.33
					h0.001c0.236-0.002,0.431-0.109,0.577-0.32l12.209-17.648c1.787-2.58,4.728-4.116,7.832-4.08
					c3.127,0.028,6.038,1.609,7.787,4.231l13.897,20.835c0.157,0.234,0.391,0.431,0.622,0.343c0.378-0.009,0.538-0.277,0.59-0.365
					l10.121-16.953c1.684-2.819,4.635-4.545,7.894-4.617c3.226-0.072,6.292,1.526,8.102,4.272l15.331,23.257
					c1.326,2.011,0.77,4.717-1.242,6.044C1411.481,1180.33,1410.647,1180.563,1409.823,1180.563z"/>
			</g>
			
				<linearGradient id="SVGID_00000094615521781771806570000013536833459610210695_" gradientUnits="userSpaceOnUse" x1="1318.994" y1="957.2919" x2="1236.5869" y2="1636.4391">
				<stop  offset="0" style="stop-color:#FCB148"/>
				<stop  offset="0.0521" style="stop-color:#FDBA46"/>
				<stop  offset="0.1424" style="stop-color:#FFC244"/>
				<stop  offset="0.3183" style="stop-color:#FFC444"/>
				<stop  offset="0.4849" style="stop-color:#FDB946"/>
				<stop  offset="0.7754" style="stop-color:#F99C4D"/>
				<stop  offset="0.8658" style="stop-color:#F8924F"/>
				<stop  offset="1" style="stop-color:#F8924F"/>
			</linearGradient>
			<path style="opacity:0.3;fill:url(#SVGID_00000094615521781771806570000013536833459610210695_);" d="M1355.567,1409.018
				c6.855-117.44,204.838-144.925,203.99-249.806c-0.522-64.596-79.196-112.568-95.995-122.175
				c-123.789-70.8-276.154,10.958-307.621-46.907c-7.835-14.407-4.161-30.09-2.069-39.021c3.162-13.498,10.32-26.071,20.94-37.571
				c-87.337,54.406-145.051,148.351-145.051,255.145c0,102.125,52.769,192.511,133.759,247.795
				c34.36,23.454,55.197,62.112,55.197,103.713v23.317c0,50.663,41.071,91.733,91.733,91.733h78.618
				c50.663,0,91.733-41.07,91.733-91.733v-18.643c-10.82,8.292-23.248,14.076-36.875,13.964
				C1396.642,1538.441,1352.155,1467.459,1355.567,1409.018z"/>
			
				<linearGradient id="SVGID_00000149352181272544029110000007359288564208067477_" gradientUnits="userSpaceOnUse" x1="1079.5125" y1="1180.5626" x2="1630.2427" y2="1180.5626">
				<stop  offset="0" style="stop-color:#FFC444"/>
				<stop  offset="0.9964" style="stop-color:#F36F56"/>
			</linearGradient>
			
				<ellipse style="opacity:0.2;fill:url(#SVGID_00000149352181272544029110000007359288564208067477_);" cx="1354.878" cy="1180.563" rx="275.365" ry="265.56"/>
		</g>
		<g>
			<g>
				<g>
					<g>
						
							<linearGradient id="SVGID_00000158028715195202672160000007168090282327720366_" gradientUnits="userSpaceOnUse" x1="1617.6736" y1="1800.1028" x2="1254.9741" y2="2498.636">
							<stop  offset="0.0036" style="stop-color:#E38DDD"/>
							<stop  offset="1" style="stop-color:#9571F6"/>
						</linearGradient>
						<path style="fill:url(#SVGID_00000158028715195202672160000007168090282327720366_);" d="M1686.09,1730.086l-750.233-25.393
							c-17.152-0.581-31.085,12.709-31.085,29.684v1362.815c0,16.975,13.933,29.943,31.085,28.968l750.233-42.661
							c15.517-0.882,28.072-14.647,28.072-30.748V1760.188C1714.161,1744.088,1701.606,1730.611,1686.09,1730.086z"/>
						<g style="opacity:0.3;">
							<path style="fill:#D8DEE8;" d="M1378.269,2736.421c-12.759-155.827,82.963-220.146,46.46-361.326
								c-45.12-174.511-218.657-181.991-277.757-353.121c-22.644-65.568-31.59-164.694,33.23-309.011l-244.345-8.27
								c-17.152-0.581-31.085,12.709-31.085,29.684v1362.815c0,16.975,13.933,29.943,31.085,28.968l668.954-38.04
								C1434.614,2956.338,1386.11,2832.2,1378.269,2736.421z"/>
						</g>
						
							<linearGradient id="SVGID_00000114754297107979241660000005920557798507257495_" gradientUnits="userSpaceOnUse" x1="1680.6116" y1="1788.5236" x2="1126.853" y2="2694.6726">
							<stop  offset="0" style="stop-color:#FFFFFF"/>
							<stop  offset="0.9964" style="stop-color:#EBEFF2"/>
						</linearGradient>
						<path style="fill:url(#SVGID_00000114754297107979241660000005920557798507257495_);" d="M1686.09,1747.294l-750.233-24.527
							c-7.031-0.23-12.755,5.241-12.755,12.195v1361.224c0,6.954,5.725,12.293,12.755,11.901l750.233-41.796
							c6.369-0.355,11.545-6.021,11.545-12.632V1759.66C1697.635,1753.05,1692.458,1747.502,1686.09,1747.294z"/>
					</g>
					<g>
						<path style="fill:#D8DEE8;" d="M1544.398,2777.79l-455.226,16.403c-10.746,0.387-19.469,9.405-19.469,20.142l0,0
							c0,10.736,8.723,19.104,19.469,18.69l455.226-17.542c10.111-0.39,18.298-9.133,18.298-19.529l0,0
							C1562.696,2785.558,1554.509,2777.426,1544.398,2777.79z"/>
						<path style="fill:#D8DEE8;" d="M1544.398,2844.931l-455.226,18.432c-10.746,0.435-19.469,9.492-19.469,20.229l0,0
							c0,10.737,8.723,19.066,19.469,18.604l455.226-19.572c10.111-0.435,18.298-9.215,18.298-19.61l0,0
							C1562.696,2852.618,1554.509,2844.522,1544.398,2844.931z"/>
						<path style="fill:#D8DEE8;" d="M1544.398,2912.072l-455.226,20.461c-10.746,0.483-19.469,9.579-19.469,20.316l0,0
							c0,10.737,8.723,19.027,19.469,18.517l455.226-21.601c10.111-0.48,18.298-9.296,18.298-19.692l0,0
							C1562.696,2919.677,1554.509,2911.617,1544.398,2912.072z"/>
					</g>
					<g>
						<path style="fill:#D8DEE8;" d="M1308.335,1801.791l-228.99-6.486c-5.324-0.151-9.642,4.035-9.642,9.349l0,0
							c0,5.314,4.319,9.739,9.642,9.883l228.99,6.202c5.164,0.14,9.349-3.986,9.349-9.215l0,0
							C1317.683,1806.295,1313.499,1801.937,1308.335,1801.791z"/>
						<path style="fill:#D8DEE8;" d="M1308.335,1835.543l-228.99-5.981c-5.324-0.139-9.642,4.056-9.642,9.37l0,0
							c0,5.314,4.319,9.729,9.642,9.862l228.99,5.697c5.164,0.128,9.349-4.007,9.349-9.236l0,0
							C1317.683,1840.026,1313.499,1835.678,1308.335,1835.543z"/>
						<path style="fill:#D8DEE8;" d="M1308.335,1869.295l-228.99-5.475c-5.324-0.127-9.642,4.077-9.642,9.392l0,0
							c0,5.314,4.319,9.72,9.642,9.841l228.99,5.192c5.164,0.117,9.349-4.027,9.349-9.256l0,0
							C1317.683,1873.758,1313.499,1869.419,1308.335,1869.295z"/>
					</g>
				</g>
				<g>
					<g>
						
							<linearGradient id="SVGID_00000113348189111823882460000011358631256819181496_" gradientUnits="userSpaceOnUse" x1="1182.9927" y1="2019.1504" x2="1232.5271" y2="2466.9397">
							<stop  offset="0" style="stop-color:#FFC444"/>
							<stop  offset="0.9964" style="stop-color:#F36F56"/>
						</linearGradient>
						<path style="fill:url(#SVGID_00000113348189111823882460000011358631256819181496_);" d="M1220.103,2231.827
							c14.867-28.125,42.691-48.104,75.295-51.829l2.276-138.981c-92.926,2.429-172.972,59.725-208.833,141.851L1220.103,2231.827z"
							/>
						
							<linearGradient id="SVGID_00000021088064364254792820000015095074829423327916_" gradientUnits="userSpaceOnUse" x1="1356.1257" y1="2375.7896" x2="1554.4277" y2="2776.3208">
							<stop  offset="0.0036" style="stop-color:#E38DDD"/>
							<stop  offset="1" style="stop-color:#9571F6"/>
						</linearGradient>
						<path style="fill:url(#SVGID_00000021088064364254792820000015095074829423327916_);" d="M1402.365,2295.03
							c-7.935,46.176-47.571,81.614-95.548,82.059c-14.183,0.132-27.683-2.81-39.888-8.213l-72.828,119.717
							c33.666,17.878,72.085,27.648,112.716,26.904c120.816-2.214,218.68-96.756,229.709-215.396L1402.365,2295.03z"/>
						
							<linearGradient id="SVGID_00000057845610504824238030000011873030272713696658_" gradientUnits="userSpaceOnUse" x1="1066.7471" y1="2214.7781" x2="1332.3179" y2="2556.2263">
							<stop  offset="0" style="stop-color:#AA80F9"/>
							<stop  offset="0.9964" style="stop-color:#6165D7"/>
						</linearGradient>
						<path style="fill:url(#SVGID_00000057845610504824238030000011873030272713696658_);" d="M1171.608,2474.962l73.037-119.821
							c-22.005-18.059-36.075-45.646-36.075-76.639c0-7.488,0.828-14.783,2.386-21.8l-131.419-48.775
							c-6.921,22.424-10.653,46.261-10.653,70.969C1068.884,2360.714,1109.67,2432.485,1171.608,2474.962z"/>
					</g>
					<g>
						
							<linearGradient id="SVGID_00000134940854470209270090000010423367441189517218_" gradientUnits="userSpaceOnUse" x1="1617.6461" y1="1915.1127" x2="1405.4388" y2="2211.0347">
							<stop  offset="0" style="stop-color:#FF9085"/>
							<stop  offset="1" style="stop-color:#FB6FBB"/>
						</linearGradient>
						<path style="fill:url(#SVGID_00000134940854470209270090000010423367441189517218_);" d="M1321.421,2180.519
							c43.842,6.83,77.914,43.224,81.982,88.331l222.037,8.775c0-0.099,0.002-0.198,0.002-0.297
							c0-172.086-131.39-315.076-300.245-327.776L1321.421,2180.519z"/>
					</g>
				</g>
				<path style="opacity:0.35;fill:#FFFFFF;" d="M1379.995,2736.365c-12.756-155.809,82.944-220.12,46.45-361.285
					c-45.11-174.491-218.607-181.97-277.693-353.08c-21.705-62.856-30.823-156.562,25.611-291.435l-236.677-7.738
					c-7.029-0.23-12.753,5.24-12.753,12.194v1361.065c0,6.954,5.723,12.292,12.753,11.9l648.486-36.128
					C1432.396,2946.052,1387.51,2828.168,1379.995,2736.365z"/>
			</g>
			<g>
				
					<linearGradient id="SVGID_00000078738383167243717430000015503368159154762122_" gradientUnits="userSpaceOnUse" x1="975.394" y1="1904.2866" x2="771.2072" y2="2573.2666">
					<stop  offset="0" style="stop-color:#FF9085"/>
					<stop  offset="1" style="stop-color:#FB6FBB"/>
				</linearGradient>
				<path style="fill:url(#SVGID_00000078738383167243717430000015503368159154762122_);" d="M1129.093,2099.094l-363.088-3.614
					c-8.211-0.082-14.875-6.622-14.875-14.609v-138.101c0-7.987,6.664-14.302,14.875-14.107l316.089,7.529
					c7.774,0.185,14.069,6.624,14.069,14.382v118.694L1129.093,2099.094z"/>
				<polygon style="opacity:0.67;fill:#FFFFFF;" points="1045.161,1986.102 804.71,1981.414 804.71,1964.858 1045.161,1969.878 				
					"/>
				<polygon style="opacity:0.67;fill:#FFFFFF;" points="1045.161,2018.55 804.71,2014.526 804.71,1997.97 1045.161,2002.326 				
					"/>
				<polygon style="opacity:0.67;fill:#FFFFFF;" points="1045.161,2050.998 804.71,2047.638 804.71,2031.082 1045.161,2034.774 				
					"/>
			</g>
			<g>
				
					<linearGradient id="SVGID_00000098899202077921872300000006846658867191202456_" gradientUnits="userSpaceOnUse" x1="-7125.4678" y1="-3253.4814" x2="-7421.3018" y2="-2840.9424" gradientTransform="matrix(-1 0 0 -1 -5902 -287)">
					<stop  offset="0" style="stop-color:#FF9085"/>
					<stop  offset="1" style="stop-color:#FB6FBB"/>
				</linearGradient>
				<path style="opacity:0.3;fill:url(#SVGID_00000098899202077921872300000006846658867191202456_);" d="M1309.21,2563.865
					l324.394-6.972c8.444-0.181,15.283,6.752,15.283,15.487v151.036c0,8.734-6.839,16.046-15.283,16.331l-341.907,11.524
					c-8.845,0.298-16.022-6.718-16.022-15.67v-197.43L1309.21,2563.865z"/>
				<polygon style="opacity:0.67;fill:#FFFFFF;" points="1333.414,2691.727 1593.512,2683.95 1593.512,2702.205 1333.414,2710.298 
									"/>
				<polygon style="opacity:0.67;fill:#FFFFFF;" points="1333.414,2654.585 1593.512,2647.441 1593.512,2665.696 1333.414,2673.156 
									"/>
				<polygon style="opacity:0.67;fill:#FFFFFF;" points="1333.414,2617.443 1593.512,2610.931 1593.512,2629.186 1333.414,2636.014 
									"/>
			</g>
		</g>
		<g>
			<g>
				<g>
					<g>
						
							<linearGradient id="SVGID_00000006685972460059485080000002795651508954034595_" gradientUnits="userSpaceOnUse" x1="2751.4463" y1="1007.994" x2="2264.0374" y2="1946.7087">
							<stop  offset="0.0036" style="stop-color:#E38DDD"/>
							<stop  offset="1" style="stop-color:#9571F6"/>
						</linearGradient>
						<path style="fill:url(#SVGID_00000006685972460059485080000002795651508954034595_);" d="M2843.386,913.903l-1008.191-34.123
							c-23.05-0.78-41.773,17.078-41.773,39.89v1831.402c0,22.812,18.723,40.239,41.773,38.928l1008.191-57.33
							c20.852-1.186,37.724-19.684,37.724-41.32V954.355C2881.11,932.719,2864.239,914.609,2843.386,913.903z"/>
						<g style="opacity:0.3;">
							<path style="fill:#D8DEE8;" d="M2429.725,2266.254c-17.146-209.406,111.489-295.84,62.435-485.564
								c-60.634-234.515-293.84-244.566-373.26-474.537c-30.43-88.113-42.452-221.322,44.656-415.26l-328.36-11.114
								c-23.05-0.78-41.773,17.078-41.773,39.89v1831.402c0,22.812,18.723,40.239,41.773,38.928l898.966-51.119
								C2505.444,2561.786,2440.263,2394.965,2429.725,2266.254z"/>
						</g>
						
							<linearGradient id="SVGID_00000109712942033720342310000000840021781674026377_" gradientUnits="userSpaceOnUse" x1="2836.0249" y1="992.4334" x2="2091.8635" y2="2210.1504">
							<stop  offset="0" style="stop-color:#FFFFFF"/>
							<stop  offset="0.9964" style="stop-color:#EBEFF2"/>
						</linearGradient>
						<path style="fill:url(#SVGID_00000109712942033720342310000000840021781674026377_);" d="M2843.386,937.027l-1008.191-32.961
							c-9.448-0.309-17.141,7.042-17.141,16.388v1829.264c0,9.345,7.693,16.52,17.141,15.993l1008.191-56.167
							c8.558-0.477,15.515-8.092,15.515-16.976V953.646C2858.902,944.762,2851.945,937.307,2843.386,937.027z"/>
					</g>
					<g>
						<path style="fill:#D8DEE8;" d="M2652.976,2321.847l-611.75,22.043c-14.441,0.52-26.164,12.639-26.164,27.068l0,0
							c0,14.428,11.722,25.673,26.164,25.117l611.75-23.574c13.588-0.523,24.59-12.273,24.59-26.243l0,0
							C2677.566,2332.286,2666.564,2321.357,2652.976,2321.847z"/>
						<path style="fill:#D8DEE8;" d="M2652.976,2412.073l-611.75,24.77c-14.441,0.585-26.164,12.756-26.164,27.184l0,0
							c0,14.428,11.722,25.621,26.164,25l611.75-26.301c13.588-0.584,24.59-12.383,24.59-26.353l0,0
							C2677.566,2422.403,2666.564,2411.523,2652.976,2412.073z"/>
						<path style="fill:#D8DEE8;" d="M2652.976,2502.3l-611.75,27.497c-14.441,0.649-26.164,12.872-26.164,27.301l0,0
							c0,14.428,11.722,25.569,26.164,24.883l611.75-29.028c13.588-0.645,24.59-12.493,24.59-26.463l0,0
							C2677.566,2512.519,2666.564,2501.689,2652.976,2502.3z"/>
					</g>
					<g>
						<path style="fill:#D8DEE8;" d="M2335.746,1010.262l-307.726-8.716c-7.154-0.203-12.958,5.422-12.958,12.564l0,0
							c0,7.141,5.804,13.088,12.958,13.282l307.726,8.334c6.94,0.188,12.563-5.356,12.563-12.384l0,0
							C2348.309,1016.315,2342.686,1010.459,2335.746,1010.262z"/>
						<path style="fill:#D8DEE8;" d="M2335.746,1055.62l-307.726-8.037c-7.154-0.187-12.958,5.451-12.958,12.592l0,0
							c0,7.141,5.804,13.075,12.958,13.253l307.726,7.656c6.94,0.173,12.563-5.384,12.563-12.411l0,0
							C2348.309,1061.645,2342.686,1055.801,2335.746,1055.62z"/>
						<path style="fill:#D8DEE8;" d="M2335.746,1100.977l-307.726-7.358c-7.154-0.171-12.958,5.479-12.958,12.621l0,0
							c0,7.141,5.804,13.062,12.958,13.224l307.726,6.977c6.94,0.157,12.563-5.412,12.563-12.439l0,0
							C2348.309,1106.974,2342.686,1101.143,2335.746,1100.977z"/>
					</g>
				</g>
				<g>
					<g>
						
							<linearGradient id="SVGID_00000054986455944498064670000012486477681176224410_" gradientUnits="userSpaceOnUse" x1="2167.3062" y1="1302.3584" x2="2233.8723" y2="1904.1143">
							<stop  offset="0" style="stop-color:#FFC444"/>
							<stop  offset="0.9964" style="stop-color:#F36F56"/>
						</linearGradient>
						<path style="fill:url(#SVGID_00000054986455944498064670000012486477681176224410_);" d="M2217.176,1588.161
							c19.978-37.795,57.37-64.645,101.184-69.65l3.06-186.768c-124.878,3.264-232.447,80.26-280.638,190.625L2217.176,1588.161z"/>
						
							<linearGradient id="SVGID_00000109731292021103069390000013813557472490765210_" gradientUnits="userSpaceOnUse" x1="2399.9688" y1="1781.6232" x2="2666.4543" y2="2319.8718">
							<stop  offset="0.0036" style="stop-color:#E38DDD"/>
							<stop  offset="1" style="stop-color:#9571F6"/>
						</linearGradient>
						<path style="fill:url(#SVGID_00000109731292021103069390000013813557472490765210_);" d="M2462.106,1673.095
							c-10.663,62.053-63.928,109.675-128.401,110.274c-19.06,0.177-37.201-3.776-53.603-11.036l-97.869,160.88
							c45.242,24.026,96.87,37.155,151.472,36.154c162.357-2.976,293.87-130.024,308.692-289.458L2462.106,1673.095z"/>
						
							<linearGradient id="SVGID_00000119084118885565128400000005274901738150416274_" gradientUnits="userSpaceOnUse" x1="2011.0908" y1="1565.2501" x2="2367.9749" y2="2024.101">
							<stop  offset="0" style="stop-color:#AA80F9"/>
							<stop  offset="0.9964" style="stop-color:#6165D7"/>
						</linearGradient>
						<path style="fill:url(#SVGID_00000119084118885565128400000005274901738150416274_);" d="M2152.006,1914.895l98.149-161.019
							c-29.571-24.269-48.479-61.342-48.479-102.99c0-10.063,1.113-19.866,3.206-29.296l-176.605-65.546
							c-9.301,30.135-14.316,62.168-14.316,95.371C2013.962,1761.364,2068.772,1857.812,2152.006,1914.895z"/>
					</g>
					<g>
						
							<linearGradient id="SVGID_00000065043180779874243470000017698521426049656468_" gradientUnits="userSpaceOnUse" x1="2751.4097" y1="1162.5485" x2="2466.2375" y2="1560.2196">
							<stop  offset="0" style="stop-color:#FF9085"/>
							<stop  offset="1" style="stop-color:#FB6FBB"/>
						</linearGradient>
						<path style="fill:url(#SVGID_00000065043180779874243470000017698521426049656468_);" d="M2353.331,1519.211
							c58.916,9.178,104.703,58.085,110.171,118.703l298.382,11.792c0-0.133,0.002-0.266,0.002-0.4
							c0-231.256-176.567-423.411-403.48-440.478L2353.331,1519.211z"/>
					</g>
				</g>
				<path style="opacity:0.35;fill:#FFFFFF;" d="M2432.044,2266.177c-17.142-209.382,111.463-295.806,62.421-485.509
					c-60.621-234.488-293.773-244.538-373.175-474.483c-29.168-84.468-41.421-210.393,34.417-391.641l-318.056-10.398
					c-9.446-0.309-17.138,7.042-17.138,16.386v1829.05c0,9.344,7.691,16.518,17.138,15.992l871.459-48.55
					C2502.463,2547.964,2442.145,2389.546,2432.044,2266.177z"/>
			</g>
			<g>
				
					<linearGradient id="SVGID_00000132064585792604084630000012387730928531860157_" gradientUnits="userSpaceOnUse" x1="-8123.6982" y1="-2862.417" x2="-8521.251" y2="-2308.0315" gradientTransform="matrix(-1 0 0 -1 -5902 -287)">
					<stop  offset="0" style="stop-color:#FF9085"/>
					<stop  offset="1" style="stop-color:#FB6FBB"/>
				</linearGradient>
				<path style="opacity:0.3;fill:url(#SVGID_00000132064585792604084630000012387730928531860157_);" d="M2336.921,2034.365
					l435.932-9.37c11.348-0.244,20.538,9.074,20.538,20.812v202.967c0,11.738-9.19,21.563-20.538,21.945l-459.467,15.487
					c-11.886,0.401-21.531-9.027-21.531-21.058v-265.314L2336.921,2034.365z"/>
				<polygon style="opacity:0.67;fill:#FFFFFF;" points="2369.448,2206.192 2718.977,2195.741 2718.977,2220.273 2369.448,2231.149 
									"/>
				<polygon style="opacity:0.67;fill:#FFFFFF;" points="2369.448,2156.279 2718.977,2146.678 2718.977,2171.21 2369.448,2181.236 
									"/>
				<polygon style="opacity:0.67;fill:#FFFFFF;" points="2369.448,2106.366 2718.977,2097.615 2718.977,2122.146 2369.448,2131.322 
									"/>
			</g>
		</g>
		<g>
			
				<linearGradient id="SVGID_00000102523283325779442100000003228242029987240101_" gradientUnits="userSpaceOnUse" x1="3090.8831" y1="3054.3232" x2="3108.6375" y2="3280.2866" gradientTransform="matrix(1 -0.0024 0.0024 1 -794.8005 3.3687)">
				<stop  offset="0" style="stop-color:#311944"/>
				<stop  offset="1" style="stop-color:#A03976"/>
			</linearGradient>
			<path style="fill:url(#SVGID_00000102523283325779442100000003228242029987240101_);" d="M2338.309,3162.884
				c0,0-71.389,32.653-72.544,37.841c-1.155,5.188,45.956-1.848,65.197-1.147c19.241,0.702,35.054-5.022,33.294-13.167
				c-1.763-8.145-8.546-28.625-8.546-28.625L2338.309,3162.884z"/>
			
				<linearGradient id="SVGID_00000148651815472319260710000007632637711218235311_" gradientUnits="userSpaceOnUse" x1="3136.717" y1="3180.1245" x2="3133.4893" y2="2946.0984" gradientTransform="matrix(1 -0.0024 0.0024 1 -794.8005 3.3687)">
				<stop  offset="0" style="stop-color:#FFC444"/>
				<stop  offset="0.9964" style="stop-color:#F36F56"/>
			</linearGradient>
			<path style="fill:url(#SVGID_00000148651815472319260710000007632637711218235311_);" d="M2335.631,3136.53l4.424,32.167
				c0,0,11.324,4,18.913-0.78l3.158-35.299L2335.631,3136.53z"/>
			
				<linearGradient id="SVGID_00000015353274181215039520000014662637197547128476_" gradientUnits="userSpaceOnUse" x1="3426.3936" y1="3027.9663" x2="3444.1472" y2="3253.9214" gradientTransform="matrix(1 -0.0024 0.0024 1 -794.8005 3.3687)">
				<stop  offset="0" style="stop-color:#311944"/>
				<stop  offset="1" style="stop-color:#A03976"/>
			</linearGradient>
			<path style="fill:url(#SVGID_00000015353274181215039520000014662637197547128476_);" d="M2672.198,3136.493l8.345,13.324
				c2.334,3.727,3.038,8.218,1.934,12.474c-2.881,11.104-8.635,32.745-11.153,38.39c-3.428,7.69-49.667,12.364-49.667,12.364
				s-4.138-5.793,5.448-12.826c9.584-7.033,15.755-8.15,19.119-18.503c3.363-10.351,5.554-39.616,5.554-39.616L2672.198,3136.493z"
				/>
			
				<linearGradient id="SVGID_00000105410390272884466390000001834481114143546025_" gradientUnits="userSpaceOnUse" x1="3444.197" y1="3175.8835" x2="3440.9692" y2="2941.8503" gradientTransform="matrix(1 -0.0024 0.0024 1 -794.8005 3.3687)">
				<stop  offset="0" style="stop-color:#FFC444"/>
				<stop  offset="0.9964" style="stop-color:#F36F56"/>
			</linearGradient>
			<path style="fill:url(#SVGID_00000105410390272884466390000001834481114143546025_);" d="M2637.516,3102.663
				c3.043,2.414,18.005,47.463,18.005,47.463s4.823,6.137,13.935-2.959c9.111-9.096,4.124-4.08,4.124-4.08l-1.82-44.339
				L2637.516,3102.663z"/>
			
				<linearGradient id="SVGID_00000168079440428419836730000010325050940175886743_" gradientUnits="userSpaceOnUse" x1="3080.864" y1="2801.0054" x2="3253.8982" y2="2801.0054" gradientTransform="matrix(1 -0.0024 0.0024 1 -794.8005 3.3687)">
				<stop  offset="0" style="stop-color:#444B8C"/>
				<stop  offset="0.9964" style="stop-color:#3E4177"/>
			</linearGradient>
			<path style="fill:url(#SVGID_00000168079440428419836730000010325050940175886743_);" d="M2294.756,2490.164
				c-3.54,95.992-3.443,200.275,2.348,311.667c6.519,125.435,19.293,241.353,35.294,346.423c5.855,0.173,12.007,0.188,18.432-0.007
				c4.339-0.131,8.543-0.353,12.606-0.643c8.119-21.814,17.71-50.498,26.278-84.752c9.007-36.019,14.416-68.321,18.25-99.208
				c13.501-108.749-2.65-118.194,8.325-198.79c9.72-71.379,23.78-74.199,40.051-175.547c17.653-109.967,4.275-126.426-2.226-132.367
				C2426.442,2431.645,2361.622,2449.066,2294.756,2490.164z"/>
			
				<linearGradient id="SVGID_00000175317083904881744010000007956317762197920678_" gradientUnits="userSpaceOnUse" x1="3080.8638" y1="2801.0129" x2="3253.897" y2="2801.0129" gradientTransform="matrix(1 -0.0024 0.0024 1 -794.8005 3.3687)">
				<stop  offset="0" style="stop-color:#444B8C"/>
				<stop  offset="0.9964" style="stop-color:#3E4177"/>
			</linearGradient>
			<path style="opacity:0.3;fill:url(#SVGID_00000175317083904881744010000007956317762197920678_);" d="M2454.115,2456.941
				c-26.394-24.127-86.589-9.338-150.114,27.734c73.372,78.892,81.474,130.164,72.78,163.466
				c-9.825,37.638-39.944,48.543-39.731,89.673c0.263,50.543,45.912,63.822,45.07,117.31c-0.556,35.368-20.602,35.049-25.23,78.743
				c-5.477,51.698,20.753,69.445,12.363,107.706c-3.609,16.46-13.973,37.982-43.583,60.198c2.177,15.698,4.407,31.238,6.729,46.484
				c5.853,0.171,12.005,0.189,18.43-0.009c4.339-0.13,8.545-0.351,12.605-0.642c8.121-21.814,17.712-50.497,26.28-84.751
				c9.007-36.02,14.416-68.321,18.25-99.208c13.5-108.748-2.65-118.194,8.325-198.79c9.72-71.379,23.78-74.201,40.05-175.548
				C2473.993,2479.339,2460.617,2462.881,2454.115,2456.941z"/>
			
				<linearGradient id="SVGID_00000029756776624200672770000018358148240929865407_" gradientUnits="userSpaceOnUse" x1="3128.9019" y1="2783.9485" x2="3477.2388" y2="2783.9485" gradientTransform="matrix(1 -0.0024 0.0024 1 -794.8005 3.3687)">
				<stop  offset="0" style="stop-color:#444B8C"/>
				<stop  offset="0.9964" style="stop-color:#3E4177"/>
			</linearGradient>
			<path style="fill:url(#SVGID_00000029756776624200672770000018358148240929865407_);" d="M2340.083,2488.443
				c63.234,92.05,131.476,206.635,192.588,343.837c46.183,103.685,79.731,201.059,104.399,287.854
				c3.313,1.524,11.128,4.562,21.102,3.219c13.603-1.832,21.738-10.538,23.864-12.967c9.805-62.286,8.581-115.014,5.111-153.063
				c-2.222-24.361-6.148-64.929-21.8-114.985c-17.531-56.069-29.499-59.193-52.337-118.503
				c-23.704-61.561-18.035-76.95-40.779-154.007c-9.344-31.656-24.97-78.757-50.703-135.083
				C2461.046,2452.644,2400.564,2470.544,2340.083,2488.443z"/>
			
				<linearGradient id="SVGID_00000109746893624534592570000005850289900852744605_" gradientUnits="userSpaceOnUse" x1="2630.615" y1="1992.0693" x2="2238.137" y2="2636.4365">
				<stop  offset="0" style="stop-color:#AA80F9"/>
				<stop  offset="0.9964" style="stop-color:#6165D7"/>
			</linearGradient>
			<path style="fill:url(#SVGID_00000109746893624534592570000005850289900852744605_);" d="M2083.212,2358.564
				c0.599,22.398,37.412,42.126,67.053,48.178c69.305,14.145,149.655-36.212,187.793-91.918c7.489-10.938,15.809-24.2,17.815-23.174
				c4.534,2.322-37.13,70.778-55.195,148.636c-9.242,39.831-6.823,58.485-24.101,85.002c-3.914,6.007-8.737,12.261-7.042,19.368
				c4.245,17.797,44.947,22.419,73.181,25.625c29.809,3.385,57.606,3.057,85.086,2.655c43.991-0.642,47.456-2.927,57.497,2.002
				c30.598,15.016,28.525,50.997,51.55,55.794c19.336,4.031,38.952-17.563,45.171-24.409c32.327-35.586,30.6-78.49,36.333-121.765
				c13.329-100.61,67.99-210.838,121.459-280.617c16.217-21.162,27.494-32.295,28.198-51.962
				c2.068-57.735-89.398-121.469-165.552-128.792c-20.873-2.006-58.251-1.375-93.291,1.929c-14.005,1.318-28.915,3.261-44.94,6.065
				c-38.865,6.799-65.921,11.531-93.494,24.146c-111.186,50.873-86.922,164.115-207.264,242.412
				C2122.091,2324.66,2082.585,2335.108,2083.212,2358.564z"/>
			
				<linearGradient id="SVGID_00000001637835179406490000000000316592964220242816_" gradientUnits="userSpaceOnUse" x1="2550.9731" y1="1983.8613" x2="2514.0076" y2="2309.9487">
				<stop  offset="0" style="stop-color:#FFC444"/>
				<stop  offset="0.9964" style="stop-color:#F36F56"/>
			</linearGradient>
			<path style="fill:url(#SVGID_00000001637835179406490000000000316592964220242816_);" d="M2538.777,1963.293
				c0,0,4.775,26.65,15.767,45.621c9.935,17.145,51.009,23.291,59.566,26.276c8.557,2.983-12.91,17.887-35.74,23.29
				c-22.828,5.405-89.606,8.937-102.685,1.75c-13.079-7.187,8.493-9.385,24.202-17.643c15.71-8.259,20.964-41.83,16.099-56.102
				C2511.123,1972.21,2538.777,1963.293,2538.777,1963.293z"/>
			<g>
				
					<linearGradient id="SVGID_00000000208788000841655390000011494695761557392043_" gradientUnits="userSpaceOnUse" x1="4422.979" y1="2760.1492" x2="4363.6094" y2="2609.3606" gradientTransform="matrix(0.9989 0.0475 -0.0475 0.9989 -1725.9976 -907.3022)">
					<stop  offset="0" style="stop-color:#444B8C"/>
					<stop  offset="0.9964" style="stop-color:#3E4177"/>
				</linearGradient>
				<path style="fill:url(#SVGID_00000000208788000841655390000011494695761557392043_);" d="M2495.375,1955.58
					c-16.566-11.84-21.154-43.858-11.953-51.045c2.63-2.054,5.143-1.111,42.53,13.886c18.566,7.449,27.698,11.414,30.706,19.614
					c1.837,5.005,1.54,11.767-0.489,17.095c-1.045,2.742-3.08,6.155-7.605,12.669c-4.017,5.78-3.746,5.585-4.977,7.265
					c-2.958,4.036-8.663,10.83-19.117,18.707c-0.582-2.947-1.5-6.604-3.04-10.592c-0.592-1.534-2.98-7.532-6.767-12.585
					C2508.145,1961.898,2500.752,1959.424,2495.375,1955.58z"/>
				
					<linearGradient id="SVGID_00000067238431104045582450000016474702186186495878_" gradientUnits="userSpaceOnUse" x1="2517.7036" y1="1946.3298" x2="2546.7476" y2="2186.604">
					<stop  offset="0" style="stop-color:#FFC444"/>
					<stop  offset="0.9964" style="stop-color:#F36F56"/>
				</linearGradient>
				<path style="fill:url(#SVGID_00000067238431104045582450000016474702186186495878_);" d="M2537.833,1986.03
					c0,0-10.84,16.147-30.916,13.956c-17.976-1.963-18.848-42.504-6.958-50.58c3.966-2.695,11.712-3.545,17.891-1.519
					c3.65,1.197,4.833,2.788,10.834,4.627c5.535,1.697,7.145,1.145,8.772,2.643c2.036,1.871,3.393,6.301-0.654,17.966
					c3.592-3.333,7.78-4.488,10.644-2.98c0.457,0.241,1.658,1.137,2.298,2.444
					C2552.063,1977.316,2547.589,1983.028,2537.833,1986.03z"/>
			</g>
			
				<linearGradient id="SVGID_00000160151533416197343620000006252856779626918578_" gradientUnits="userSpaceOnUse" x1="2094.1021" y1="2324.9226" x2="2374.3369" y2="2324.9226">
				<stop  offset="0" style="stop-color:#AA80F9"/>
				<stop  offset="0.9964" style="stop-color:#6165D7"/>
			</linearGradient>
			<path style="opacity:0.3;fill:url(#SVGID_00000160151533416197343620000006252856779626918578_);" d="M2180.429,2355.121
				c50.25-11.317,70.272-10.952,95.121-30.973c41.372-33.335,47.585-84.07,71.627-83.45c11.362,0.293,20.591,11.896,27.159,23.258
				c-6.052,9.479-12.105,18.958-18.157,28.437c-0.025-0.36-0.104-0.64-0.306-0.743c-2.006-1.026-10.326,12.236-17.815,23.174
				c-38.137,55.706-118.488,106.063-187.793,91.918c-19.872-4.057-42.918-14.276-56.163-27.31
				C2128.307,2367.877,2157.522,2360.281,2180.429,2355.121z"/>
			
				<linearGradient id="SVGID_00000049186470306247083670000009482293409449936809_" gradientUnits="userSpaceOnUse" x1="6220.7021" y1="1075.6019" x2="6283.73" y2="1075.6019" gradientTransform="matrix(0.8553 0.5182 -0.5182 0.8553 -2728.719 -1761.0112)">
				<stop  offset="0" style="stop-color:#FFC444"/>
				<stop  offset="0.9964" style="stop-color:#F36F56"/>
			</linearGradient>
			<path style="fill:url(#SVGID_00000049186470306247083670000009482293409449936809_);" d="M2098.589,2398.327
				c0,0-28.354-2.82-45.25-10.049c-16.896-7.23-27.81,3.151-26.258,10.338c1.552,7.184,29.349,17.188,40.454,17.547
				C2078.641,2416.522,2098.589,2398.327,2098.589,2398.327z"/>
			
				<linearGradient id="SVGID_00000072261199546516286720000005507882623016057478_" gradientUnits="userSpaceOnUse" x1="2842.9648" y1="2121.4102" x2="2450.4861" y2="2765.7788">
				<stop  offset="0" style="stop-color:#AA80F9"/>
				<stop  offset="0.9964" style="stop-color:#6165D7"/>
			</linearGradient>
			<path style="fill:url(#SVGID_00000072261199546516286720000005507882623016057478_);" d="M2709.255,2548.304
				c30.443,2.716,98.968,3.955,147.434-40.884c80.686-74.642,40.659-216.725,12.573-277.829
				c-32.2-70.06-83.451-109.275-114.597-133.106c-38.641-29.567-62.226-47.613-90.601-43.572
				c-73.385,10.451-124.208,160.855-83.923,203.917c13.189,14.097,26.249,6.114,64.417,18.27
				c12.429,3.959,105.2,33.507,121.351,101.833c11.305,47.822-17.477,103.818-68.704,141.426
				C2701.222,2528.34,2705.239,2538.323,2709.255,2548.304z"/>
			
				<linearGradient id="SVGID_00000053507878626093625940000007877467040786045610_" gradientUnits="userSpaceOnUse" x1="2272.2834" y1="2413.8076" x2="2847.2227" y2="2413.8076">
				<stop  offset="0" style="stop-color:#AA80F9"/>
				<stop  offset="0.9964" style="stop-color:#6165D7"/>
			</linearGradient>
			<path style="opacity:0.3;fill:url(#SVGID_00000053507878626093625940000007877467040786045610_);" d="M2368.033,2523.53
				c34.464-21.78,39.563-43.854,78.156-58.769c50.136-19.378,74.229,5.237,99.086-14.636c29.581-23.651,3.395-64.854,25.532-136.356
				c3.757-12.136,32.295-104.316,97.776-116.061c30.534-5.476,70.864,6.221,86.405,32.097c12.162,20.25,0.832,35.346,15.619,57.702
				c14.777,22.342,32.45,16.877,51.288,35.51c29.911,29.588,34.496,91.98,7.491,127.264c-12.596,16.458-28.963,22.966-59.761,35.212
				c-18.812,7.479-36.299,12.132-51.359,15.086c37.711-36.195,57.282-82.874,47.643-123.648
				c-10.068-42.591-49.905-70.111-81.499-85.76c-31.614,59.496-57.453,128.438-66.056,193.386
				c-5.734,43.275-4.007,86.179-36.333,121.765c-6.219,6.846-25.834,28.44-45.171,24.409c-23.025-4.798-20.952-40.778-51.55-55.794
				c-10.041-4.929-13.506-2.644-57.497-2.002c-27.48,0.402-55.277,0.729-85.086-2.655c-25.109-2.852-60.015-6.847-70.433-20.209
				C2317.613,2548.838,2347.865,2536.275,2368.033,2523.53z"/>
			<g>
				
					<linearGradient id="SVGID_00000042007781900746397260000010169907848183817638_" gradientUnits="userSpaceOnUse" x1="1980.7666" y1="2456.032" x2="2694.4707" y2="2456.032">
					<stop  offset="0" style="stop-color:#444B8C"/>
					<stop  offset="0.9964" style="stop-color:#26264F"/>
				</linearGradient>
				<path style="fill:url(#SVGID_00000042007781900746397260000010169907848183817638_);" d="M2689.268,2572.23l3.547-10.432
					c5.654-16.634-3.642-34.373-20.752-39.585l-670.854-204.355l-20.442,69.286l667.465,205.586
					C2665.253,2597.972,2683.632,2588.811,2689.268,2572.23z"/>
				
					<linearGradient id="SVGID_00000049920185149520650920000015226549378321690006_" gradientUnits="userSpaceOnUse" x1="1322.5361" y1="2230.7478" x2="2058.9468" y2="2230.7478">
					<stop  offset="0" style="stop-color:#444B8C"/>
					<stop  offset="0.9964" style="stop-color:#26264F"/>
				</linearGradient>
				<path style="fill:url(#SVGID_00000049920185149520650920000015226549378321690006_);" d="M1334.571,2130.146
					c51.292-202.637,252.287-324.756,451.063-267.523c202.424,58.283,318.316,277.61,256.813,484.358
					c-60.058,201.894-266.019,310.809-458.209,248.519C1395.369,2534.286,1284.445,2328.174,1334.571,2130.146z M1984.057,2329.095
					c50.831-173.024-46.154-356.284-215.19-405.458c-166.483-48.432-335.624,53.226-379.269,223.365
					c-42.809,166.875,50.672,340.816,210.15,392.056C1761.585,2591.056,1934.229,2498.71,1984.057,2329.095z"/>
				<path style="opacity:0.3;fill:#D8DEE8;" d="M2001.208,2317.858l85.537,26.056c5.869,27.281,17.28,42.911,28.765,52.431
					c43.206,35.816,100.898-3.246,181.387,38.75c40.39,21.074,32.715,34.485,70.574,49.19c62.589,24.31,91.239-9.365,146.631,12.763
					c56.027,22.381,61.551,70.749,93.326,69.013c13.593-0.742,31.092-10.631,50.604-48.122l14.031,4.274
					c17.11,5.212,26.406,22.95,20.752,39.585l-3.547,10.431c-5.637,16.58-24.015,25.742-41.036,20.499l-667.465-205.587
					L2001.208,2317.858z"/>
				<path style="opacity:0.56;fill:#FFFFFF;" d="M1583.909,2566.789c167.402,53.873,346.13-41.529,397.813-217.05
					c52.758-179.176-47.674-369.005-222.79-419.852c-172.378-50.053-347.354,55.322-392.415,231.404
					C1322.35,2333.88,1419.031,2513.729,1583.909,2566.789z"/>
				
					<linearGradient id="SVGID_00000110450253908962613580000007969138268041741469_" gradientUnits="userSpaceOnUse" x1="-6749.6636" y1="3698.0405" x2="-7120.4585" y2="3282.877" gradientTransform="matrix(-0.8705 0.4922 0.4922 0.8705 -6104.4209 2747.6741)">
					<stop  offset="0" style="stop-color:#444B8C"/>
					<stop  offset="0.9964" style="stop-color:#26264F"/>
				</linearGradient>
				<path style="fill:url(#SVGID_00000110450253908962613580000007969138268041741469_);" d="M1321.577,2147.525
					c51.292-202.637,252.287-324.756,451.063-267.524c202.425,58.284,318.315,277.61,256.813,484.358
					c-60.059,201.895-266.02,310.81-458.209,248.519C1382.375,2551.664,1271.452,2345.552,1321.577,2147.525z M1971.064,2346.474
					c50.83-173.025-46.154-356.283-215.191-405.458c-166.483-48.432-335.624,53.226-379.27,223.365
					c-42.808,166.875,50.672,340.815,210.15,392.055C1748.592,2608.434,1921.235,2516.089,1971.064,2346.474z"/>
				
					<linearGradient id="SVGID_00000114787907105811505900000000475887550563986317_" gradientUnits="userSpaceOnUse" x1="-7294.7354" y1="3091.8779" x2="-6791.8457" y2="3645.4792" gradientTransform="matrix(-0.8705 0.4922 0.4922 0.8705 -6104.4209 2747.6741)">
					<stop  offset="0" style="stop-color:#444B8C"/>
					<stop  offset="0.9964" style="stop-color:#26264F"/>
				</linearGradient>
				<path style="fill:url(#SVGID_00000114787907105811505900000000475887550563986317_);" d="M1341.006,2153.476
					c48.612-191.142,238.356-305.986,425.691-251.848c190.573,55.073,299.762,261.601,242.071,456.396
					c-56.413,190.48-250.577,293.573-432.051,234.936C1398.207,2535.28,1293.438,2340.511,1341.006,2153.476z M1971.064,2346.474
					c50.83-173.025-46.154-356.283-215.191-405.458c-166.483-48.432-335.624,53.226-379.27,223.365
					c-42.808,166.875,50.672,340.815,210.15,392.055C1748.592,2608.434,1921.235,2516.089,1971.064,2346.474z"/>
			</g>
			
				<linearGradient id="SVGID_00000066477025901171359910000008187276021960860554_" gradientUnits="userSpaceOnUse" x1="-5398.7876" y1="931.4084" x2="-5384.8364" y2="852.4405" gradientTransform="matrix(-0.8553 -0.5182 -0.5182 0.8553 -1479.6936 -1003.974)">
				<stop  offset="0" style="stop-color:#FFC444"/>
				<stop  offset="0.9964" style="stop-color:#F36F56"/>
			</linearGradient>
			<path style="fill:url(#SVGID_00000066477025901171359910000008187276021960860554_);" d="M2706.67,2541.882l-6.78-16.85
				c0,0-11.068,0.674-20.15-5.838c-4.949-3.549-13.732-4.606-16.284-3.897c-2.552,0.708-12.192,0.286-1.204,5.529
				c10.987,5.241,10.901,9.136,6.321,13.439c-4.58,4.302-22.007,13.558-28.28,14.002c-6.273,0.446,5.069,10.148,11.395,11.388
				c6.327,1.237,16.7,2.805,29.534-4.751C2685.904,2552.147,2706.67,2541.882,2706.67,2541.882z"/>
		</g>
		<g>
			
				<linearGradient id="SVGID_00000000216502127496766000000010117623764130767268_" gradientUnits="userSpaceOnUse" x1="1791.0564" y1="659.0803" x2="2469.7908" y2="1008.5869">
				<stop  offset="0" style="stop-color:#444B8C"/>
				<stop  offset="0.9964" style="stop-color:#3E4177"/>
			</linearGradient>
			<path style="fill:url(#SVGID_00000000216502127496766000000010117623764130767268_);" d="M2188.987,892.802
				c11.005,5.588,24.832,0.457,30.881-11.459c6.05-11.916,2.033-26.106-8.972-31.693c-0.57-0.29-1.152-0.533-1.736-0.766
				c2.044-6.594,3.586-13.239,4.62-19.887c0.631-0.002,1.263-0.012,1.907-0.07c12.555-1.119,22.521-12.657,22.258-25.771
				c-0.263-13.114-10.655-22.837-23.21-21.718c-0.656,0.059-1.301,0.162-1.942,0.276c-1.312-6.498-3.109-12.847-5.376-18.991
				c0.578-0.338,1.152-0.687,1.714-1.081c10.742-7.526,14.177-22.38,7.671-33.177c-6.506-10.797-20.488-13.449-31.23-5.923
				c-0.551,0.386-1.068,0.802-1.58,1.225c-4.243-4.69-8.896-9.037-13.931-13.004c0.354-0.58,0.7-1.168,1.014-1.786
				c6.05-11.916,13.956-24.933,2.865-30.348c-25.658-12.525-36.668-1.803-42.719,10.113c-0.313,0.617-0.583,1.244-0.843,1.872
				c-6.174-1.724-12.429-2.916-18.719-3.573c0.04-0.662,0.07-1.326,0.057-1.998c-0.263-13.113,3.628-20.21-8.975-20.455
				c-27.484-0.534-36.757,11.395-36.494,24.508c0.014,0.685,0.071,1.356,0.139,2.021c-6.298,1.795-12.484,4.091-18.504,6.867
				c-0.286-0.585-0.583-1.166-0.923-1.731c-6.506-10.797-20.488-13.448-31.23-5.922c-10.742,7.526-14.177,22.38-7.671,33.177
				c0.333,0.553,0.698,1.07,1.069,1.581c-4.757,4.758-9.212,9.924-13.329,15.466c-0.533-0.334-1.073-0.66-1.643-0.95
				c-11.005-5.588-24.831-0.457-30.881,11.459c-6.051,11.916-2.034,26.106,8.971,31.694c0.57,0.29,1.152,0.533,1.736,0.766
				c-2.044,6.594-3.587,13.239-4.62,19.887c-0.631,0.002-1.264,0.012-1.906,0.069c-12.557,1.12-22.522,12.657-22.259,25.771
				c0.263,13.114,10.655,22.837,23.211,21.717c0.655-0.058,1.3-0.161,1.941-0.276c1.311,6.499,3.109,12.847,5.375,18.991
				c-0.577,0.338-1.152,0.687-1.713,1.081c-10.742,7.526-14.176,22.38-7.671,33.177c6.505,10.797,28.043,15.813,38.785,8.287
				c0.551-0.386-6.487-3.167-5.976-3.589c4.243,4.69,8.896,9.037,13.931,13.004c-0.353,0.581-0.7,1.168-1.014,1.786
				c-6.05,11.916-2.034,26.106,8.972,31.693c11.005,5.588,24.831,0.457,30.882-11.459c0.313-0.617,0.583-1.244,0.843-1.872
				c6.173,1.724,12.428,2.916,18.719,3.573c-0.039,0.662-0.07,1.326-0.057,1.998c0.263,13.114,10.655,22.837,23.211,21.718
				c12.556-1.119,22.521-12.657,22.258-25.771c-0.014-0.685-0.071-1.355-0.139-2.021c6.299-1.795,12.484-4.091,18.504-6.867
				c0.286,0.585,0.583,1.166,0.923,1.73c6.506,10.797,20.488,13.449,31.23,5.923c10.743-7.526,14.177-22.38,7.671-33.177
				c-0.333-0.553-0.698-1.07-1.069-1.58c4.757-4.758,9.212-9.924,13.329-15.465C2187.877,892.186,2188.417,892.513,2188.987,892.802
				z M2051.798,894.543c-39.958-20.287-54.542-71.807-32.575-115.072c21.967-43.266,72.166-61.893,112.123-41.606
				c39.958,20.287,54.542,71.807,32.575,115.072C2141.954,896.203,2091.755,914.83,2051.798,894.543z"/>
			
				<linearGradient id="SVGID_00000169552561649457076530000004672935819658961802_" gradientUnits="userSpaceOnUse" x1="1792.7589" y1="655.7733" x2="2471.4932" y2="1005.2799">
				<stop  offset="0" style="stop-color:#444B8C"/>
				<stop  offset="0.9964" style="stop-color:#3E4177"/>
			</linearGradient>
			<path style="fill:url(#SVGID_00000169552561649457076530000004672935819658961802_);" d="M2215.688,828.927
				c12.555-1.12,22.521-12.657,22.258-25.771c-0.263-13.114-10.655-22.838-23.21-21.718c-0.656,0.058-1.301,0.162-1.942,0.276
				c-1.311-6.499-3.109-12.847-5.376-18.991c0.578-0.338,1.152-0.687,1.714-1.081c10.742-7.526,24.032-25.711,16.453-35.783
				c-14.384-19.117-29.271-10.842-40.012-3.317c-0.551,0.386-1.068,0.802-1.58,1.225c-4.243-4.69-8.897-9.036-13.932-13.004
				c0.354-0.58,0.7-1.168,1.014-1.785c3.293-6.486,3.583-13.636,1.409-19.715c-10.376,18.262-20.612,36.6-30.664,55.038
				c31.876,23.359,42.025,69.391,22.1,108.635c-16.885,33.256-50.448,51.929-83.22,49.589c-1.462,3.791-2.897,7.603-4.463,11.358
				c-4.248,10.19-9.074,20.169-13.907,30.135c3.039,0.573,6.092,1.024,9.153,1.344c-0.039,0.663-0.07,1.327-0.057,1.999
				c0.263,13.114,8.225,24.255,30.98,23.048c12.588-0.667,14.751-13.988,14.488-27.101c-0.014-0.685-0.071-1.355-0.139-2.021
				c6.298-1.795,12.484-4.091,18.504-6.867c0.286,0.585,0.583,1.166,0.923,1.73c6.506,10.798,29.074,15.385,39.816,7.859
				c10.743-7.526,5.59-24.315-0.916-35.113c-0.333-0.553-0.698-1.07-1.069-1.581c4.757-4.757,9.212-9.924,13.329-15.465
				c0.532,0.334,1.073,0.66,1.643,0.949c11.005,5.588,24.832,0.457,30.882-11.459c6.05-11.916,2.033-26.106-8.972-31.694
				c-0.57-0.29-1.152-0.533-1.736-0.765c2.044-6.594,3.586-13.24,4.62-19.887C2214.412,828.995,2215.045,828.984,2215.688,828.927z"
				/>
			
				<linearGradient id="SVGID_00000023969301196443249740000003056240951844988806_" gradientUnits="userSpaceOnUse" x1="2231.146" y1="636.9166" x2="1589.1071" y2="1544.8225">
				<stop  offset="0" style="stop-color:#AA80F9"/>
				<stop  offset="0.9964" style="stop-color:#6165D7"/>
			</linearGradient>
			<path style="fill:url(#SVGID_00000023969301196443249740000003056240951844988806_);" d="M2200.824,894.148
				c11.005,5.588,24.832,0.457,30.882-11.459c6.05-11.916,2.033-26.106-8.972-31.693c-0.57-0.289-1.152-0.533-1.735-0.765
				c2.044-6.594,3.586-13.239,4.62-19.887c0.631-0.002,1.264-0.012,1.907-0.07c12.556-1.119,22.521-12.657,22.258-25.771
				c-0.263-13.114-10.655-22.838-23.211-21.718c-0.656,0.059-1.301,0.162-1.942,0.276c-1.311-6.499-3.108-12.847-5.375-18.991
				c0.578-0.338,1.152-0.687,1.714-1.081c10.742-7.526,14.177-22.38,7.671-33.177c-6.506-10.797-20.488-13.449-31.23-5.923
				c-0.551,0.386-1.069,0.802-1.58,1.225c-4.243-4.69-8.896-9.037-13.931-13.004c0.354-0.58,0.7-1.169,1.014-1.786
				c6.05-11.916,2.033-26.106-8.972-31.694c-11.005-5.588-24.831-0.457-30.882,11.459c-0.313,0.617-0.584,1.244-0.843,1.872
				c-6.174-1.724-12.429-2.916-18.719-3.573c0.039-0.663,0.069-1.326,0.056-1.998c-0.263-13.113-10.655-22.837-23.211-21.718
				c-12.556,1.119-22.521,12.657-22.258,25.77c0.014,0.686,0.071,1.355,0.139,2.021c-6.298,1.795-12.484,4.091-18.504,6.867
				c-0.286-0.585-0.583-1.166-0.923-1.731c-6.505-10.797-20.488-13.449-31.23-5.922c-10.742,7.527-14.176,22.38-7.671,33.177
				c0.333,0.553,0.698,1.07,1.069,1.581c-4.757,4.758-9.212,9.923-13.329,15.465c-0.532-0.334-1.072-0.66-1.643-0.95
				c-11.005-5.588-24.831-0.457-30.881,11.459c-6.05,11.916-2.034,26.106,8.972,31.694c0.57,0.29,1.152,0.533,1.736,0.766
				c-2.045,6.594-3.586,13.239-4.62,19.887c-0.631,0.002-1.264,0.012-1.907,0.069c-12.556,1.12-22.521,12.657-22.258,25.771
				c0.263,13.114,10.655,22.837,23.21,21.717c0.656-0.058,1.301-0.161,1.941-0.276c1.312,6.499,3.109,12.847,5.376,18.991
				c-0.578,0.338-1.152,0.687-1.714,1.081c-10.742,7.526-14.176,22.38-7.671,33.177c6.506,10.797,20.488,13.449,31.23,5.923
				c0.551-0.386,1.069-0.802,1.58-1.225c4.243,4.69,8.896,9.037,13.931,13.004c-0.354,0.58-0.7,1.168-1.014,1.786
				c-6.05,11.916-2.033,26.106,8.972,31.693c11.005,5.587,24.831,0.457,30.881-11.459c0.313-0.617,0.583-1.244,0.843-1.872
				c6.174,1.724,12.429,2.915,18.719,3.573c-0.039,0.663-0.07,1.326-0.056,1.999c0.263,13.113,10.655,22.837,23.211,21.718
				c12.556-1.119,22.521-12.657,22.258-25.771c-0.013-0.685-0.071-1.355-0.139-2.021c6.298-1.795,12.484-4.091,18.504-6.867
				c0.286,0.585,0.583,1.166,0.923,1.73c6.506,10.797,20.488,13.449,31.23,5.923s14.177-22.38,7.671-33.177
				c-0.334-0.553-0.699-1.07-1.069-1.58c4.757-4.757,9.212-9.923,13.329-15.465C2199.714,893.532,2200.254,893.859,2200.824,894.148
				z M2063.634,895.889c-39.958-20.287-54.542-71.806-32.575-115.072c21.967-43.266,72.166-61.893,112.123-41.606
				c39.958,20.287,54.542,71.807,32.575,115.072C2153.791,897.549,2103.592,916.176,2063.634,895.889z"/>
		</g>
	</g>
</g>
</svg>
