<?xml version="1.0" encoding="utf-8"?>
<!-- Generator: Adobe Illustrator 27.5.0, SVG Export Plug-In . SVG Version: 6.00 Build 0)  -->
<svg version="1.1" xmlns="http://www.w3.org/2000/svg" xmlns:xlink="http://www.w3.org/1999/xlink" x="0px" y="0px"
	 viewBox="0 0 500 500" style="enable-background:new 0 0 500 500;" xml:space="preserve">
<g id="BACKGROUND">
	<rect style="fill:#F2F2F2;" width="500" height="500"/>
</g>
<g id="OBJECTS">
	<g>
		<path style="fill-rule:evenodd;clip-rule:evenodd;fill:#4E3493;" d="M452.247,205.636
			c6.944,105.372-73.971,194.026-180.728,198.015C164.761,407.64,52.184,363.732,20.07,305.58
			c-32.114-58.152,48.801-146.807,180.728-198.015S445.303,100.264,452.247,205.636z"/>
		<g>
			<defs>
				<path id="SVGID_1_" d="M452.247,205.636c6.944,105.372-73.971,194.026-180.728,198.015
					C164.761,407.64,52.184,363.732,20.07,305.58c-32.114-58.152,48.801-146.807,180.728-198.015S445.303,100.264,452.247,205.636z"
					/>
			</defs>
			<clipPath id="SVGID_00000163791862473185536040000016641024750224226991_">
				<use xlink:href="#SVGID_1_"  style="overflow:visible;"/>
			</clipPath>
			
				<path style="clip-path:url(#SVGID_00000163791862473185536040000016641024750224226991_);fill-rule:evenodd;clip-rule:evenodd;fill:#593CA8;" d="
				M422.448,179.81c6.944,105.372-73.971,194.026-180.728,198.015c-106.757,3.989-219.334-39.919-251.448-98.071
				S39.072,132.947,171,81.739C302.927,30.53,415.504,74.438,422.448,179.81z"/>
		</g>
		<g>
			<rect x="253.625" y="327.184" style="fill-rule:evenodd;clip-rule:evenodd;fill:#282732;" width="12.026" height="21.461"/>
			<rect x="221.914" y="345.812" style="fill-rule:evenodd;clip-rule:evenodd;fill:#282732;" width="75.447" height="2.832"/>
			<rect x="176.113" y="213.939" style="fill-rule:evenodd;clip-rule:evenodd;fill:#342B4E;" width="178.047" height="118.212"/>
			<rect x="180.847" y="218.459" style="fill-rule:evenodd;clip-rule:evenodd;fill:#282732;" width="168.578" height="108.725"/>
			<rect x="180.847" y="218.832" style="fill-rule:evenodd;clip-rule:evenodd;fill:#D7CEF1;" width="168.578" height="49.932"/>
			<rect x="180.847" y="282.551" style="fill-rule:evenodd;clip-rule:evenodd;fill:#CDC2EE;" width="168.578" height="44.633"/>
			<rect x="180.847" y="263.465" style="fill-rule:evenodd;clip-rule:evenodd;fill:#E5DFF6;" width="168.578" height="26.381"/>
			<path style="fill-rule:evenodd;clip-rule:evenodd;fill:#AC99E3;" d="M213.825,303.357c0-3.861-1.534-7.564-4.264-10.294
				c-2.73-2.73-6.433-4.264-10.294-4.264h-0.001c-3.861,0-7.564,1.534-10.294,4.264c-2.73,2.73-4.264,6.433-4.264,10.294v23.826
				h29.117V303.357z"/>
			<path style="fill-rule:evenodd;clip-rule:evenodd;fill:#AC99E3;" d="M256.664,276.183c0-7.024-5.694-12.718-12.718-12.718h0
				c-7.024,0-12.718,5.694-12.718,12.718v51.001h25.436V276.183z"/>
			<path style="fill-rule:evenodd;clip-rule:evenodd;fill:#AC99E3;" d="M303.184,301.444c0-3.861-1.534-7.564-4.264-10.294
				c-2.73-2.73-6.433-4.264-10.294-4.264h-0.001c-3.861,0-7.564,1.534-10.294,4.264c-2.73,2.73-4.264,6.433-4.264,10.294v25.739
				h29.117V301.444z"/>
			<path style="fill-rule:evenodd;clip-rule:evenodd;fill:#AC99E3;" d="M346.358,307.065c0-7.827-6.345-14.172-14.172-14.172
				c-0.035,0-0.07,0-0.105,0c-7.827,0-14.171,6.345-14.171,14.172c0,9.439,0,20.119,0,20.119h28.448V307.065z"/>
			<ellipse style="fill-rule:evenodd;clip-rule:evenodd;fill:#7B5EC6;" cx="262.03" cy="247.633" rx="6.267" ry="6.292"/>
			<path style="fill-rule:evenodd;clip-rule:evenodd;fill:#F5F2FA;" d="M252.752,247.633L252.752,247.633
				c0,0.814,0.323,1.594,0.898,2.169c0.575,0.575,1.355,0.898,2.168,0.898c0.951,0,1.981,0,2.865,0c0.592,0,1.16-0.235,1.579-0.654
				c0.419-0.419,0.654-0.987,0.654-1.579v-1.957c0-1.073-0.87-1.942-1.942-1.942h-9.864v0.001c0,1.693,1.373,3.066,3.066,3.066
				H252.752z"/>
			<path style="fill-rule:evenodd;clip-rule:evenodd;fill:#4E3493;" d="M263.764,244.886c0.652,0,1.181,0.529,1.181,1.181
				c0,0.652-0.529,1.182-1.181,1.182c-0.652,0-1.181-0.53-1.181-1.182C262.582,245.415,263.112,244.886,263.764,244.886z"/>
			<path style="fill-rule:evenodd;clip-rule:evenodd;fill:#4E3493;" d="M267.186,244.886c0.652,0,1.182,0.529,1.182,1.181
				c0,0.652-0.53,1.182-1.182,1.182s-1.181-0.53-1.181-1.182C266.005,245.415,266.534,244.886,267.186,244.886z"/>
			<path style="fill-rule:evenodd;clip-rule:evenodd;fill:#F5F2FA;" d="M228.79,241.577c0-1.693-1.373-3.066-3.066-3.066h-33.004
				c-1.693,0-3.066,1.373-3.066,3.066v0.002c0,1.693,1.373,3.066,3.066,3.066h33.004c1.693,0,3.066-1.373,3.066-3.066V241.577z"/>
			<path style="fill-rule:evenodd;clip-rule:evenodd;fill:#F5F2FA;" d="M200.603,233.607c2.496,0,4.523,2.026,4.523,4.523
				c0,2.496-2.027,4.523-4.523,4.523c-2.496,0-4.522-2.027-4.522-4.523C196.08,235.634,198.107,233.607,200.603,233.607z"/>
			<path style="fill-rule:evenodd;clip-rule:evenodd;fill:#F5F2FA;" d="M208.505,229.106c3.442,0,6.236,2.794,6.236,6.236
				c0,3.442-2.794,6.236-6.236,6.236c-3.441,0-6.236-2.794-6.236-6.236C202.269,231.901,205.063,229.106,208.505,229.106z"/>
			<path style="fill-rule:evenodd;clip-rule:evenodd;fill:#F5F2FA;" d="M218.282,232.266c3.057,0,5.539,2.482,5.539,5.54
				c0,3.057-2.482,5.54-5.539,5.54c-3.057,0-5.54-2.482-5.54-5.54C212.742,234.748,215.224,232.266,218.282,232.266z"/>
			<path style="fill-rule:evenodd;clip-rule:evenodd;fill:#F5F2FA;" d="M339.555,263.876c0-1.693-1.373-3.066-3.066-3.066h-33.003
				c-1.693,0-3.066,1.373-3.066,3.066v0.003c0,1.693,1.373,3.066,3.066,3.066h33.003c1.693,0,3.066-1.373,3.066-3.066V263.876z"/>
			<path style="fill-rule:evenodd;clip-rule:evenodd;fill:#F5F2FA;" d="M311.367,255.906c2.496,0,4.522,2.026,4.522,4.522
				c0,2.496-2.026,4.522-4.522,4.522c-2.496,0-4.523-2.026-4.523-4.522C306.844,257.933,308.871,255.906,311.367,255.906z"/>
			<path style="fill-rule:evenodd;clip-rule:evenodd;fill:#F5F2FA;" d="M319.269,251.406c3.442,0,6.236,2.794,6.236,6.236
				c0,3.442-2.794,6.236-6.236,6.236c-3.442,0-6.236-2.794-6.236-6.236C313.033,254.2,315.827,251.406,319.269,251.406z"/>
			<path style="fill-rule:evenodd;clip-rule:evenodd;fill:#F5F2FA;" d="M329.046,254.565c3.057,0,5.539,2.482,5.539,5.539
				c0,3.057-2.482,5.539-5.539,5.539c-3.057,0-5.54-2.482-5.54-5.539C323.506,257.047,325.988,254.565,329.046,254.565z"/>
		</g>
		<g>
			<path style="fill-rule:evenodd;clip-rule:evenodd;fill:#F3F3F3;" d="M182.926,250.505c0.272-0.856,2.509-7.176,6.676-9.471
				c4.201-2.315-0.723,15.077-0.723,15.077S182.654,251.361,182.926,250.505z"/>
			<g>
				<defs>
					<path id="SVGID_00000153692006916364678040000010875500150513953707_" d="M182.926,250.505
						c0.272-0.856,2.509-7.176,6.676-9.471c4.201-2.315-0.723,15.077-0.723,15.077S182.654,251.361,182.926,250.505z"/>
				</defs>
				<clipPath id="SVGID_00000064353154477997232820000004629007258732122758_">
					<use xlink:href="#SVGID_00000153692006916364678040000010875500150513953707_"  style="overflow:visible;"/>
				</clipPath>
				
					<path style="clip-path:url(#SVGID_00000064353154477997232820000004629007258732122758_);fill-rule:evenodd;clip-rule:evenodd;fill:#DAAADA;" d="
					M191.986,241.427c1.722,0.494,1.058,4.678,0.322,8.179c-0.736,3.501-2.376,5.4-4.07,4.79c-3.738-1.347-2.906-3.079-2.17-6.581
					C186.804,244.314,190.264,240.933,191.986,241.427z"/>
			</g>
			<path style="fill-rule:evenodd;clip-rule:evenodd;fill:#FF9DE2;" d="M166.819,248.466c-1.227,0.181-11.204,6.766-12.741,15.241
				c-1.537,8.475,0.756,14.61,5.856,20.522c5.1,5.912,8.66,6.324,8.214,15.869c-0.446,9.545,1.459,11.571,1.459,11.571
				s4.462-0.781,6.469-10.82c2.008-10.039-3.904-19.074-7.808-28.555c-3.904-9.481-0.446-13.273,1.004-16.62
				C170.723,252.328,168.046,248.285,166.819,248.466z"/>
			<path style="fill-rule:evenodd;clip-rule:evenodd;fill:#9881D3;" d="M167.179,252.32c-1.249,1-8.327,1.965-9.116,13.038
				c-0.789,11.073-0.608,13.126,5.102,19.372c5.71,6.246,11.064,13.296,10.171,10.886
				C172.445,293.207,168.428,251.32,167.179,252.32z"/>
			<path style="fill-rule:evenodd;clip-rule:evenodd;fill:#D1D1D1;" d="M194.472,323.948c-0.628-1.361-1.379-2.147-2.234-1.946
				c-0.636,0.15-2.071,0.417-4.056,0.782c-1.949-0.358-3.358-0.621-3.986-0.769c-0.848-0.2-1.595,0.573-2.221,1.918
				c-10.889,2.05-27.017,5.35-32.779,8.61c-5.602,3.17-0.028,17.81,6.508,17.047c4.662-0.544,20.801,0.515,31.124-1.833
				c10.315,2.353,29.23,1.301,33.901,1.846c6.536,0.763,12.111-13.877,6.508-17.047
				C221.479,329.296,205.362,325.999,194.472,323.948z"/>
			<g>
				<defs>
					<path id="SVGID_00000069372139107648934410000003540899313189895855_" d="M194.472,323.948
						c-0.628-1.361-1.379-2.147-2.234-1.946c-0.636,0.15-2.071,0.417-4.056,0.782c-1.949-0.358-3.358-0.621-3.986-0.769
						c-0.848-0.2-1.595,0.573-2.221,1.918c-10.889,2.05-27.017,5.35-32.779,8.61c-5.602,3.17-0.028,17.81,6.508,17.047
						c4.662-0.544,22.162-2.925,32.484-5.274c10.315,2.353,27.87,4.742,32.54,5.287c6.536,0.763,12.111-13.877,6.508-17.047
						C221.479,329.296,205.362,325.999,194.472,323.948z"/>
				</defs>
				<clipPath id="SVGID_00000108290102170912544290000005643629673728612537_">
					<use xlink:href="#SVGID_00000069372139107648934410000003540899313189895855_"  style="overflow:visible;"/>
				</clipPath>
				
					<path style="clip-path:url(#SVGID_00000108290102170912544290000005643629673728612537_);fill-rule:evenodd;clip-rule:evenodd;fill:#FF9DA2;" d="
					M225.618,327.971c-0.128,0.894-0.639,9.39-4.407,15.522c-3.769,6.132-5.621,7.094-5.621,7.094s-52.587,6.294-54.014,4.726
					c-1.426-1.567-6.4-5.383-7.831-12.332c-1.43-6.95-0.409-14.444-1.43-14.376c-1.022,0.068-6.95-2.317-7.222,4.769
					c-0.272,7.086,2.861,20.236,7.018,22.621c4.156,2.385,59.617,0.681,65.681-0.681c6.064-1.363,9.539-7.495,12.4-15.058
					c2.862-7.563,0.749-11.447-0.477-12.128C228.488,327.447,225.746,327.077,225.618,327.971z"/>
			</g>
			<path style="fill-rule:evenodd;clip-rule:evenodd;fill:#EBEBEB;" d="M188.059,329.585c1.033,5.248,2.135,11.37,2.678,16.074
				c0.721,6.254,19.087,4.109,18.626-2.089c-0.35-4.708-0.141-1.962-2.694-20.514c-2.553-18.552-9.872-37.274-9.872-37.274
				s-18.382,2.042-20.424,3.234c-2.042,1.192-3.738,1.627-6.467,15.148c-2.786,13.798-5.756,32.521-6.845,41.495
				c-0.577,4.759,16.607,6.521,18.057,1.691c1.267-4.221,2.427-11.542,3.266-17.762c0.598,0.07,1.208,0.106,1.826,0.106
				C186.836,329.694,187.454,329.656,188.059,329.585z"/>
			<g>
				<defs>
					<path id="SVGID_00000016038422765011232690000017332792352701076398_" d="M188.059,329.585
						c1.033,5.248,2.135,11.37,2.678,16.074c0.721,6.254,19.087,4.109,18.626-2.089c-0.35-4.708-0.141-1.962-2.694-20.514
						c-2.553-18.552-9.872-37.274-9.872-37.274s-18.382,2.042-20.424,3.234c-2.042,1.192-3.738,1.627-6.467,15.148
						c-2.786,13.798-5.756,32.521-6.845,41.495c-0.577,4.759,16.607,6.521,18.057,1.691c1.267-4.221,2.427-11.542,3.266-17.762
						c0.598,0.07,1.208,0.106,1.826,0.106C186.836,329.694,187.454,329.656,188.059,329.585z"/>
				</defs>
				<clipPath id="SVGID_00000048467904746870547160000003797320183347316886_">
					<use xlink:href="#SVGID_00000016038422765011232690000017332792352701076398_"  style="overflow:visible;"/>
				</clipPath>
				
					<path style="clip-path:url(#SVGID_00000048467904746870547160000003797320183347316886_);fill-rule:evenodd;clip-rule:evenodd;fill:#DFDFDF;" d="
					M168.166,293.571c0,0,4.23,8.589,15.458,13.005c11.228,4.416,23.429,0.224,23.429,0.224l-6.063-14.674L168.166,293.571z"/>
				
					<path style="clip-path:url(#SVGID_00000048467904746870547160000003797320183347316886_);fill-rule:evenodd;clip-rule:evenodd;fill:#FF9DA2;" d="
					M188.865,343.237c0.422,0.307,7.588,0.575,12.226,0.038c4.637-0.537,8.021-2.676,8.021-2.676s2.212,2.062,1.178,4.975
					c-1.035,2.913-20.676,7.609-22.679,6.172c-2.003-1.437-2.482-1.258-3.799-0.838c-1.317,0.419-15.33,3.114-19.163,0.779
					c-3.833-2.335-2.994-8.923-2.994-8.923s5.39-0.06,12.037,0.898c6.647,0.958,12.518-0.06,12.518-0.06
					S188.444,342.93,188.865,343.237z"/>
			</g>
			<path style="fill-rule:evenodd;clip-rule:evenodd;fill:#F3F3F3;" d="M192.428,254.471c0.839,1.18,19.28,21.54,18.736,32.297
				c-0.545,10.757-14.978,19.199-25.462,19.063c-10.484-0.136-16.203-7.489-20.016-20.832c-3.812-13.344-9.395-22.466-2.451-29.547
				C170.18,248.371,185.375,244.559,192.428,254.471z"/>
			<g>
				<defs>
					<path id="SVGID_00000038376510395234886720000008564533896899101596_" d="M192.428,254.471
						c0.839,1.18,19.28,21.54,18.736,32.297c-0.545,10.757-14.978,19.199-25.462,19.063c-10.484-0.136-16.203-7.489-20.016-20.832
						c-3.812-13.344-9.395-22.466-2.451-29.547C170.18,248.371,185.375,244.559,192.428,254.471z"/>
				</defs>
				<clipPath id="SVGID_00000177458866396637596810000008400302168765729955_">
					<use xlink:href="#SVGID_00000038376510395234886720000008564533896899101596_"  style="overflow:visible;"/>
				</clipPath>
				
					<path style="clip-path:url(#SVGID_00000177458866396637596810000008400302168765729955_);fill-rule:evenodd;clip-rule:evenodd;fill:#FF9DA2;" d="
					M216.108,285.208c0,0-19.075-4.165-32.644,1.157s-15.009,11.744-15.009,11.744s8.765,14.99,27.17,8.652
					c18.405-6.337,22.917-14.541,22.673-18.273C218.053,284.757,216.108,285.208,216.108,285.208z"/>
			</g>
			<path style="fill-rule:evenodd;clip-rule:evenodd;fill:#FF9DE2;" d="M163.253,250.868c1.887-6.37,7.474-7.57,8.745-8.261
				c3.529-1.918,6.928-0.98,9.96,1.394c3.829,2.998,6.891,7.525,11.799,8.954c2.513,0.731,5.394,0.012,7.35-1.703
				c0.698-0.612,1.237-1.373,1.608-2.222c0.062-0.142,0.364-1.397,0.641-1.177c0.547,0.438,0.582,1.854,0.688,2.462
				c0.422,2.406,0.573,4.961,0.013,7.355c-0.725,3.102-3.032,4.564-5.651,6.022c-5.207,2.897-11.754,4.635-17.298,1.586
				c-4.067-2.237,2.037-8.465-1.276-11.489c-1.429-1.305-11.025-1.305-13.499,0.127c-0.661,0.382-2.47,0.872-2.599,1.048
				C163.214,255.675,163.043,251.577,163.253,250.868z"/>
			<path style="fill-rule:evenodd;clip-rule:evenodd;fill:#FFDF3F;" d="M169.822,256.384c-1.047-11.262-2.914-25.083-0.411-25.655
				c2.478-1.299,8.969,17.502,11.018,23.5c0.879,2.572-0.962,4.933-3.97,5.66C173.559,260.589,170.051,258.851,169.822,256.384z"/>
			<g>
				<defs>
					<path id="SVGID_00000095321149542171845480000013622031995829831869_" d="M169.822,256.384
						c-1.047-11.262-2.914-25.083-0.411-25.655c2.478-1.299,8.969,17.502,11.018,23.5c0.879,2.572-0.962,4.933-3.97,5.66
						C173.559,260.589,170.051,258.851,169.822,256.384z"/>
				</defs>
				<clipPath id="SVGID_00000074424953303724175180000008328097672221000877_">
					<use xlink:href="#SVGID_00000095321149542171845480000013622031995829831869_"  style="overflow:visible;"/>
				</clipPath>
				
					<path style="clip-path:url(#SVGID_00000074424953303724175180000008328097672221000877_);fill:none;stroke:#000000;stroke-width:0.1305;stroke-linecap:round;stroke-linejoin:round;stroke-miterlimit:10;" d="
					M165.793,242.511c0.078,0.235,0.598,0.464,0.777,0.575c0.758,0.466,1.552,0.856,2.376,1.191
					c3.288,1.336,7.023,2.095,10.579,1.743"/>
				
					<path style="clip-path:url(#SVGID_00000074424953303724175180000008328097672221000877_);fill:none;stroke:#000000;stroke-width:0.1305;stroke-linecap:round;stroke-linejoin:round;stroke-miterlimit:10;" d="
					M165.228,235.085c3.213,2.856,8.082,3.492,12.163,4.172"/>
			</g>
			<path style="fill-rule:evenodd;clip-rule:evenodd;fill:#9881D3;" d="M162.234,254.229c0.613-1.488,7.756-7.313,13.497-5.615
				c5.741,1.698,7.652,8.118,15.79,9.759c8.138,1.642,12.829-2.51,12.829-2.51s1.855,6.531-9.184,10.35
				c-11.038,3.819-17.314,1.083-20.76-3.486c-3.445-4.569-12.369-6.425-12.369-6.425S161.621,255.717,162.234,254.229z"/>
			<path style="fill-rule:evenodd;clip-rule:evenodd;fill:#F3F3F3;" d="M163.442,256.771c-0.656-0.615-5.691-5.04-10.449-5.011
				c-4.796,0.029,7.988,12.808,7.988,12.808S164.098,257.385,163.442,256.771z"/>
			<g>
				<defs>
					<path id="SVGID_00000151536986169556779040000000280369099238925753_" d="M163.442,256.771
						c-0.656-0.615-5.691-5.04-10.449-5.011c-4.796,0.029,7.988,12.808,7.988,12.808S164.098,257.385,163.442,256.771z"/>
				</defs>
				<clipPath id="SVGID_00000007422699143046329140000014293396939755038136_">
					<use xlink:href="#SVGID_00000151536986169556779040000000280369099238925753_"  style="overflow:visible;"/>
				</clipPath>
				
					<path style="clip-path:url(#SVGID_00000007422699143046329140000014293396939755038136_);fill-rule:evenodd;clip-rule:evenodd;fill:#DAAADA;" d="
					M151.104,253.267c-1.262,1.272,1.359,4.599,3.71,7.296c2.35,2.697,4.708,3.553,5.889,2.195c2.606-2.999,1.034-4.105-1.316-6.802
					C157.036,253.259,152.366,251.995,151.104,253.267z"/>
			</g>
			<g>
				<path style="fill:#342B4E;" d="M177.419,277.026c-0.117,0-0.23-0.067-0.282-0.181c-0.238-0.523-0.218-1.184-0.201-1.715
					l0.003-0.09c0.038-1.352,0.508-2.519,1.288-3.202c0.625-0.548,1.447-0.786,2.377-0.691c1.999,0.209,3.467,1.871,4.647,3.208
					c0.113,0.128,0.101,0.324-0.027,0.436c-0.128,0.115-0.324,0.103-0.437-0.027c-1.108-1.255-2.488-2.818-4.247-3
					c-0.763-0.082-1.405,0.103-1.906,0.54c-0.65,0.569-1.043,1.572-1.077,2.753l-0.003,0.091c-0.014,0.467-0.033,1.049,0.146,1.44
					c0.071,0.155,0.002,0.34-0.153,0.41C177.506,277.017,177.463,277.026,177.419,277.026z"/>
			</g>
			<g>
				<path style="fill:#342B4E;" d="M191.687,273.016c-0.041,0-0.081-0.007-0.117-0.02c-0.066-0.026-0.205-0.079-0.349-0.511
					c-0.128-0.375-0.204-0.777-0.225-1.189c-0.045-0.886,0.094-2.458,1.538-3.026c2.405-0.944,4.216,1.618,4.883,2.764
					c0.086,0.148,0.036,0.338-0.112,0.424c-0.148,0.084-0.337,0.037-0.423-0.112c-0.587-1.009-2.162-3.268-4.121-2.5
					c-1.083,0.427-1.182,1.698-1.146,2.419c0.018,0.355,0.083,0.699,0.193,1.022c0.016,0.049,0.044,0.117,0.065,0.163
					c0.038,0.026,0.071,0.061,0.096,0.104c0.084,0.149,0.031,0.339-0.118,0.422C191.804,273.002,191.745,273.016,191.687,273.016z"
					/>
			</g>
			<g>
				<path style="fill:#342B4E;" d="M183.377,302.34c-1.764,0-3.241-1.713-3.742-3.339c-0.051-0.164,0.041-0.337,0.205-0.387
					c0.165-0.052,0.337,0.042,0.387,0.205c0.435,1.412,1.684,2.901,3.149,2.901c0.011,0,0.022,0,0.033,0
					c1.576-0.024,2.997-1.441,3.65-2.748c0.076-0.154,0.26-0.216,0.416-0.139c0.153,0.077,0.215,0.263,0.138,0.416
					c-0.734,1.469-2.36,3.062-4.194,3.09C183.404,302.34,183.39,302.34,183.377,302.34z"/>
			</g>
			<path style="fill-rule:evenodd;clip-rule:evenodd;fill:#FF9DA2;" d="M172.557,280.71c-1.669,0-3.024,1.046-3.024,2.335
				s1.355,2.335,3.024,2.335c1.669,0,3.024-1.046,3.024-2.335S174.226,280.71,172.557,280.71z"/>
			<path style="fill-rule:evenodd;clip-rule:evenodd;fill:#FF9DA2;" d="M202.648,274.122c-1.669,0-3.024,1.047-3.024,2.336
				s1.355,2.335,3.024,2.335s3.024-1.046,3.024-2.335S204.318,274.122,202.648,274.122z"/>
		</g>
		<g>
			<path style="fill-rule:evenodd;clip-rule:evenodd;fill:#28213B;" d="M284.833,330.704c1.607,0,2.911,1.138,2.911,2.541
				c0,1.402-1.304,2.541-2.911,2.541c-1.607,0-2.911-1.139-2.911-2.541C281.922,331.843,283.227,330.704,284.833,330.704z"/>
			<path style="fill-rule:evenodd;clip-rule:evenodd;fill:#28213B;" d="M284.141,335.074c0.324-0.349,0.25-0.853-0.166-1.126
				c0,0,0,0,0,0c-0.416-0.272-1.016-0.21-1.34,0.139c-2.089,2.251-9.147,9.856-11.236,12.107c-0.324,0.349-0.25,0.853,0.166,1.126
				c0,0,0,0,0.001,0c0.416,0.273,1.016,0.21,1.34-0.139C274.994,344.931,282.052,337.325,284.141,335.074z"/>
			<path style="fill-rule:evenodd;clip-rule:evenodd;fill:#28213B;" d="M285.712,335.074c-0.324-0.349-0.25-0.853,0.166-1.126
				c0,0,0,0,0.001,0c0.416-0.272,1.016-0.21,1.34,0.139c2.089,2.251,9.147,9.856,11.236,12.107c0.324,0.349,0.25,0.853-0.166,1.126
				c0,0,0,0,0,0c-0.416,0.273-1.016,0.21-1.34-0.139C294.859,344.931,287.801,337.325,285.712,335.074z"/>
			<path style="fill-rule:evenodd;clip-rule:evenodd;fill:#28213B;" d="M283.789,334.666c-0.042-0.356,0.349-0.68,0.873-0.724
				c0,0,0,0,0.001,0c0.525-0.044,0.984,0.209,1.027,0.565c0.273,2.292,1.194,10.036,1.466,12.328
				c0.042,0.356-0.349,0.68-0.873,0.724c0,0,0,0,0,0c-0.525,0.044-0.984-0.209-1.027-0.564
				C284.983,344.702,284.062,336.958,283.789,334.666z"/>
			<rect x="280.157" y="322.497" style="fill-rule:evenodd;clip-rule:evenodd;fill:#302848;" width="9.539" height="11.247"/>
			<rect x="285.478" y="307.63" style="fill-rule:evenodd;clip-rule:evenodd;fill:#28213B;" width="4.27" height="14.129"/>
			<path style="fill-rule:evenodd;clip-rule:evenodd;fill:#53457C;" d="M283.299,288.45c-1.861-0.008-3.65,0.703-4.975,1.977
				c-1.324,1.274-2.074,3.007-2.086,4.817c-0.038,5.908-0.091,14.209-0.121,18.82c-0.006,0.91,0.36,1.784,1.017,2.43
				c0.657,0.646,1.551,1.012,2.487,1.016c3.04,0.014,7.407,0.034,10.446,0.047c0.935,0.004,1.834-0.353,2.499-0.993
				c0.665-0.64,1.042-1.511,1.048-2.42c0.03-4.611,0.083-12.911,0.121-18.82c0.012-1.81-0.716-3.55-2.024-4.836
				c-1.308-1.286-3.088-2.013-4.949-2.022C285.622,288.461,284.44,288.455,283.299,288.45z"/>
			<g>
				<defs>
					<path id="SVGID_00000124857041696108925790000000122247460900864668_" d="M283.299,288.45c-1.861-0.008-3.65,0.703-4.975,1.977
						c-1.324,1.274-2.074,3.007-2.086,4.817c-0.038,5.908-0.091,14.209-0.121,18.82c-0.006,0.91,0.36,1.784,1.017,2.43
						c0.657,0.646,1.551,1.012,2.487,1.016c3.04,0.014,7.407,0.034,10.446,0.047c0.935,0.004,1.834-0.353,2.499-0.993
						c0.665-0.64,1.042-1.511,1.048-2.42c0.03-4.611,0.083-12.911,0.121-18.82c0.012-1.81-0.716-3.55-2.024-4.836
						c-1.308-1.286-3.088-2.013-4.949-2.022C285.622,288.461,284.44,288.455,283.299,288.45z"/>
				</defs>
				<clipPath id="SVGID_00000106123800052998313900000015788466696143087745_">
					<use xlink:href="#SVGID_00000124857041696108925790000000122247460900864668_"  style="overflow:visible;"/>
				</clipPath>
				
					<rect x="274.299" y="283.998" style="clip-path:url(#SVGID_00000106123800052998313900000015788466696143087745_);fill-rule:evenodd;clip-rule:evenodd;fill:#342B4E;" width="20.793" height="16.798"/>
			</g>
			<path style="fill-rule:evenodd;clip-rule:evenodd;fill:#3D335B;" d="M284.478,309.395c0-0.468-0.221-0.917-0.616-1.248
				c-0.394-0.331-0.929-0.517-1.486-0.517c-0.022,0-0.044,0-0.066,0c-0.557,0-1.092,0.186-1.486,0.517
				c-0.394,0.331-0.616,0.78-0.616,1.248c0,3.79,0,12.364,0,12.364h4.27V309.395z"/>
			<rect x="277.758" y="320.51" style="fill-rule:evenodd;clip-rule:evenodd;fill:#3D335B;" width="14.206" height="2.877"/>
			<path style="fill-rule:evenodd;clip-rule:evenodd;fill:#00C3D4;" d="M290.416,305.979c1.001,0,1.813,1.12,1.813,2.499
				c0,1.379-0.813,2.499-1.813,2.499c-1.001,0-1.813-1.12-1.813-2.499C288.603,307.099,289.415,305.979,290.416,305.979z"/>
			<path style="fill-rule:evenodd;clip-rule:evenodd;fill:#FBF6E9;" d="M282.208,308.91c0.478,0,0.866,0.349,0.866,0.78
				c0,0.43-0.388,0.78-0.866,0.78c-0.478,0-0.866-0.35-0.866-0.78C281.342,309.259,281.73,308.91,282.208,308.91z"/>
		</g>
		<g>
			<rect x="114.374" y="347.392" style="fill-rule:evenodd;clip-rule:evenodd;fill:#7B5CD3;" width="58.491" height="59.137"/>
			<rect x="169.894" y="347.392" style="fill-rule:evenodd;clip-rule:evenodd;fill:#AC99E3;" width="99.489" height="59.137"/>
			<rect x="102.747" y="347.392" style="fill-rule:evenodd;clip-rule:evenodd;fill:#9D86DC;" width="378.745" height="9.342"/>
			<rect x="102.747" y="347.392" style="fill-rule:evenodd;clip-rule:evenodd;fill:#7B5CD3;" width="115.521" height="9.342"/>
			<path style="fill-rule:evenodd;clip-rule:evenodd;fill:#342B4E;" d="M210.535,384.343h23.054c1.813,0,3.283-1.47,3.283-3.283l0,0
				c0-1.814-1.47-3.284-3.283-3.284h-23.054c-1.814,0-3.284,1.47-3.284,3.284l0,0C207.252,382.873,208.722,384.343,210.535,384.343z
				"/>
		</g>
		<g>
			<path style="fill-rule:evenodd;clip-rule:evenodd;fill:#342B4E;" d="M324.206,255.418c1.112-0.635,2.357-1.043,3.677-1.156
				c4.704-0.403,8.723,3.064,9.381,7.893l2.052,11.477c0.853,2.818-0.439,5.968-2.951,7.193c-2.318,1.131-5.078,0.142-6.889-3.648
				c-1.064-2.226-3.318-3.4-5.617-3.203l-9.822,0.843c-2.3,0.197-4.356,1.792-5.341,4.142c-1.401,3.343-3.83,4.59-6.218,3.863
				c-2.587-0.788-4.107-3.696-3.471-6.641l0.825-10.815c0.292-4.91,4.025-9.043,8.729-9.446c1.321-0.113,2.587,0.079,3.74,0.52
				L324.206,255.418z"/>
			<path style="fill-rule:evenodd;clip-rule:evenodd;fill:#FFFFFF;" d="M309.605,263.76c-0.103,0.009-0.206-0.029-0.281-0.103
				c-0.077-0.075-0.122-0.182-0.127-0.297l-0.081-2.163c-0.015-0.404-0.323-0.707-0.687-0.675c-0.401,0.034-0.91,0.078-1.311,0.112
				c-0.365,0.031-0.648,0.385-0.632,0.789c0.025,0.662,0.061,1.615,0.081,2.163c0.004,0.116-0.033,0.23-0.103,0.317
				c-0.071,0.087-0.169,0.141-0.271,0.151l-1.95,0.167c-0.365,0.032-0.648,0.384-0.633,0.789c0.017,0.445,0.038,1.01,0.055,1.454
				c0.015,0.404,0.324,0.707,0.688,0.676c0.596-0.051,1.455-0.125,1.949-0.167c0.104-0.009,0.205,0.028,0.282,0.103
				c0.076,0.075,0.121,0.182,0.125,0.297l0.082,2.163c0.015,0.404,0.323,0.707,0.687,0.676c0.4-0.034,0.91-0.078,1.31-0.113
				c0.365-0.03,0.648-0.384,0.633-0.788c-0.026-0.662-0.061-1.614-0.082-2.163c-0.004-0.115,0.032-0.229,0.103-0.316
				c0.07-0.088,0.168-0.142,0.272-0.151l1.95-0.168c0.364-0.031,0.648-0.385,0.632-0.789c-0.017-0.444-0.038-1.01-0.055-1.454
				c-0.015-0.405-0.323-0.707-0.688-0.676C310.958,263.644,310.099,263.717,309.605,263.76"/>
			<path style="fill-rule:evenodd;clip-rule:evenodd;fill:#FFFFFF;" d="M329.726,257.274c0.818-0.07,1.508,0.568,1.54,1.424
				c0.031,0.855-0.605,1.606-1.424,1.677c-0.817,0.07-1.507-0.568-1.539-1.423C328.271,258.096,328.909,257.345,329.726,257.274"/>
			<path style="fill-rule:evenodd;clip-rule:evenodd;fill:#FFFFFF;" d="M330.004,264.667c0.818-0.071,1.508,0.567,1.54,1.423
				c0.031,0.856-0.605,1.607-1.424,1.677c-0.817,0.07-1.507-0.567-1.539-1.423C328.549,265.489,329.187,264.737,330.004,264.667"/>
			<path style="fill-rule:evenodd;clip-rule:evenodd;fill:#FFFFFF;" d="M326.61,261.25c0.818-0.07,1.508,0.567,1.54,1.423
				c0.032,0.856-0.605,1.607-1.423,1.677c-0.818,0.07-1.507-0.567-1.54-1.423C325.155,262.072,325.792,261.32,326.61,261.25"/>
			<path style="fill-rule:evenodd;clip-rule:evenodd;fill:#FFFFFF;" d="M333.121,260.691c0.818-0.07,1.508,0.567,1.54,1.423
				c0.031,0.856-0.606,1.607-1.424,1.677c-0.817,0.071-1.507-0.567-1.539-1.423C331.665,261.513,332.302,260.761,333.121,260.691"/>
			<path style="fill-rule:evenodd;clip-rule:evenodd;fill:#FFFFFF;" d="M316.532,263.774c-0.005-0.13-0.057-0.252-0.143-0.337
				c-0.086-0.085-0.201-0.127-0.319-0.117c-0.384,0.033-0.936,0.081-1.319,0.114c-0.117,0.01-0.229,0.071-0.308,0.171
				c-0.079,0.1-0.121,0.228-0.117,0.359c0.004,0.103,0.008,0.213,0.012,0.316c0.005,0.13,0.056,0.251,0.143,0.336
				c0.087,0.086,0.202,0.128,0.319,0.117c0.384-0.033,0.936-0.08,1.319-0.113c0.118-0.01,0.229-0.072,0.308-0.171
				c0.08-0.1,0.122-0.229,0.117-0.359C316.539,263.986,316.535,263.877,316.532,263.774"/>
			<path style="fill-rule:evenodd;clip-rule:evenodd;fill:#FFFFFF;" d="M322.81,263.235c-0.005-0.13-0.056-0.251-0.143-0.337
				c-0.086-0.085-0.201-0.127-0.318-0.117c-0.384,0.033-0.937,0.081-1.32,0.114c-0.117,0.01-0.229,0.072-0.307,0.171
				c-0.08,0.099-0.122,0.228-0.117,0.358c0.004,0.103,0.008,0.213,0.012,0.316c0.005,0.131,0.056,0.252,0.143,0.337
				c0.086,0.085,0.201,0.127,0.318,0.117c0.384-0.033,0.936-0.08,1.32-0.113c0.117-0.011,0.228-0.072,0.307-0.171
				c0.08-0.1,0.122-0.229,0.117-0.359C322.818,263.448,322.814,263.338,322.81,263.235"/>
			<path style="fill-rule:evenodd;clip-rule:evenodd;fill:#FFDABB;" d="M397.668,246.398c4.528-4.857,7.827-11.633,8.916-19.365
				c2.325-16.503-6.291-31.156-19.23-32.7c-12.938-1.545-25.33,10.6-27.656,27.104c-1.776,12.608,1.04,35.998,11.444,30.594
				c-1.143,8.319-2.992,16.724-2.992,16.724s30.78,5.689,29.815,3.297C397.278,270.345,397.49,255.039,397.668,246.398z"/>
			<path style="fill-rule:evenodd;clip-rule:evenodd;fill:#FF9DA2;" d="M407.221,262.419c-6.899-2.039-30.651-1.99-44.687,0.16
				c-5.971,0.914-16.033,0.225-21.788,9.165c-9.17,14.243-9.563,35.289-7.907,44.811c1.656,9.522,9.94,12.07,12.08,19.665
				c1.283,4.554,1.466,24.442-2.285,37.831c-4.386,15.657-10.244,33.915-10.244,33.915s33.139-0.448,51.193-0.034
				c29.078,0.667,34.605-3.691,34.605-3.691c-0.871,0,1.055-60.013,1.915-63.62c3.828-16.052,10.195-18.734,12.886-59.615
				C434.211,262.408,412.731,264.047,407.221,262.419z"/>
			<g>
				<defs>
					<path id="SVGID_00000081649231605533516910000015965498448983891091_" d="M407.221,262.419
						c-6.899-2.039-30.651-1.99-44.687,0.16c-5.971,0.914-16.033,0.225-21.788,9.165c-9.17,14.243-9.563,35.289-7.907,44.811
						c1.656,9.522,9.94,12.07,12.08,19.665c1.283,4.554,1.466,24.442-2.285,37.831c-4.386,15.657-10.244,33.915-10.244,33.915
						s33.139-0.448,51.193-0.034c29.078,0.667,34.605-3.691,34.605-3.691c-0.871,0,1.055-60.013,1.915-63.62
						c3.828-16.052,10.195-18.734,12.886-59.615C434.211,262.408,412.731,264.047,407.221,262.419z"/>
				</defs>
				<clipPath id="SVGID_00000031181639277218811770000011040536989099874731_">
					<use xlink:href="#SVGID_00000081649231605533516910000015965498448983891091_"  style="overflow:visible;"/>
				</clipPath>
				
					<path style="clip-path:url(#SVGID_00000031181639277218811770000011040536989099874731_);fill-rule:evenodd;clip-rule:evenodd;fill:#FF8389;" d="
					M328.923,323.255c2.532-1.755,27.39-23.981,26.513-21.934c-0.877,2.047-12.839,33.31-12.839,33.31l-3.903-2.048
					C338.695,332.584,326.391,325.01,328.923,323.255z"/>
				
					<path style="clip-path:url(#SVGID_00000031181639277218811770000011040536989099874731_);fill-rule:evenodd;clip-rule:evenodd;fill:#FF8389;" d="
					M384.506,257.269l-19.009,5.531c0,0-4.935,14.32-1.462,28.577c3.473,14.257,1.462,20.654,0,23.213
					c-1.462,2.559-5.461,8.969-10.14,26.954c-4.679,17.986-5.995,30.268-5.995,30.268l-8.919,6.141l-9.292,30.011L442.03,408
					c0,0,4.73-114.203-4.124-132.195C429.053,257.813,384.506,257.269,384.506,257.269z"/>
			</g>
			<path style="fill-rule:evenodd;clip-rule:evenodd;fill:#FF9DE2;" d="M384.357,190.762c-24.126,1.831-28.601,15.785-23.312,30.228
				c5.289,14.443,14.239,9.561,13.019,22.783c-1.22,13.222-3.647,7.193-6.779,21.513c-2.499,11.424-0.747,23.035,9.831,31.172
				c10.578,8.137,6.509,19.732,6.509,19.732s18.511-3.458,28.275-18.511c9.764-15.053,15.134-15.256,13.914-32.343
				c-1.22-17.087-9.167-23.779-9.777-31.916c-0.61-8.137,0.013-19.264-6.496-29.435
				C403.031,193.813,394.348,190.004,384.357,190.762z"/>
			<g>
				<defs>
					<path id="SVGID_00000118357045777194493680000012888689079156838028_" d="M384.357,190.762
						c-24.126,1.831-28.601,15.785-23.312,30.228c5.289,14.443,14.239,9.561,13.019,22.783c-1.22,13.222-3.647,7.193-6.779,21.513
						c-2.499,11.424-0.747,23.035,9.831,31.172c10.578,8.137,6.509,19.732,6.509,19.732s18.511-3.458,28.275-18.511
						c9.764-15.053,15.134-15.256,13.914-32.343c-1.22-17.087-9.167-23.779-9.777-31.916c-0.61-8.137,0.013-19.264-6.496-29.435
						C403.031,193.813,394.348,190.004,384.357,190.762z"/>
				</defs>
				<clipPath id="SVGID_00000089544749641358425430000006299201313389389710_">
					<use xlink:href="#SVGID_00000118357045777194493680000012888689079156838028_"  style="overflow:visible;"/>
				</clipPath>
				
					<path style="clip-path:url(#SVGID_00000089544749641358425430000006299201313389389710_);fill-rule:evenodd;clip-rule:evenodd;fill:#FFBDED;" d="
					M349.713,203.659c5.75,9.464,15.603-5.11,25.764,4.353c10.161,9.464,4.926,25.754,0.308,42.498
					c-4.619,16.744-8.268,29.993,1.1,34.914c9.369,4.921,22.763,12.303,17.22,21.009c-5.543,8.707-21.172,18.092-24.818,10.218
					c-3.646-7.874,1.872-13.446-2.562-22.773c-4.434-9.327-14.189-17.928-11.528-28.83c2.66-10.902,11.245-33.655,5.727-43.346
					c-5.518-9.691-11.233-2.786-12.218-10.296C347.721,203.896,343.963,194.195,349.713,203.659z"/>
			</g>
			<path style="fill-rule:evenodd;clip-rule:evenodd;fill:#7B5EC6;" d="M356.529,377.363c5.204,0.064,9.345,14.263-1.119,14.408
				c-3.637,0.05-43.094-3-52.796-3.5c-7.376-0.38-6.503-11.478,0.656-11.595C306.378,376.625,327.346,377.003,356.529,377.363z"/>
			<path style="fill-rule:evenodd;clip-rule:evenodd;fill:#7A5FC3;" d="M448.504,274.714c-9.87,0-17.882,2.559-17.882,5.71
				c0,3.152,8.013,5.711,17.882,5.711s17.882-2.559,17.882-5.711C466.386,277.273,458.373,274.714,448.504,274.714z
				 M351.585,407.154c-2.698-5.369-1.892-52.901,9.662-78.399c11.554-25.498,30.983-16.335,39.396-37.45
				c8.413-21.116,4.939-25.928,19.027-33.88c14.087-7.952,53.184-6.956,60.355,15.108c7.171,22.063-9.21,135.157-9.21,135.157
				S352.302,408.581,351.585,407.154z"/>
			<g>
				<defs>
					<path id="SVGID_00000005225747391859948460000011091890227307324038_" d="M448.504,274.714c-9.87,0-17.882,2.559-17.882,5.71
						c0,3.152,8.013,5.711,17.882,5.711s17.882-2.559,17.882-5.711C466.386,277.273,458.373,274.714,448.504,274.714z
						 M351.585,407.154c-2.698-5.369-1.892-52.901,9.662-78.399c11.554-25.498,30.983-16.335,39.396-37.45
						c8.413-21.116,4.939-25.928,19.027-33.88c14.087-7.952,53.184-6.956,60.355,15.108c7.171,22.063-9.21,135.157-9.21,135.157
						S352.302,408.581,351.585,407.154z"/>
				</defs>
				<clipPath id="SVGID_00000059284690654011816060000009823296219666190482_">
					<use xlink:href="#SVGID_00000005225747391859948460000011091890227307324038_"  style="overflow:visible;"/>
				</clipPath>
				<g style="clip-path:url(#SVGID_00000059284690654011816060000009823296219666190482_);">
					<defs>
						<path id="SVGID_00000046318159327594594210000018387453587996517557_" d="M361.283,409.972c0,0-2.504-53.567,7.224-70.544
							c10.837-18.911,31.394-20.823,37.158-31.235c5.764-10.412,6.533-33.444,17.548-43.371c11.015-9.927,28.35-8.884,43.173-4.23
							c14.823,4.654,15.388,11.029,15.388,11.029"/>
					</defs>
					<clipPath id="SVGID_00000037671260338183983000000002177338318375435139_">
						<use xlink:href="#SVGID_00000046318159327594594210000018387453587996517557_"  style="overflow:visible;"/>
					</clipPath>
					
						<ellipse style="clip-path:url(#SVGID_00000037671260338183983000000002177338318375435139_);fill-rule:evenodd;clip-rule:evenodd;fill:#7355C3;" cx="450.264" cy="281.196" rx="19.169" ry="7.317"/>
				</g>
				
					<path style="clip-path:url(#SVGID_00000059284690654011816060000009823296219666190482_);fill:none;stroke:#CECECE;stroke-width:0.5887;stroke-linecap:round;stroke-linejoin:round;stroke-miterlimit:10;" d="
					M361.283,409.972c0,0-2.504-53.567,7.224-70.544c10.837-18.911,31.394-20.823,37.158-31.235
					c5.764-10.412,6.533-33.444,17.548-43.371c11.015-9.927,28.35-8.884,43.173-4.23c14.823,4.654,15.388,11.029,15.388,11.029"/>
				
					<path style="clip-path:url(#SVGID_00000059284690654011816060000009823296219666190482_);fill-rule:evenodd;clip-rule:evenodd;fill:#7355C3;" d="
					M489.098,227.786c0,0-6.18,64.324-41.745,120.13c-47.431,74.425-89.027,64.18-89.027,64.18l126.728,2.514L489.098,227.786z"/>
			</g>
			<path style="fill-rule:evenodd;clip-rule:evenodd;fill:#FFDABA;" d="M357.189,293.065c0,0-32.259,63.816-42.609,65.058
				c-10.35,1.242-13.975-9.457-15.111-14.945c-1.739-8.404-5.175-60.443-5.175-60.443l8.479,1.068l8.743,42.608
				c0,0,19.111-55.139,31.505-59.864c9.232-3.519,16.37-3.563,17.5-2.092C364.97,270.248,357.189,293.065,357.189,293.065z"/>
			<path style="fill-rule:evenodd;clip-rule:evenodd;fill:#FFDABA;" d="M298.861,287.972c-3.17,0.124-4.386-2.547-4.386-2.547
				s-3.091-14.212-0.181-18.901c1.141-1.837,3.377-3.989,5.129-5.855c2.719-2.896,4.876-4.965,6.272-5.763
				c2.618-1.497,3.28-0.379,1.446,2.721c-1.181,1.996-1.654,2.247-3.665,4.67c-0.072,0.087-3.977,6.023-3.916,6.616
				c0.2,1.948,1.291,6.995,3.201,6.039c1.91-0.955,9.687-11.774,10.766-7.987c0.566,1.987-5.702,9.099-5.702,9.099
				s-0.553,5.099-2.722,8.244C303.044,287.29,300.717,287.899,298.861,287.972z"/>
			<path style="fill-rule:evenodd;clip-rule:evenodd;fill:#FFDABA;" d="M338.447,284.633c3.17,0.124,4.386-2.548,4.386-2.548
				s3.091-14.212,0.181-18.901c-1.141-1.837-3.377-3.989-5.129-5.856c-2.719-2.896-4.876-4.965-6.272-5.763
				c-2.618-1.497-3.28-0.379-1.446,2.721c1.181,1.996,1.654,2.247,3.665,4.67c0.072,0.087,3.977,6.023,3.915,6.616
				c-0.2,1.948-1.291,6.994-3.201,6.039c-1.91-0.955-9.687-11.774-10.766-7.987c-0.566,1.987,5.702,9.099,5.702,9.099
				s0.552,5.099,2.722,8.244C334.264,283.952,336.592,284.561,338.447,284.633z"/>
			<path style="fill-rule:evenodd;clip-rule:evenodd;fill:#FF9DA2;" d="M323.094,296.444c0.216,9.468,17.964,20.383,24.001,18.404
				c0,0,15.538-20.646,15.999-31.919c0.456-11.156,2.773-20.096,2.403-20.129c-4.058-0.366-17.683,0.8-23.769,4.404
				C332.786,272.5,323.094,296.444,323.094,296.444z"/>
			<path style="fill-rule:evenodd;clip-rule:evenodd;fill:#4E3493;" d="M365.398,219.769c0.265-18.032,7.599-27.331,16.22-28.738
				c4.32-0.705,11.345-0.428,10.905,0.229c-13.267,1.785-17.458,12.843-17.979,28.537L365.398,219.769z"/>
			<path style="fill-rule:evenodd;clip-rule:evenodd;fill:#FFB87B;" d="M371.223,224.193c-3.171-0.015-5.78,3.15-5.824,7.062
				c-0.044,3.912,2.494,7.1,5.665,7.115c3.17,0.014,5.78-3.15,5.824-7.062C376.932,227.396,374.393,224.208,371.223,224.193z"/>
			<path style="fill-rule:evenodd;clip-rule:evenodd;fill:#4E3493;" d="M361.483,222.783c0.034-2.625,2.358-4.754,5.19-4.755
				c2.223-0.001,4.82-0.002,7.044-0.004c2.832-0.002,5.101,2.125,5.066,4.749c-0.044,3.364-0.102,7.858-0.146,11.222
				c-0.034,2.625-2.358,4.754-5.19,4.755c-2.223,0.001-4.821,0.003-7.044,0.004c-2.832,0.001-5.101-2.125-5.066-4.749
				C361.38,230.641,361.439,226.148,361.483,222.783z"/>
			<path style="fill-rule:evenodd;clip-rule:evenodd;fill:#7A5FC3;" d="M361.482,222.839c0.03-2.316,2.017-4.193,4.438-4.195
				c1.9-0.001,4.12-0.003,6.02-0.003c2.421-0.001,4.358,1.875,4.328,4.19c-0.039,2.968-0.091,6.932-0.129,9.9
				c-0.03,2.315-2.017,4.193-4.438,4.195c-1.9,0.001-4.12,0.002-6.02,0.003c-2.42,0.001-4.358-1.875-4.328-4.19
				C361.391,229.772,361.443,225.807,361.482,222.839z"/>
			<g>
				<defs>
					<path id="SVGID_00000109745189814292387240000012431563614257837231_" d="M361.482,222.839c0.03-2.316,2.017-4.193,4.438-4.195
						c1.9-0.001,4.12-0.003,6.02-0.003c2.421-0.001,4.358,1.875,4.328,4.19c-0.039,2.968-0.091,6.932-0.129,9.9
						c-0.03,2.315-2.017,4.193-4.438,4.195c-1.9,0.001-4.12,0.002-6.02,0.003c-2.42,0.001-4.358-1.875-4.328-4.19
						C361.391,229.772,361.443,225.807,361.482,222.839z"/>
				</defs>
				<clipPath id="SVGID_00000084518868112733077000000015394506002073208505_">
					<use xlink:href="#SVGID_00000109745189814292387240000012431563614257837231_"  style="overflow:visible;"/>
				</clipPath>
				
					<path style="clip-path:url(#SVGID_00000084518868112733077000000015394506002073208505_);fill-rule:evenodd;clip-rule:evenodd;fill:#957DD1;" d="
					M368.83,212.969c-3.455,0.275-6.174,4.957-6.067,10.449c0.107,5.491,2.998,9.726,6.453,9.45
					c3.455-0.276,6.174-4.958,6.067-10.449C375.176,216.928,372.285,212.694,368.83,212.969z"/>
			</g>
			<path style="fill-rule:evenodd;clip-rule:evenodd;fill:#FF9DE5;" d="M369.663,195.482c0,0-10.406,0.592-13.581,9.157
				c-3.175,8.565-0.764,9.802,0.419,11.829c1.183,2.027,2.303,3.204,2.303,3.204s-0.996-6.407-0.498-5.034
				c0.498,1.373,1.619,2.746,1.619,2.746c-0.355-5.083,0.447-9.717,5.715-12.613L369.663,195.482z"/>
		</g>
		<g>
			
				<rect x="258.237" y="137.223" transform="matrix(0.6076 -0.7942 0.7942 0.6076 -59.0781 285.763)" style="fill-rule:evenodd;clip-rule:evenodd;fill:#8A76C4;" width="2.857" height="130.895"/>
			
				<rect x="254.993" y="140.601" transform="matrix(0.6077 -0.7942 0.7942 0.6077 -63.038 284.4946)" style="fill-rule:evenodd;clip-rule:evenodd;fill:#8A76C4;" width="2.857" height="130.895"/>
			<path style="fill-rule:evenodd;clip-rule:evenodd;fill:#AC99E3;" d="M305.717,234.149c-3.56,0-6.45,2.788-6.45,6.221
				c0,3.434,2.89,6.222,6.45,6.222s6.45-2.788,6.45-6.222C312.167,236.936,309.277,234.149,305.717,234.149z"/>
			<path style="fill-rule:evenodd;clip-rule:evenodd;fill:#AC99E3;" d="M317.989,235.28l-0.049,8.847c0,0-13.801-0.076-20.482-0.113
				c-1.955-0.011-3.531-1.604-3.52-3.56c0.003-0.582,0.007-1.185,0.01-1.766c0.011-1.955,1.604-3.531,3.56-3.52
				C304.188,235.204,317.989,235.28,317.989,235.28z"/>
			<path style="fill-rule:evenodd;clip-rule:evenodd;fill:#53457C;" d="M343.845,241.382c-0.001,1.851-0.745,3.626-2.066,4.936
				c-1.321,1.31-3.112,2.046-4.979,2.047c-6.094,0.004-14.655,0.01-19.41,0.013c-0.938,0.001-1.838-0.368-2.5-1.025
				c-0.663-0.657-1.035-1.548-1.034-2.478c0.002-3.023,0.006-7.365,0.009-10.388c0.001-0.93,0.374-1.822,1.038-2.48
				c0.664-0.658,1.564-1.028,2.502-1.029c4.756-0.003,13.316-0.009,19.41-0.013c1.867-0.001,3.657,0.733,4.976,2.04
				c1.319,1.308,2.059,3.082,2.058,4.933C343.847,239.072,343.846,240.247,343.845,241.382z"/>
			<g>
				<defs>
					<path id="SVGID_00000065074145054530839630000001623035622017493438_" d="M343.845,241.382
						c-0.001,1.851-0.745,3.626-2.066,4.936c-1.321,1.31-3.112,2.046-4.979,2.047c-6.094,0.004-14.655,0.01-19.41,0.013
						c-0.938,0.001-1.838-0.368-2.5-1.025c-0.663-0.657-1.035-1.548-1.034-2.478c0.002-3.023,0.006-7.365,0.009-10.388
						c0.001-0.93,0.374-1.822,1.038-2.48c0.664-0.658,1.564-1.028,2.502-1.029c4.756-0.003,13.316-0.009,19.41-0.013
						c1.867-0.001,3.657,0.733,4.976,2.04c1.319,1.308,2.059,3.082,2.058,4.933C343.847,239.072,343.846,240.247,343.845,241.382z"
						/>
				</defs>
				<clipPath id="SVGID_00000138556552457556971710000009375024515392751498_">
					<use xlink:href="#SVGID_00000065074145054530839630000001623035622017493438_"  style="overflow:visible;"/>
				</clipPath>
				
					<rect x="329.444" y="231.308" transform="matrix(0.0055 -1 1 0.0055 97.9388 578.4226)" style="clip-path:url(#SVGID_00000138556552457556971710000009375024515392751498_);fill-rule:evenodd;clip-rule:evenodd;fill:#342B4E;" width="20.677" height="17.325"/>
			</g>
			<path style="fill-rule:evenodd;clip-rule:evenodd;fill:#00C3D4;" d="M325.898,238.587c-0.995,0-1.802,0.808-1.802,1.802
				c0,0.995,0.808,1.802,1.802,1.802c0.995,0,1.802-0.808,1.802-1.802C327.701,239.394,326.893,238.587,325.898,238.587z"/>
			<g>
				<path style="fill:#2B2340;" d="M307.963,238.234l1.835-0.556c-2.239-7.381-7.751-12.795-14.044-13.793
					c-5.245-0.833-10.235,1.272-15.061,3.307l-0.603,0.254c-4.866,2.046-9.999,3.731-14.57,2.218
					c-4.763-1.576-8.484-6.715-9.954-13.746c-0.528-2.528-0.811-5.171-1.083-7.728c-0.384-3.602-0.782-7.327-1.872-10.886
					c-3.669-11.972-15.422-20.722-27.943-20.805c-1.256-0.003-2.486,0.063-3.691,0.13c-2.366,0.134-4.6,0.26-6.799-0.153
					c-3.058-0.574-6.312-2.757-6.613-5.82l-1.908,0.188c0.413,4.188,4.523,6.831,8.167,7.516c2.428,0.456,4.885,0.316,7.26,0.182
					c1.177-0.066,2.411-0.135,3.57-0.127c11.517,0.076,22.748,8.438,26.124,19.449c1.037,3.383,1.425,7.015,1.799,10.528
					c0.277,2.603,0.564,5.295,1.113,7.917c1.61,7.708,5.807,13.38,11.228,15.174c5.169,1.712,10.704-0.081,15.916-2.271l0.605-0.255
					c4.579-1.93,9.313-3.926,14.016-3.181C301.026,226.661,305.936,231.551,307.963,238.234z"/>
			</g>
			<path style="fill-rule:evenodd;clip-rule:evenodd;fill:#3F345C;" d="M309.695,237.385c0.739,0.008,1.334,1.151,1.33,2.554
				c0,0,0,0.001,0,0.002c-0.004,1.402-0.606,2.533-1.345,2.525c-2.835-0.03-9.422-0.099-12.258-0.129
				c-0.738-0.008-1.334-1.151-1.33-2.553c0-0.001,0-0.001,0-0.002c0.004-1.403,0.606-2.533,1.345-2.525
				C300.272,237.287,306.859,237.356,309.695,237.385z"/>
		</g>
		<g>
			<path style="fill-rule:evenodd;clip-rule:evenodd;fill:#7355C3;" d="M257.708,322.478h-15.142c-1.843,0-3.338,1.494-3.338,3.338
				c0,3.631,0,9.402,0,13.034c0,1.844,1.495,3.338,3.338,3.338h5.324c9.819,0,9.819-2.85,9.819-2.85h-13.871
				c-1.07,0-1.938-0.868-1.938-1.938c0-2.673,0-7.463,0-10.135c0-1.07,0.868-1.938,1.938-1.938c4.221,0,13.871,0,13.871,0V322.478z"
				/>
			<path style="fill-rule:evenodd;clip-rule:evenodd;fill:#7B5CD3;" d="M275.026,317.273h-25.177v26.837
				c0,0.871,0.346,1.706,0.962,2.322c0.616,0.616,1.451,0.962,2.322,0.962h18.61c0.871,0,1.706-0.346,2.322-0.962
				c0.616-0.616,0.962-1.451,0.962-2.322V317.273z"/>
			<path style="fill-rule:evenodd;clip-rule:evenodd;fill:#8765E8;" d="M272.61,324.49c0-0.972-0.386-1.905-1.073-2.592
				c-0.687-0.687-1.62-1.074-2.592-1.074c0,0-0.001,0-0.001,0c-0.972,0-1.905,0.386-2.592,1.074
				c-0.687,0.687-1.074,1.62-1.074,2.592c0,4.484,0,12.032,0,16.517c0,0.972,0.386,1.904,1.074,2.592
				c0.687,0.687,1.62,1.073,2.592,1.073c0,0,0.001,0,0.001,0c0.972,0,1.904-0.386,2.592-1.073c0.687-0.687,1.073-1.62,1.073-2.592
				C272.61,336.522,272.61,328.975,272.61,324.49z"/>
		</g>
		<g>
			<path style="fill-rule:evenodd;clip-rule:evenodd;fill:#FF9DE2;" d="M307.225,155.087h-67.441c-5.346,0-9.681-4.334-9.681-9.681
				v-21.407c0-5.346,4.334-9.681,9.681-9.681h67.441c5.346,0,9.681,4.334,9.681,9.681v21.407
				C316.905,150.753,312.571,155.087,307.225,155.087z"/>
			<g>
				<path style="fill:#FFFFFF;" d="M257.553,139.749h-11.794v-18.698h4.329v15.893h7.466V139.749z"/>
				<path style="fill:#FFFFFF;" d="M264.858,139.749h-4.329v-18.698h4.329V139.749z"/>
				<path style="fill:#FFFFFF;" d="M273.607,139.749l-5.13-18.698h4.536l3.602,14.575l3.628-14.575h4.539l-5.222,18.698H273.607z"/>
				<path style="fill:#FFFFFF;" d="M288.401,139.749v-18.712h12.322v2.835h-7.993v5.103h5.84v2.836h-5.84v5.103h7.993v2.835H288.401
					z"/>
			</g>
			<path style="fill:#FFFFFF;" d="M327.232,105.007c4.677,4.854,7.283,10.916,7.371,18.027c0.02,1.594-1.021,2.724-2.496,2.733
				c-1.426,0.009-2.514-1.094-2.537-2.641c-0.066-4.61-1.387-8.809-4.186-12.48c-4.03-5.284-9.4-8.093-16.045-8.441
				c-0.329-0.017-0.66-0.003-0.987-0.033c-1.394-0.127-2.41-1.244-2.367-2.591c0.043-1.351,1.124-2.441,2.52-2.439
				c5.01,0.009,9.655,1.319,13.906,3.985C324.071,102.17,325.586,103.397,327.232,105.007z"/>
			<path style="fill:#FFFFFF;" d="M320.796,111.023c2.893,2.97,4.44,6.567,4.52,10.781c0.03,1.585-1.019,2.734-2.489,2.753
				c-1.399,0.018-2.486-1.109-2.545-2.638c-0.231-5.983-4.485-10.217-10.494-10.442c-1.506-0.056-2.616-1.173-2.584-2.597
				c0.032-1.414,1.195-2.478,2.718-2.448C314.132,106.515,317.739,108.044,320.796,111.023z"/>
			<g>
				<path style="fill:#FFFFFF;" d="M251.368,147.425c0.011,0.514-0.174,0.954-0.554,1.318c-0.249,0.248-0.602,0.422-1.058,0.524
					c-0.244,0.055-0.529,0.082-0.854,0.082c-0.603,0-1.102-0.108-1.498-0.324c-0.33-0.177-0.592-0.417-0.785-0.721
					c-0.192-0.304-0.305-0.652-0.338-1.044l1.464-0.077c0.065,0.43,0.223,0.742,0.473,0.935c0.184,0.146,0.396,0.215,0.635,0.207
					c0.337-0.008,0.605-0.127,0.806-0.359c0.104-0.114,0.154-0.276,0.154-0.489c0-0.306-0.192-0.61-0.577-0.913
					c-0.304-0.208-0.76-0.52-1.367-0.937c-0.51-0.357-0.871-0.677-1.083-0.96c-0.228-0.318-0.342-0.664-0.342-1.037
					c0-0.671,0.312-1.18,0.936-1.525c0.385-0.208,0.862-0.313,1.432-0.313c0.549,0,1.018,0.088,1.408,0.265
					c0.304,0.137,0.55,0.33,0.736,0.577c0.188,0.247,0.3,0.532,0.338,0.854l-1.473,0.194c-0.044-0.302-0.163-0.538-0.358-0.706
					c-0.141-0.122-0.345-0.183-0.61-0.183c-0.282,0-0.496,0.09-0.643,0.271c-0.12,0.145-0.18,0.326-0.18,0.542
					c0,0.337,0.201,0.681,0.602,1.03c0.152,0.133,0.38,0.29,0.684,0.471c0.358,0.216,0.594,0.367,0.708,0.453
					c0.38,0.275,0.673,0.545,0.879,0.813c0.098,0.126,0.177,0.241,0.236,0.347C251.287,146.981,251.363,147.217,251.368,147.425z"/>
				<path style="fill:#FFFFFF;" d="M254.063,143.005h-1.636v-1.118h4.802v1.118h-1.628v6.256h-1.538V143.005z"/>
				<path style="fill:#FFFFFF;" d="M260.89,141.887c0.858,0,1.486,0.171,1.888,0.512c0.354,0.298,0.529,0.714,0.529,1.248v1.071
					c0,0.522-0.273,0.963-0.822,1.324l1.14,3.219h-1.663l-0.933-2.778c-0.044,0-0.09,0-0.139,0h-0.887v2.778h-1.538v-7.374H260.89z
					 M261.81,143.664c0-0.428-0.293-0.642-0.879-0.642h-0.928v2.36h0.928c0.244,0,0.451-0.063,0.622-0.188
					c0.171-0.126,0.257-0.276,0.257-0.453V143.664z"/>
				<path style="fill:#FFFFFF;" d="M264.943,149.261v-7.38h4.378v1.118h-2.84v2.013h2.075v1.119h-2.075v2.013h2.84v1.118H264.943z"
					/>
				<path style="fill:#FFFFFF;" d="M272.354,147.566l-0.373,1.695h-1.602l1.733-7.374h2.115l1.709,7.374h-1.617l-0.359-1.695
					H272.354z M273.163,143.576l-0.57,2.908h1.14L273.163,143.576z"/>
				<path style="fill:#FFFFFF;" d="M278.77,149.261h-1.538v-7.38h2.207l1.434,5.302l1.376-5.302h2.12v7.38h-1.538v-4.638
					l-1.334,4.638h-1.237l-1.489-4.626V149.261z"/>
				<path style="fill:#FFFFFF;" d="M287.282,149.261h-1.538v-7.374h1.538V149.261z"/>
				<path style="fill:#FFFFFF;" d="M290.384,141.881l2.041,4.96v-4.96h1.538v7.38h-1.652l-2.115-4.726v4.726h-1.538v-7.38H290.384z"
					/>
				<path style="fill:#FFFFFF;" d="M297.756,149.355c-0.679,0-1.255-0.173-1.729-0.518s-0.712-0.759-0.712-1.242v-4.026
					c0-0.49,0.238-0.907,0.716-1.25c0.477-0.343,1.053-0.515,1.726-0.515c0.678,0,1.253,0.173,1.725,0.518
					c0.473,0.345,0.709,0.761,0.709,1.247v0.842h-1.596v-0.865c0-0.177-0.087-0.328-0.261-0.453
					c-0.173-0.126-0.382-0.189-0.626-0.189c-0.244,0-0.452,0.063-0.623,0.189c-0.171,0.125-0.256,0.276-0.256,0.453v4.038
					c0,0.176,0.085,0.327,0.256,0.45c0.171,0.124,0.379,0.186,0.623,0.186c0.244,0,0.453-0.062,0.626-0.185
					c0.174-0.123,0.261-0.273,0.261-0.449v-1.449h-0.854v-1.119h2.45v2.578c0,0.49-0.239,0.906-0.717,1.248
					C298.995,149.185,298.423,149.355,297.756,149.355z"/>
			</g>
		</g>
		<g>
			<path style="fill-rule:evenodd;clip-rule:evenodd;fill:#FF9DE2;" d="M173.426,109.415c1.843-1.334,3.994-2.33,6.372-2.866
				c8.473-1.91,16.844,2.687,19.483,10.398l7.161,18.203c2.396,4.376,0.972,9.865-3.251,12.535c0,0,0,0,0,0
				c-3.898,2.464-9.235,1.583-13.67-4.127c-2.604-3.353-7.071-4.671-11.213-3.738l-17.689,3.988
				c-4.142,0.934-7.424,4.087-8.524,8.188c-1.564,5.834-5.631,8.517-10.209,7.964c0,0,0,0,0,0c-4.961-0.599-8.602-4.946-8.316-9.927
				l-1.71-17.886c-0.926-8.098,4.663-15.842,13.135-17.753c2.378-0.536,4.749-0.56,6.986-0.146L173.426,109.415z"/>
			<path style="fill-rule:evenodd;clip-rule:evenodd;fill:#FFFFFF;" d="M149.236,126.925c-0.187,0.042-0.383,0.008-0.545-0.094
				c-0.162-0.102-0.277-0.265-0.319-0.452l-0.792-3.511c-0.148-0.656-0.8-1.069-1.457-0.921c-0.722,0.163-1.639,0.37-2.361,0.532
				c-0.656,0.148-1.069,0.8-0.921,1.457c0.242,1.075,0.591,2.621,0.792,3.512c0.042,0.187,0.008,0.383-0.094,0.545
				c-0.102,0.162-0.265,0.276-0.452,0.319l-3.511,0.792c-0.656,0.148-1.069,0.8-0.921,1.456c0.163,0.722,0.37,1.639,0.532,2.361
				c0.148,0.656,0.8,1.069,1.457,0.921c1.075-0.242,2.621-0.591,3.511-0.792c0.187-0.042,0.383-0.008,0.545,0.094
				c0.162,0.102,0.277,0.265,0.319,0.452l0.792,3.511c0.148,0.656,0.8,1.069,1.457,0.921c0.721-0.163,1.639-0.37,2.361-0.532
				c0.656-0.148,1.069-0.8,0.92-1.457c-0.242-1.075-0.591-2.621-0.792-3.511c-0.042-0.187-0.008-0.383,0.094-0.545
				c0.102-0.162,0.265-0.276,0.452-0.318l3.511-0.792c0.657-0.148,1.069-0.8,0.921-1.457c-0.163-0.722-0.37-1.639-0.532-2.361
				c-0.148-0.657-0.8-1.068-1.457-0.921C151.673,126.375,150.127,126.724,149.236,126.925z"/>
			<path style="fill-rule:evenodd;clip-rule:evenodd;fill:#FFFFFF;" d="M184.061,110.978c1.473-0.332,2.922,0.526,3.236,1.915
				c0.313,1.389-0.628,2.786-2.101,3.118c-1.473,0.332-2.923-0.526-3.236-1.915C181.647,112.707,182.589,111.31,184.061,110.978z"/>
			<path style="fill-rule:evenodd;clip-rule:evenodd;fill:#FFFFFF;" d="M186.768,122.981c1.473-0.332,2.923,0.526,3.236,1.915
				c0.313,1.389-0.628,2.786-2.101,3.118c-1.473,0.332-2.923-0.526-3.236-1.915C184.354,124.71,185.295,123.313,186.768,122.981z"/>
			<path style="fill-rule:evenodd;clip-rule:evenodd;fill:#FFFFFF;" d="M179.552,118.301c1.473-0.332,2.923,0.526,3.236,1.915
				c0.313,1.389-0.628,2.786-2.101,3.119c-1.473,0.332-2.923-0.526-3.236-1.915C177.138,120.031,178.079,118.633,179.552,118.301z"
				/>
			<path style="fill-rule:evenodd;clip-rule:evenodd;fill:#FFFFFF;" d="M191.277,115.657c1.473-0.332,2.923,0.526,3.236,1.915
				c0.313,1.389-0.628,2.786-2.101,3.119c-1.473,0.332-2.922-0.526-3.236-1.915C188.863,117.387,189.804,115.989,191.277,115.657z"
				/>
			<path style="fill-rule:evenodd;clip-rule:evenodd;fill:#FFFFFF;" d="M161.892,125.105c-0.048-0.212-0.178-0.396-0.361-0.512
				c-0.184-0.116-0.406-0.154-0.617-0.106c-0.691,0.156-1.685,0.38-2.376,0.536c-0.212,0.048-0.396,0.178-0.512,0.361
				c-0.116,0.183-0.154,0.406-0.107,0.617c0.038,0.168,0.078,0.345,0.116,0.513c0.048,0.212,0.178,0.396,0.361,0.512
				c0.184,0.116,0.406,0.155,0.617,0.107c0.691-0.156,1.685-0.38,2.376-0.536c0.212-0.048,0.396-0.178,0.512-0.361
				c0.116-0.184,0.154-0.406,0.107-0.617C161.97,125.45,161.93,125.273,161.892,125.105z"/>
			<path style="fill-rule:evenodd;clip-rule:evenodd;fill:#FFFFFF;" d="M173.201,122.555c-0.048-0.212-0.178-0.396-0.361-0.512
				c-0.184-0.116-0.406-0.154-0.617-0.106c-0.691,0.156-1.685,0.38-2.377,0.536c-0.212,0.048-0.396,0.178-0.512,0.361
				c-0.116,0.184-0.154,0.406-0.106,0.617c0.038,0.168,0.078,0.345,0.116,0.513c0.048,0.212,0.178,0.396,0.361,0.512
				c0.184,0.116,0.406,0.154,0.617,0.107c0.691-0.156,1.685-0.38,2.376-0.536c0.212-0.048,0.396-0.178,0.512-0.361
				c0.116-0.184,0.154-0.406,0.107-0.618C173.279,122.9,173.239,122.723,173.201,122.555z"/>
		</g>
		<g>
			<path style="fill-rule:evenodd;clip-rule:evenodd;fill:#FF9DE2;" d="M468.712,213.001l9.983-1.106
				c0.887-0.098,1.699-0.545,2.257-1.242c0.558-0.696,0.816-1.587,0.718-2.474l-0.158-1.429c-0.098-0.887-0.545-1.699-1.242-2.257
				c-0.441-0.353-0.959-0.586-1.506-0.685l0.387-0.043c1.848-0.205,3.18-1.868,2.975-3.716c-0.047-0.427-0.096-0.864-0.143-1.291
				c-0.153-1.379-1.118-2.471-2.367-2.85c1.763-0.282,3.011-1.901,2.812-3.694c-0.047-0.427-0.096-0.864-0.143-1.291
				c-0.163-1.474-1.254-2.619-2.627-2.919l0.347-0.039c0.887-0.098,1.7-0.545,2.257-1.242c0.558-0.697,0.816-1.587,0.718-2.474
				l-0.158-1.43c-0.098-0.887-0.545-1.699-1.242-2.257c-0.696-0.558-1.587-0.816-2.474-0.718l-8.088,0.896
				c-1.914,0.015-5.676,0.746-5.676,0.746s2.099-13.221-1.23-20.055c-3.33-6.833-8.105-6.818-8.872-5.779
				c-0.767,1.041,0.046,6.246,0.046,6.246c-0.365,11.223-4.005,19.33-9.23,25.929c-0.936,1.16-1.385,2.637-1.253,4.122
				c0.363,4.25,1.177,13.303,1.675,18.84c0.11,1.228,0.713,2.359,1.67,3.136c0.957,0.777,2.188,1.133,3.413,0.989
				C457.818,214.233,468.207,213.099,468.712,213.001z"/>
			<path style="fill-rule:evenodd;clip-rule:evenodd;fill:#FF9DE2;" d="M441.57,188.642c-0.134-1.213-1.142-2.097-2.25-1.974
				c-1.824,0.202-4.501,0.499-6.326,0.701c-1.108,0.123-1.898,1.206-1.763,2.419c0.601,5.426,2.15,19.412,2.751,24.837
				c0.134,1.213,1.142,2.097,2.249,1.974c1.824-0.202,4.502-0.499,6.326-0.701c1.108-0.123,1.898-1.206,1.763-2.419
				C443.72,208.054,442.171,194.068,441.57,188.642z"/>
		</g>
		<path style="fill-rule:evenodd;clip-rule:evenodd;fill:#FF9DE2;" d="M61.159,263.106l-1.475-7.634
			c-0.082-0.424,0.077-0.859,0.413-1.13c0.336-0.271,0.795-0.335,1.192-0.165c5.679,2.429,21.688,9.276,26.794,11.46
			c0.356,0.152,0.613,0.471,0.687,0.852c0.074,0.38-0.046,0.772-0.32,1.046c-3.925,3.928-16.232,16.247-20.597,20.616
			c-0.305,0.306-0.755,0.418-1.168,0.292c-0.413-0.126-0.722-0.471-0.804-0.895l-1.616-8.364
			c-11.097,1.352-20.301,9.081-26.047,15.127c-0.155,0.166-0.396,0.221-0.608,0.139c-0.213-0.082-0.354-0.284-0.358-0.512
			C37.182,279.337,46.086,266.583,61.159,263.106z"/>
		<g>
			<path style="fill-rule:evenodd;clip-rule:evenodd;fill:#FF9DE2;" d="M74.07,231.101l-6.057,0.83
				c-5.372,0.736-10.323-3.021-11.059-8.393l-4.523-32.995c-0.736-5.371,3.021-10.323,8.393-11.059l48.633-6.666
				c5.371-0.736,10.323,3.021,11.059,8.393l4.523,32.995c0.736,5.372-3.021,10.323-8.393,11.059l-34.4,4.715l-5.511,11.856
				c-0.14,0.3-0.462,0.471-0.789,0.419c-0.327-0.052-0.58-0.315-0.619-0.644L74.07,231.101z"/>
			<g>
				
					<rect x="63.846" y="189.633" transform="matrix(0.9907 -0.1358 0.1358 0.9907 -25.057 13.5928)" style="fill-rule:evenodd;clip-rule:evenodd;fill:#FFFFFF;" width="46.511" height="1.642"/>
				
					<rect x="65.426" y="201.164" transform="matrix(0.9907 -0.1358 0.1358 0.9907 -26.6087 13.9145)" style="fill-rule:evenodd;clip-rule:evenodd;fill:#FFFFFF;" width="46.511" height="1.642"/>
				
					<rect x="67.007" y="212.695" transform="matrix(0.9907 -0.1358 0.1358 0.9907 -28.1595 14.2357)" style="fill-rule:evenodd;clip-rule:evenodd;fill:#FFFFFF;" width="46.511" height="1.642"/>
			</g>
		</g>
		<g>
			<path style="fill-rule:evenodd;clip-rule:evenodd;fill:#FF9DE2;" d="M418.625,158.09l-57.759-11.519
				c-4.679-0.933-7.716-5.483-6.783-10.162l7.131-35.757c0.933-4.679,5.483-7.716,10.162-6.783l57.759,11.519
				c4.679,0.933,7.716,5.483,6.783,10.162l-7.131,35.757C427.854,155.986,423.305,159.023,418.625,158.09z"/>
			<g>
				<g>
					<path style="fill-rule:evenodd;clip-rule:evenodd;fill:#FFFFFF;" d="M407.839,118.352c0.062-0.31-0.002-0.632-0.177-0.895
						c-0.176-0.263-0.448-0.445-0.758-0.507c-5.535-1.104-29.076-5.799-34.611-6.902c-0.31-0.062-0.632,0.002-0.895,0.177
						c-0.263,0.176-0.445,0.448-0.507,0.758c-0.762,3.822-3.176,15.923-3.938,19.745c-0.062,0.31,0.002,0.632,0.178,0.895
						c0.176,0.263,0.448,0.445,0.758,0.507c5.535,1.104,29.076,5.798,34.611,6.902c0.31,0.062,0.632-0.002,0.895-0.178
						c0.263-0.175,0.445-0.448,0.507-0.758C404.664,134.275,407.077,122.174,407.839,118.352z"/>
					<path style="fill-rule:evenodd;clip-rule:evenodd;fill:#FFFFFF;" d="M410.962,122.001c0.044-0.219-0.001-0.446-0.125-0.632
						s-0.316-0.314-0.535-0.358l-0.542-0.108c-0.219-0.044-0.446,0.001-0.632,0.125c-0.186,0.124-0.315,0.317-0.358,0.536
						l-2.75,13.788c-0.044,0.219,0.002,0.446,0.125,0.632c0.124,0.186,0.317,0.314,0.535,0.358l0.542,0.108
						c0.219,0.044,0.446-0.001,0.632-0.125c0.186-0.124,0.315-0.316,0.358-0.535L410.962,122.001z"/>
					<path style="fill-rule:evenodd;clip-rule:evenodd;fill:#FFFFFF;" d="M413.837,121.306c-0.537,0.178-0.937,0.631-1.048,1.186
						c-0.545,2.735-2.183,10.947-2.728,13.682c-0.111,0.555,0.085,1.126,0.513,1.497c1.451,1.257,4.862,4.212,7.076,6.13
						c0.423,0.367,1.01,0.481,1.54,0.299c0.53-0.182,0.923-0.631,1.033-1.181l4.539-22.759c0.11-0.549-0.081-1.116-0.501-1.487
						c-0.42-0.371-1.005-0.491-1.537-0.314C419.943,119.282,415.659,120.702,413.837,121.306z"/>
				</g>
			</g>
		</g>
		<path style="fill-rule:evenodd;clip-rule:evenodd;fill:#FF9DE2;" d="M333.609,188.56c0-13.304-2.337-15.641-15.641-15.641
			c13.304,0,15.641-2.337,15.641-15.641c0,13.304,2.337,15.641,15.641,15.641C335.946,172.919,333.609,175.257,333.609,188.56z"/>
		<path style="fill-rule:evenodd;clip-rule:evenodd;fill:#FFFFFF;" d="M150.482,200.616c0-9.643-1.694-11.337-11.337-11.337
			c9.643,0,11.337-1.694,11.337-11.337c0,9.643,1.694,11.337,11.337,11.337C152.176,189.279,150.482,190.973,150.482,200.616z"/>
		<path style="fill-rule:evenodd;clip-rule:evenodd;fill:#FFFFFF;" d="M405.154,184.542c0-4.943-0.868-5.812-5.812-5.812
			c4.943,0,5.812-0.868,5.812-5.812c0,4.943,0.868,5.812,5.812,5.812C406.022,178.73,405.154,179.599,405.154,184.542z"/>
		<path style="fill-rule:evenodd;clip-rule:evenodd;fill:#FF9DE2;" d="M34.951,261.898c0-9.643-1.694-11.337-11.337-11.337
			c9.643,0,11.337-1.694,11.337-11.337c0,9.643,1.694,11.337,11.337,11.337C36.645,250.561,34.951,252.255,34.951,261.898z"/>
		<path style="fill-rule:evenodd;clip-rule:evenodd;fill:#FF9DE2;" d="M110.732,301.947c0-7.449-1.309-8.758-8.758-8.758
			c7.449,0,8.758-1.309,8.758-8.758c0,7.449,1.309,8.758,8.758,8.758C112.04,293.189,110.732,294.498,110.732,301.947z"/>
		<path style="fill-rule:evenodd;clip-rule:evenodd;fill:#FF9DE2;" d="M257.407,106.046c0-7.449-1.309-8.758-8.758-8.758
			c7.449,0,8.758-1.309,8.758-8.758c0,7.449,1.309,8.758,8.758,8.758C258.715,97.288,257.407,98.597,257.407,106.046z"/>
	</g>
	
		<text transform="matrix(1.0359 0 0 1 133.6855 442.3432)" style="fill:#3D335B; font-family:'Roboto-Bold'; font-size:23.657px; letter-spacing:1.931;">GAME STREAMER</text>
</g>
</svg>
