<?xml version="1.0" encoding="UTF-8" standalone="no"?>
<svg
   width="176"
   height="160"
   xml:space="preserve"
   overflow="hidden"
   version="1.1"
   id="svg7"
   xmlns="http://www.w3.org/2000/svg"
   xmlns:svg="http://www.w3.org/2000/svg"><defs
     id="defs3"><clipPath
       id="clip0"><rect
         x="553"
         y="57"
         width="174"
         height="158"
         id="rect1" /></clipPath><clipPath
       id="clip1"><rect
         x="553"
         y="57"
         width="174"
         height="159"
         id="rect2" /></clipPath><clipPath
       id="clip2"><rect
         x="553"
         y="57"
         width="174"
         height="159"
         id="rect3" /></clipPath></defs><g
     transform="translate(-552,-56)"
     id="g7"><g
       id="g6"><g
         clip-path="url(#clip0)"
         id="g5"><g
           clip-path="url(#clip1)"
           id="g4"><g
             clip-path="url(#clip2)"
             id="g3"><path
               d="m 175.757,166.216 -13.623,28.831 c 0,0 3.288,12.952 18.059,33.483 -26.178,-23.432 -37.284,-41.059 -37.284,-41.059 -1.701,12.818 -1.07,25.533 4.313,40.4 1.672,4.618 -0.498,7.047 -4.648,4.445 -5.15,-3.229 -10.589,-7.816 -21.899,-13.9 0.945,6.692 1.326,11.119 0.924,13.494 -0.195,1.157 -1.736,2.458 -2.815,2.994 -6.397,3.18 -10.56,0.045 -30.024,3.399 7.5325,5.955 17.887,19.284 19.222,24.88 1.326,5.564 -2.729,9.066 -8.8775,13.501 38.9495,4.552 41.9555,11.146 33.4355,28.582 12.786,-3.861 25.108,-5.584 36.469,-6.028 -1.048,2.285 -1.918,4.842 -2.343,7.486 -0.348,2.161 -0.376,4.259 -0.025,6.208 0.026,0.148 0.055,0.295 0.086,0.441 0.19,0.899 0.473,1.811 0.874,2.708 0.467,1.048 1.082,2.044 1.858,2.949 0.814,0.949 1.752,1.739 2.778,2.372 1.137,0.704 2.315,1.174 3.444,1.488 1.098,0.306 2.143,0.46 3.043,0.54 2.137,0.191 4.059,-0.012 4.993,-0.13 l 2.439,-0.311 c 1.513,-0.191 2.585,-1.572 2.394,-3.084 l -0.647,-5.094 c -0.175,-1.395 -1.449,-2.382 -2.845,-2.205 0,0 0,0 0,0 l -2.653,0.337 c -0.678,0.085 -1.728,0.184 -2.746,0.09 -0.409,-0.038 -0.786,-0.109 -1.114,-0.21 -0.329,-0.1 -0.564,-0.22 -0.728,-0.331 -0.141,-0.097 -0.242,-0.198 -0.327,-0.302 -0.081,-0.101 -0.171,-0.238 -0.263,-0.434 -0.08,-0.173 -0.16,-0.392 -0.233,-0.669 -0.012,-0.044 -0.021,-0.091 -0.033,-0.139 -0.149,-0.649 -0.246,-1.586 -0.135,-2.868 0.224,-2.579 1.19,-5.432 2.415,-7.716 0.236,-0.437 0.465,-0.819 0.69,-1.173 16.445,0.517 30.143,3.504 39.046,6.075 -8.52,-17.436 -5.512,-24.03 33.438,-28.584 -6.148,-4.433 -10.207,-7.935 -8.88,-13.499 1.334,-5.596 11.692,-18.925 19.225,-24.88 -19.465,-3.354 -23.626,-0.219 -30.024,-3.399 -1.08,-0.536 -2.62,-1.837 -2.816,-2.994 -0.401,-2.375 -0.023,-6.802 0.921,-13.494 -11.309,6.084 -16.744,10.671 -21.895,13.9 -4.15,2.602 -6.32,0.173 -4.647,-4.445 5.381,-14.867 6.014,-27.582 4.312,-40.4 l -15.58,8.743 c -1.324,0.743 -2.996,0.205 -3.645,-1.167 z m 34.915,77.773 c 5.654,0 10.236,4.584 10.236,10.236 0,0 0,0 0,0.001 0,5.652 -4.582,10.234 -10.236,10.234 -5.652,0.002 -10.235,-4.582 -10.235,-10.234 0,0 0,0 0,0 0,-5.653 4.581,-10.237 10.233,-10.237 z m -54.926,0.007 c 0.757,-0.073 1.43,0.481 1.504,1.237 l 0.655,6.769 c 0.074,0.757 0.747,1.31 1.504,1.237 l 6.766,-0.654 c 0.757,-0.074 1.43,0.481 1.504,1.237 0,0 0,0 0,0 l 1.109,11.46 c 0.073,0.758 -0.481,1.432 -1.238,1.504 0,0 0,0 0,0 l -6.767,0.654 c -0.757,0.073 -1.311,0.746 -1.238,1.505 0,0 0,0 0,0 l 0.655,6.767 c 0.073,0.756 -0.481,1.43 -1.238,1.502 l -11.46,1.111 c -0.757,0.073 -1.43,-0.483 -1.503,-1.239 0,0 0,0 0,0 l -0.655,-6.767 c -0.074,-0.757 -0.746,-1.31 -1.504,-1.237 0,0 0,0 0,0 l -6.766,0.654 c -0.757,0.073 -1.43,-0.481 -1.504,-1.237 l -1.109,-11.46 c -0.073,-0.759 0.481,-1.432 1.238,-1.505 0,0 0,0 0,0 l 6.767,-0.654 c 0.757,-0.074 1.311,-0.746 1.238,-1.504 0,0 0,0 0,0 l -0.655,-6.767 c -0.074,-0.757 0.481,-1.43 1.237,-1.504 0,0 0.001,0 0.001,0 z m 39.063,17.164 c 5.652,0 10.234,4.582 10.234,10.236 0,5.652 -4.582,10.234 -10.234,10.234 -5.654,0 -10.235,-4.582 -10.235,-10.234 0,-5.654 4.581,-10.236 10.235,-10.236 z"
               fill="#ffffff"
               fill-rule="nonzero"
               fill-opacity="1"
               transform="matrix(1,0,0,1.00335,464.24,-109.683)"
               id="path3" /></g></g></g></g></g></svg>
