<?xml version="1.0" encoding="utf-8"?>
<!-- Generator: Adobe Illustrator 27.5.0, SVG Export Plug-In . SVG Version: 6.00 Build 0)  -->
<svg version="1.1" xmlns="http://www.w3.org/2000/svg" xmlns:xlink="http://www.w3.org/1999/xlink" x="0px" y="0px"
	 viewBox="0 0 3710 3710" style="enable-background:new 0 0 3710 3710;" xml:space="preserve">
<g id="Background">
	<g>
		<g>
			<rect style="fill:#FFFFFF;" width="3710" height="3710"/>
		</g>
	</g>
</g>
<g id="Illustration">
	<g>
		<linearGradient id="SVGID_1_" gradientUnits="userSpaceOnUse" x1="3520.7085" y1="3662.6729" x2="1544.6653" y2="1559.1434">
			<stop  offset="0" style="stop-color:#B37CFF"/>
			<stop  offset="1" style="stop-color:#F895E7"/>
		</linearGradient>
		<path style="opacity:0.3;fill:url(#SVGID_1_);" d="M2925.715,2820.332c-72.947,75.192-138.218,119.392-188.192,152.76
			c-487.383,325.43-1046.223,286.804-1218.475,254.745c-277.906-51.724-510.789-143.385-712.345-325.482
			c-457.996-413.781-435.72-1276.959-85.755-1811.661c41.495-63.4,390.93-581.371,949.268-654.358
			c13.656-1.785,23.846-2.802,32.77-3.747c86.374-9.145,621.613-57.41,1058.048,308.234
			c62.474,52.34,173.655,140.391,256.243,290.737C3312.857,1569.644,3359.253,2373.458,2925.715,2820.332z"/>
		<g>
			<g>
				
					<linearGradient id="SVGID_00000158002036431943682920000017071284146760700063_" gradientUnits="userSpaceOnUse" x1="2163.6404" y1="1300.5387" x2="115.2271" y2="3119.6528">
					<stop  offset="0" style="stop-color:#53D8FF"/>
					<stop  offset="1" style="stop-color:#3840F7"/>
				</linearGradient>
				<path style="fill:url(#SVGID_00000158002036431943682920000017071284146760700063_);" d="M2901.053,1570.905
					c-0.832-3.596-1.674-7.192-2.547-10.788c-131.962-543.261-684.161-875.514-1233.371-742.107l241.555,994.433L2901.053,1570.905z
					"/>
				
					<linearGradient id="SVGID_00000181799793972930364440000014024745803486966918_" gradientUnits="userSpaceOnUse" x1="2552.3335" y1="1268.8639" x2="2109.02" y2="3205.1704">
					<stop  offset="0" style="stop-color:#53D8FF"/>
					<stop  offset="1" style="stop-color:#3840F7"/>
				</linearGradient>
				<path style="fill:url(#SVGID_00000181799793972930364440000014024745803486966918_);" d="M1903.734,1808.585l968.018,332.353
					c60.143-174.634,73.769-367.677,29.47-560.963c-1.395-6.088-2.86-12.14-4.358-18.177L1903.734,1808.585z"/>
				
					<linearGradient id="SVGID_00000108988748837325936680000001266648876693891236_" gradientUnits="userSpaceOnUse" x1="2732.7393" y1="1271.0255" x2="1728.918" y2="3370.3921">
					<stop  offset="0" style="stop-color:#53D8FF"/>
					<stop  offset="0.1866" style="stop-color:#4CB1FD"/>
					<stop  offset="0.452" style="stop-color:#4481FA"/>
					<stop  offset="0.6858" style="stop-color:#3D5DF9"/>
					<stop  offset="0.8764" style="stop-color:#3948F7"/>
					<stop  offset="1" style="stop-color:#3840F7"/>
				</linearGradient>
				<path style="fill:url(#SVGID_00000108988748837325936680000001266648876693891236_);" d="M1906.676,1812.446l196.729,1004.245
					c6.299-1.236,12.598-2.512,18.9-3.87c363.301-78.309,639.616-340.533,752.4-668.027L1906.676,1812.446z"/>
				
					<linearGradient id="SVGID_00000034078838333354260040000013432731277238774670_" gradientUnits="userSpaceOnUse" x1="1411.4673" y1="576.2196" x2="1119.3085" y2="2913.4954">
					<stop  offset="0" style="stop-color:#FDF53F"/>
					<stop  offset="0.6645" style="stop-color:#E57A58"/>
					<stop  offset="1" style="stop-color:#D93C65"/>
				</linearGradient>
				<path style="fill:url(#SVGID_00000034078838333354260040000013432731277238774670_);" d="M1780.885,1729.539L1576.59,739.554
					c-461.934,95.326-786.31,488.114-814.64,937.199l1013.297,59.309C1778.813,1736.27,1781.607,1733.038,1780.885,1729.539z"/>
				
					<linearGradient id="SVGID_00000026139165219644603040000017997161527003077022_" gradientUnits="userSpaceOnUse" x1="3152.7698" y1="-6343.0405" x2="3837.5396" y2="-3021.5269" gradientTransform="matrix(0.236 0.9717 -0.9717 0.236 -1982.5023 -970.3488)">
					<stop  offset="0" style="stop-color:#53D8FF"/>
					<stop  offset="1" style="stop-color:#3840F7"/>
				</linearGradient>
				<path style="fill:url(#SVGID_00000026139165219644603040000017997161527003077022_);" d="M1907.302,1808.162l-1021.105-33.937
					c-4.372,89.455,3.674,164.431,24.047,256.084c95.043,427.579,444.789,732.632,854.17,791.207L1907.302,1808.162z"/>
				
					<linearGradient id="SVGID_00000034796459890827776140000011041348155923030163_" gradientUnits="userSpaceOnUse" x1="2780.3008" y1="861.7057" x2="1771.3838" y2="2757.2468">
					<stop  offset="0" style="stop-color:#53D8FF"/>
					<stop  offset="1" style="stop-color:#3840F7"/>
				</linearGradient>
				<path style="fill:url(#SVGID_00000034796459890827776140000011041348155923030163_);" d="M1755.822,2824.59
					c112.969,17.126,230.643,15.458,348.929-7.63l0,0l-195.674-1004.451L1755.822,2824.59z"/>
			</g>
			<g>
				<path style="fill:#FFFFFF;" d="M1541.83,2730.676c-0.863,0-1.742-0.166-2.589-0.516
					c-141.334-58.36-269.076-149.938-369.414-264.837c-103.683-118.725-178.287-262.996-215.747-417.216
					c-3.349-13.789-6.444-27.819-9.2-41.698c-0.73-3.681,1.662-7.257,5.341-7.989c3.693-0.725,7.259,1.664,7.989,5.341
					c2.717,13.693,5.771,27.534,9.074,41.138c36.948,152.108,110.525,294.397,212.778,411.486
					c98.967,113.327,224.962,203.653,364.365,261.215c3.469,1.431,5.119,5.404,3.688,8.873
					C1547.032,2729.093,1544.499,2730.676,1541.83,2730.676z"/>
			</g>
			<g>
				<path style="fill:#FFFFFF;" d="M2280.594,2735.05c-2.702,0-5.258-1.624-6.317-4.29c-1.385-3.489,0.32-7.438,3.809-8.822
					c252.778-100.324,453.726-304.3,551.321-559.629c1.339-3.505,5.263-5.262,8.772-3.921c3.505,1.34,5.261,5.267,3.921,8.772
					c-98.949,258.874-302.696,465.687-559.001,567.409C2282.276,2734.896,2281.428,2735.05,2280.594,2735.05z"/>
			</g>
			<g>
				<path style="fill:#FFFFFF;" d="M2702.072,1228.656c-2.059,0-4.092-0.931-5.427-2.701
					c-122.125-161.755-288.941-280.078-482.418-342.177c-3.573-1.146-5.539-4.973-4.392-8.546c1.148-3.571,4.975-5.545,8.546-4.393
					c196.157,62.959,365.287,182.925,489.109,346.928c2.261,2.994,1.665,7.255-1.329,9.516
					C2704.935,1228.21,2703.497,1228.656,2702.072,1228.656z"/>
			</g>
			<g>
				<path style="fill:#FFFFFF;" d="M1318.183,1672.016c-0.148,0-0.295-0.005-0.445-0.015l-519.901-33.531l1.14-7.343
					c13.68-88.141,36.186-173.493,70.829-268.605c1.286-3.528,5.187-5.338,8.71-4.059c3.525,1.286,5.343,5.184,4.059,8.71
					c-33.37,91.612-55.369,174.039-69.007,258.695l505.047,32.574c3.744,0.24,6.584,3.472,6.343,7.217
					C1324.726,1669.254,1321.736,1672.016,1318.183,1672.016z"/>
			</g>
			<g>
				<path style="fill:#FFFFFF;" d="M1725.972,1698.288c-0.242,0-0.484-0.008-0.728-0.025l-106.053-6.861
					c-3.746-0.242-6.584-3.474-6.342-7.217c0.241-3.745,3.469-6.577,7.217-6.342l102.556,6.634l-110.301-516.449
					c-0.783-3.671,1.556-7.28,5.225-8.065c3.688-0.776,7.281,1.556,8.065,5.225l111.033,519.88c0.722,3.379-0.159,6.818-2.418,9.434
					C1732.126,1696.931,1729.15,1698.288,1725.972,1698.288z M1723.354,1687.907h0.035H1723.354z"/>
			</g>
		</g>
		<g>
			<g>
				
					<linearGradient id="SVGID_00000045580896263647199750000008084123308165044868_" gradientUnits="userSpaceOnUse" x1="2948.8486" y1="924.6514" x2="2084.4053" y2="1770.3024">
					<stop  offset="0" style="stop-color:#2B3582"/>
					<stop  offset="1" style="stop-color:#150E42"/>
				</linearGradient>
				<polygon style="fill:url(#SVGID_00000045580896263647199750000008084123308165044868_);" points="1913.414,1595.511 
					1908.527,1586.567 2238.955,1406.024 2546.018,1540.996 2809.628,1282.424 2810.164,1282.107 3119.781,1099.382 
					3124.959,1108.16 2815.878,1290.569 2548.231,1553.102 2239.442,1417.37 				"/>
			</g>
			
				<linearGradient id="SVGID_00000067214940735022202340000011449972283793269145_" gradientUnits="userSpaceOnUse" x1="1967.6401" y1="1535.6007" x2="1883.2737" y2="1618.1331">
				<stop  offset="0" style="stop-color:#2B3582"/>
				<stop  offset="1" style="stop-color:#150E42"/>
			</linearGradient>
			<circle style="fill:url(#SVGID_00000067214940735022202340000011449972283793269145_);" cx="1910.971" cy="1591.038" r="35.53"/>
			
				<linearGradient id="SVGID_00000121961755949531631110000015561441195512734139_" gradientUnits="userSpaceOnUse" x1="2295.8684" y1="1356.2595" x2="2211.502" y2="1438.792">
				<stop  offset="0" style="stop-color:#2B3582"/>
				<stop  offset="1" style="stop-color:#150E42"/>
			</linearGradient>
			<circle style="fill:url(#SVGID_00000121961755949531631110000015561441195512734139_);" cx="2239.199" cy="1411.697" r="35.53"/>
			
				<linearGradient id="SVGID_00000030484689608809495960000014378110324613209747_" gradientUnits="userSpaceOnUse" x1="2603.7939" y1="1484.8439" x2="2519.4275" y2="1567.3762">
				<stop  offset="0" style="stop-color:#2B3582"/>
				<stop  offset="1" style="stop-color:#150E42"/>
			</linearGradient>
			<circle style="fill:url(#SVGID_00000030484689608809495960000014378110324613209747_);" cx="2547.125" cy="1540.281" r="35.53"/>
			
				<linearGradient id="SVGID_00000083070498085157791090000000012930372875894173_" gradientUnits="userSpaceOnUse" x1="2860.9624" y1="1231.0591" x2="2776.5959" y2="1313.5914">
				<stop  offset="0" style="stop-color:#2B3582"/>
				<stop  offset="1" style="stop-color:#150E42"/>
			</linearGradient>
			<circle style="fill:url(#SVGID_00000083070498085157791090000000012930372875894173_);" cx="2804.293" cy="1286.496" r="35.53"/>
			
				<linearGradient id="SVGID_00000073689364817712580350000014030991042135402646_" gradientUnits="userSpaceOnUse" x1="3179.0393" y1="1048.334" x2="3094.6731" y2="1130.8663">
				<stop  offset="0" style="stop-color:#2B3582"/>
				<stop  offset="1" style="stop-color:#150E42"/>
			</linearGradient>
			<circle style="fill:url(#SVGID_00000073689364817712580350000014030991042135402646_);" cx="3122.37" cy="1103.771" r="35.53"/>
		</g>
		<g>
			<g>
				<g>
					
						<linearGradient id="SVGID_00000034078148648917750820000003456523703357410181_" gradientUnits="userSpaceOnUse" x1="1962.9618" y1="3236.3955" x2="2155.4197" y2="3236.3955" gradientTransform="matrix(1 0 0 1 -1140.7335 0)">
						<stop  offset="0" style="stop-color:#53D8FF"/>
						<stop  offset="1" style="stop-color:#3840F7"/>
					</linearGradient>
					<path style="fill:url(#SVGID_00000034078148648917750820000003456523703357410181_);" d="M1009.252,3227.087
						c-32.97,2.85-90.192,7.479-135.303,9.465c-27.117,1.194-42.729-1.462-51.72-5.062c0.015,1.014,0.044,1.972,0.084,2.861
						c0.213,4.747,4.071,8.544,8.865,8.812c85.24,4.758,153.03,1.646,177.164,0.178c4.99-0.304,7.964-5.727,5.412-9.981
						C1012.477,3231.232,1010.931,3229.147,1009.252,3227.087z"/>
					
						<linearGradient id="SVGID_00000091694029754163106290000017689803370996028585_" gradientUnits="userSpaceOnUse" x1="1962.9508" y1="3198.6763" x2="2149.9851" y2="3198.6763" gradientTransform="matrix(1 0 0 1 -1140.7335 0)">
						<stop  offset="0" style="stop-color:#2B3582"/>
						<stop  offset="1" style="stop-color:#150E42"/>
					</linearGradient>
					<path style="fill:url(#SVGID_00000091694029754163106290000017689803370996028585_);" d="M873.948,3236.552
						c45.111-1.985,102.333-6.615,135.303-9.465c-32.415-39.77-135.303-66.575-135.303-66.575H844.89
						c-19.986,28.81-22.88,56.239-22.661,70.979C831.219,3235.09,846.831,3237.745,873.948,3236.552z"/>
					
						<linearGradient id="SVGID_00000176032765099741397980000002773611239756307348_" gradientUnits="userSpaceOnUse" x1="1980.7302" y1="3146.0149" x2="2034.9415" y2="3146.0149" gradientTransform="matrix(1 0 0 1 -1140.7335 0)">
						<stop  offset="0" style="stop-color:#F9B776"/>
						<stop  offset="1" style="stop-color:#F47960"/>
					</linearGradient>
					<path style="fill:url(#SVGID_00000176032765099741397980000002773611239756307348_);" d="M839.997,3113.072l2.719,53.812
						c0.294,5.827,4.656,10.724,10.492,11.558c5.806,0.83,13.583,0.936,21.829-1.809c5.073-1.689,8.839-5.963,9.775-11.177
						l9.396-52.384H839.997z"/>
				</g>
				<g>
					<g>
						
							<linearGradient id="SVGID_00000119815179591692658670000005648224833101760658_" gradientUnits="userSpaceOnUse" x1="1579.2806" y1="3232.2449" x2="1653.0337" y2="3232.2449" gradientTransform="matrix(1 0 0 1 -1140.7335 0)">
							<stop  offset="0" style="stop-color:#53D8FF"/>
							<stop  offset="1" style="stop-color:#3840F7"/>
						</linearGradient>
						<path style="fill:url(#SVGID_00000119815179591692658670000005648224833101760658_);" d="M462.563,3236.148
							c-14.298-1.994-20.767-9.422-23.479-17.362c-0.018,0.072-0.036,0.143-0.054,0.214c-2.103,8.376,2.773,17.057,12.522,21.186
							c11.784,4.99,24.668,5.841,34.671,5.428c10.731-0.442,20.582-4.883,25.996-11.99l0.081-0.107
							C501.528,3238.846,486.408,3239.473,462.563,3236.148z"/>
						
							<linearGradient id="SVGID_00000116929936357830728720000003529318654095976378_" gradientUnits="userSpaceOnUse" x1="1579.8173" y1="3175.4573" x2="1688.0723" y2="3175.4573" gradientTransform="matrix(1 0 0 1 -1140.7335 0)">
							<stop  offset="0" style="stop-color:#2B3582"/>
							<stop  offset="1" style="stop-color:#150E42"/>
						</linearGradient>
						<path style="fill:url(#SVGID_00000116929936357830728720000003529318654095976378_);" d="M529.975,3112.727h-23.964
							c-36.502-0.746-59.424,76.244-66.927,106.059c2.712,7.94,9.181,15.368,23.479,17.362c23.845,3.326,38.965,2.698,49.737-2.632
							c19.721-25.951,29.497-63.958,34.197-86.139C551.842,3122.149,529.975,3112.727,529.975,3112.727z"/>
					</g>
					
						<linearGradient id="SVGID_00000164482856668830458360000018067364715535970690_" gradientUnits="userSpaceOnUse" x1="1636.0864" y1="3100.8223" x2="1700.8746" y2="3100.8223" gradientTransform="matrix(1 0 0 1 -1140.7335 0)">
						<stop  offset="0" style="stop-color:#F9B776"/>
						<stop  offset="1" style="stop-color:#F47960"/>
					</linearGradient>
					<path style="fill:url(#SVGID_00000164482856668830458360000018067364715535970690_);" d="M509.091,3062.781l-13.307,52.926
						c-1.632,6.489,1.474,13.201,7.474,16.28c7.444,3.82,17.925,7.835,27.557,6.673c4.53-0.547,8.293-3.737,9.789-8.002
						l19.536-55.684L509.091,3062.781z"/>
				</g>
				
					<linearGradient id="SVGID_00000002379239530774313810000011745307847761139361_" gradientUnits="userSpaceOnUse" x1="-172.4632" y1="3826.3618" x2="1145.6487" y2="2399.5374">
					<stop  offset="0" style="stop-color:#53D8FF"/>
					<stop  offset="1" style="stop-color:#3840F7"/>
				</linearGradient>
				<path style="fill:url(#SVGID_00000002379239530774313810000011745307847761139361_);" d="M493.219,3078.079
					c16.556,14.686,70.406,16.625,70.406,16.625c193.978-465.566,273.328-531.706,273.328-531.706
					c-28.009,175.726-4.516,564.761-4.516,564.761c32.01,14.125,73.278,0,73.278,0c2.6-287.687,46.819-538.577,99.056-736.374
					c-131.105-2.947-200.826-47.811-223.592-65.817C671.894,2501.757,493.219,3078.079,493.219,3078.079z"/>
				
					<linearGradient id="SVGID_00000164513962006659591020000005254939844258141591_" gradientUnits="userSpaceOnUse" x1="2450.8491" y1="1748.3639" x2="965.603" y2="3040.1514" gradientTransform="matrix(1 0 0 1 -1140.7335 0)">
					<stop  offset="0" style="stop-color:#A737D5"/>
					<stop  offset="1" style="stop-color:#EF497A"/>
				</linearGradient>
				<path style="fill:url(#SVGID_00000164513962006659591020000005254939844258141591_);" d="M814.476,1790.165
					c-24.815,123.78-15.922,345.323-10.08,446.375c1.642,28.403-18.185,67.777-34.211,94.639c-2.514,4.213-0.962,9.608,3.402,11.851
					c26.831,13.79,117.729,56.528,223.076,61.845c7.024,0.354,13.296-4.43,15.116-11.224
					c78.145-291.782,168.91-478.233,168.91-478.233C1080.48,1755.394,814.476,1790.165,814.476,1790.165z"/>
				
					<linearGradient id="SVGID_00000029032412803015063710000000488514495208179340_" gradientUnits="userSpaceOnUse" x1="1854.4146" y1="2860.8911" x2="1885.4594" y2="2798.8015" gradientTransform="matrix(1 0 0 1 -1140.7335 0)">
					<stop  offset="0" style="stop-color:#53D8FF"/>
					<stop  offset="1" style="stop-color:#3840F7"/>
				</linearGradient>
				<path style="fill:url(#SVGID_00000029032412803015063710000000488514495208179340_);" d="M850.189,2551.975
					c-1.101,0-2.217-0.297-3.227-0.91c-2.927-1.79-3.856-5.606-2.075-8.53c1.043-1.717,26.136-42.273,76.912-66.771
					c3.085-1.48,6.801-0.2,8.296,2.894c1.489,3.088,0.194,6.807-2.897,8.293c-47.336,22.841-71.461,61.657-71.7,62.045
					C854.327,2550.913,852.282,2551.975,850.189,2551.975z"/>
				<g>
					
						<linearGradient id="SVGID_00000047047894338660229340000001793146244933288634_" gradientUnits="userSpaceOnUse" x1="1932.9108" y1="2156.4512" x2="1702.2758" y2="2360.6836" gradientTransform="matrix(1 0 0 1 -1140.7335 0)">
						<stop  offset="0" style="stop-color:#F9B776"/>
						<stop  offset="1" style="stop-color:#F47960"/>
					</linearGradient>
					<path style="fill:url(#SVGID_00000047047894338660229340000001793146244933288634_);" d="M658.822,2145.411
						c7.971,57.663,31.521,120.559,78.633,187.368l17.909-14.6c0,0-20.674-83.879-8.921-179.073
						C717.381,2133.437,683.059,2139.281,658.822,2145.411z"/>
					
						<linearGradient id="SVGID_00000127728000379245465610000011990922234395433396_" gradientUnits="userSpaceOnUse" x1="2327.0276" y1="1611.4705" x2="848.4807" y2="2897.4314" gradientTransform="matrix(1 0 0 1 -1140.7335 0)">
						<stop  offset="0" style="stop-color:#A737D5"/>
						<stop  offset="1" style="stop-color:#EF497A"/>
					</linearGradient>
					<path style="fill:url(#SVGID_00000127728000379245465610000011990922234395433396_);" d="M842.193,1942.893l-27.718-152.728
						c0,0-185.192,141.558-155.654,355.246c24.237-6.131,58.56-11.974,87.621-6.305
						C754.91,2070.532,780.199,1996.088,842.193,1942.893z"/>
				</g>
				<g>
					
						<linearGradient id="SVGID_00000163793575998624777940000015305568313903903638_" gradientUnits="userSpaceOnUse" x1="2559.4541" y1="1878.704" x2="1080.905" y2="3164.667" gradientTransform="matrix(1 0 0 1 -1140.7335 0)">
						<stop  offset="0" style="stop-color:#A737D5"/>
						<stop  offset="1" style="stop-color:#EF497A"/>
					</linearGradient>
					<path style="fill:url(#SVGID_00000163793575998624777940000015305568313903903638_);" d="M1180.689,1915.418l-71.483,153.951
						c11.558,92.945,61.488,133.133,115.323,148.547c3.357-42.36,14.068-76.583,24.007-100.255
						C1179.748,2046.639,1180.689,1915.418,1180.689,1915.418z"/>
					
						<linearGradient id="SVGID_00000080892234709389233630000006594197323448008087_" gradientUnits="userSpaceOnUse" x1="2365.2622" y1="2175.7693" x2="2546.8965" y2="2175.7693" gradientTransform="matrix(1 0 0 1 -1140.7335 0)">
						<stop  offset="0" style="stop-color:#F9B776"/>
						<stop  offset="1" style="stop-color:#F47960"/>
					</linearGradient>
					<path style="fill:url(#SVGID_00000080892234709389233630000006594197323448008087_);" d="M1248.536,2117.66
						c-9.939,23.673-20.65,57.895-24.007,100.255c143.634,55.728,181.634-52.349,181.634-52.349l-26.545-4.683
						C1319.672,2167.198,1277.798,2147.873,1248.536,2117.66z"/>
				</g>
				
					<linearGradient id="SVGID_00000137845722904886652030000012172396102859795074_" gradientUnits="userSpaceOnUse" x1="2188.7092" y1="1690.3767" x2="2186.7253" y2="2029.5652" gradientTransform="matrix(1 0 0 1 -1140.7335 0)">
					<stop  offset="0" style="stop-color:#F9B776"/>
					<stop  offset="1" style="stop-color:#F47960"/>
				</linearGradient>
				<path style="fill:url(#SVGID_00000137845722904886652030000012172396102859795074_);" d="M1114.829,1725.354l-34.51,126.863
					c-3.877,14.251-19.292,21.905-33.006,16.422c-14.8-5.916-33.576-13.992-49.74-22.719c-17.254-9.315-22.652-31.51-11.73-47.795
					l71.749-106.982L1114.829,1725.354z"/>
			</g>
			
				<linearGradient id="SVGID_00000183206580438670392620000002466721170988211890_" gradientUnits="userSpaceOnUse" x1="1683.8583" y1="2308.824" x2="2634.9976" y2="2308.824" gradientTransform="matrix(1 0 0 1 -1140.7335 0)">
				<stop  offset="0" style="stop-color:#2B3582"/>
				<stop  offset="1" style="stop-color:#150E42"/>
			</linearGradient>
			<path style="fill:url(#SVGID_00000183206580438670392620000002466721170988211890_);" d="M1471.994,2080.673L587.7,2402.521
				c-37.088,13.499-54.816,55.729-38.477,91.656l2.683,5.899c14.456,31.787,52.027,45.729,83.72,31.068l858.639-397.211
				L1471.994,2080.673z"/>
			
				<linearGradient id="SVGID_00000054250070517667724940000013571970668997284284_" gradientUnits="userSpaceOnUse" x1="2582.6558" y1="1887.0718" x2="3455.7144" y2="1887.0718" gradientTransform="matrix(1 0 0 1 -1140.7335 0)">
				<stop  offset="0" style="stop-color:#B37CFF"/>
				<stop  offset="1" style="stop-color:#F895E7"/>
			</linearGradient>
			
				<ellipse style="opacity:0.23;fill:url(#SVGID_00000054250070517667724940000013571970668997284284_);" cx="1878.452" cy="1887.072" rx="436.529" ry="428.654"/>
			
				<linearGradient id="SVGID_00000101782834166420007000000013229440952790398351_" gradientUnits="userSpaceOnUse" x1="2533.4456" y1="1887.0717" x2="3504.9246" y2="1887.0717" gradientTransform="matrix(1 0 0 1 -1140.7335 0)">
				<stop  offset="0" style="stop-color:#2B3582"/>
				<stop  offset="1" style="stop-color:#150E42"/>
			</linearGradient>
			<path style="fill:url(#SVGID_00000101782834166420007000000013229440952790398351_);" d="M1878.451,1410.094
				c-268.266,0-485.739,213.551-485.739,476.976c0,263.429,217.473,476.978,485.739,476.978
				c268.267,0,485.74-213.549,485.74-476.978C2364.191,1623.645,2146.718,1410.094,1878.451,1410.094z M1878.451,2293.982
				c-228.859,0-414.386-182.179-414.386-406.911c0-224.73,185.528-406.911,414.386-406.911
				c228.86,0,414.387,182.181,414.387,406.911C2292.838,2111.803,2107.311,2293.982,1878.451,2293.982z"/>
			<path style="fill:#FFFFFF;" d="M1429.643,1946.159c-1.622,0-3.029-1.204-3.236-2.852c-1.45-11.367-2.46-22.871-3.021-34.199
				c-0.086-1.8,1.303-3.332,3.099-3.418c2.14-0.129,3.34,1.299,3.426,3.098c0.544,11.16,1.545,22.496,2.969,33.698
				c0.224,1.786-1.036,3.418-2.822,3.646C1429.919,1946.151,1429.772,1946.159,1429.643,1946.159z M1432.974,1812.786
				c-0.19,0-0.38-0.017-0.578-0.052c-1.769-0.315-2.952-2.011-2.632-3.785c5.506-30.69,14.318-60.868,26.203-89.69l0.009-0.009
				c70.021-169.864,235.858-279.629,422.479-279.629c87.023,0,171.612,24.174,244.644,69.913c1.528,0.958,1.985,2.969,1.027,4.497
				c-0.941,1.536-2.96,1.989-4.497,1.036c-71.988-45.086-155.386-68.92-241.175-68.92c-183.971,0-347.435,108.181-416.446,275.598
				c-0.009,0.009-0.009,0.013-0.009,0.017c-11.712,28.391-20.394,58.11-25.814,88.335
				C1435.9,1811.677,1434.528,1812.786,1432.974,1812.786z"/>
			<g>
				
					<linearGradient id="SVGID_00000141418195293584153330000015623522914456670364_" gradientUnits="userSpaceOnUse" x1="1968.0192" y1="3431.9248" x2="1801.0549" y2="3652.8049" gradientTransform="matrix(0.9897 -0.1428 0.1428 0.9897 -1279.7882 -1480.9402)">
					<stop  offset="0" style="stop-color:#F9B776"/>
					<stop  offset="1" style="stop-color:#F47960"/>
				</linearGradient>
				<path style="fill:url(#SVGID_00000141418195293584153330000015623522914456670364_);" d="M1190.329,1628.968
					c0.314,2.179-28.784,144.771-28.784,144.771l-81.065-18.345l7.5-139.246C1087.98,1616.149,1185.067,1592.496,1190.329,1628.968z
					"/>
				
					<linearGradient id="SVGID_00000162337354697949009440000010554955463441647780_" gradientUnits="userSpaceOnUse" x1="1005.8165" y1="1670.9534" x2="1585.1086" y2="1744.1971">
					<stop  offset="0" style="stop-color:#2B3582"/>
					<stop  offset="1" style="stop-color:#150E42"/>
				</linearGradient>
				<path style="fill:url(#SVGID_00000162337354697949009440000010554955463441647780_);" d="M1106.213,1647.177l-9.688,72.992
					c-0.124,0.936-0.123,1.861,0.01,2.796c0.818,5.722,5.074,25.2,24.737,19.63c17.842-5.054,34.2-9.401,45.5-5.945
					c5.073,1.552,8.135,6.691,7.073,11.889c-2.647,12.955-9.152,42.037-18.659,66.441c-1.929,4.952-7.352,7.553-12.455,6.065
					c-15.375-4.482-47.536-14.843-71.457-29.238c-3.241-1.951-5.172-5.476-5.013-9.255c0.778-18.427,2.933-74.441,1.119-90.143
					c-1.703-14.738-19.79-23.567-27.648-26.732c-2.577-1.038-4.596-3.068-5.625-5.648c-3.639-9.119-8.656-30.222,17.937-38.869
					c5.566-1.81,8.499-7.811,6.521-13.319c-3.938-10.966-5.599-27.7,14.974-36.92c20.911-9.371,36.527,1.776,44.96,10.835
					c3.409,3.663,8.881,4.221,13.111,1.548c2.408-1.522,5.511-2.021,9.26,0.314c5.051,3.147,11.74,1.002,14.347-4.348
					c5.008-10.278,15.213-21.288,35.685-17.782c36.326,6.221,40.44,46.475,30.857,70.064c-9.583,23.589-48.584,14.605-68.149,2.713
					c-14.876-9.042-34.172,0.435-42.567,5.498C1108.382,1641.368,1106.622,1644.099,1106.213,1647.177z"/>
				
					<linearGradient id="SVGID_00000156547095827268550620000012717883347825439665_" gradientUnits="userSpaceOnUse" x1="1723.4822" y1="3606.8447" x2="1857.4011" y2="3469.4475" gradientTransform="matrix(0.9897 -0.1428 0.1428 0.9897 -1279.7882 -1480.9402)">
					<stop  offset="0" style="stop-color:#F9B776"/>
					<stop  offset="1" style="stop-color:#F47960"/>
				</linearGradient>
				<path style="fill:url(#SVGID_00000156547095827268550620000012717883347825439665_);" d="M1064.117,1719.022
					c0,0,14.934-41.819-0.409-52.061c-15.343-10.241-38.067-4.924-33.064,25.37
					C1036.868,1730.014,1064.117,1719.022,1064.117,1719.022z"/>
			</g>
			
				<linearGradient id="SVGID_00000050636996660224282020000002789842391550798498_" gradientUnits="userSpaceOnUse" x1="2023.9888" y1="2259.3037" x2="1793.354" y2="2463.5359" gradientTransform="matrix(1 0 0 1 -1140.7335 0)">
				<stop  offset="0" style="stop-color:#F9B776"/>
				<stop  offset="1" style="stop-color:#F47960"/>
			</linearGradient>
			<path style="fill:url(#SVGID_00000050636996660224282020000002789842391550798498_);" d="M747.979,2315.637l83.597-6.813
				l36.204,33.374c0,0-8.565,11.84-35.343,5.034c-26.778-6.805-63.458-8.475-63.458-8.475s-36.967,16.666-37.418-14.517
				L747.979,2315.637z"/>
			
				<linearGradient id="SVGID_00000009564508873882228190000011416365595168003775_" gradientUnits="userSpaceOnUse" x1="2527.5996" y1="2154.4375" x2="2592.6445" y2="2154.4375" gradientTransform="matrix(1 0 0 1 -1140.7335 0)">
				<stop  offset="0" style="stop-color:#F9B776"/>
				<stop  offset="1" style="stop-color:#F47960"/>
			</linearGradient>
			<path style="fill:url(#SVGID_00000009564508873882228190000011416365595168003775_);" d="M1395.516,2185.341
				c7.229,5.648,31.999-6.144,47.155-14.296c7.387-3.973,10.965-12.611,8.429-20.606c-3.648-11.502-9.725-26.35-17.214-28.222
				C1421.462,2119.11,1365.723,2162.065,1395.516,2185.341z"/>
			<path style="fill:#FFFFFF;" d="M605.149,2518.772c-0.354,0-0.716-0.056-1.07-0.177c-34.54-11.945-42.575-32.352-43.231-47.369
				c-0.949-21.948,12.842-42.316,34.307-50.688l106.183-41.406c1.648-0.656,3.556,0.168,4.22,1.855
				c0.656,1.679-0.173,3.573-1.856,4.229l-106.183,41.401c-18.858,7.357-30.975,25.167-30.147,44.323
				c0.82,18.901,13.887,32.857,38.846,41.483c1.7,0.591,2.607,2.447,2.011,4.151
				C607.764,2517.927,606.504,2518.772,605.149,2518.772z"/>
			<path style="fill:#FFFFFF;" d="M735.23,2372.677c-1.303,0-2.537-0.79-3.038-2.076c-0.656-1.683,0.173-3.573,1.856-4.229
				l13.766-5.364c1.648-0.66,3.564,0.177,4.22,1.856c0.656,1.683-0.173,3.573-1.856,4.229l-13.766,5.364
				C736.024,2372.608,735.627,2372.677,735.23,2372.677z"/>
		</g>
		<g>
			
				<linearGradient id="SVGID_00000060723836542849229420000017022949986364965518_" gradientUnits="userSpaceOnUse" x1="-3751.4189" y1="3090.1494" x2="-4337.626" y2="3727.7788" gradientTransform="matrix(-1 0 0 1 -1038.0688 0)">
				<stop  offset="0" style="stop-color:#CB236D"/>
				<stop  offset="1" style="stop-color:#4C246D"/>
			</linearGradient>
			<path style="fill:url(#SVGID_00000060723836542849229420000017022949986364965518_);" d="M2898.651,3137.649
				c0,0,6.071,34.368,9.047,68.389c1.163,13.297-9.087,24.842-22.423,25.397c-45.306,1.887-142.217,5.556-176.992,4.004
				c-5.228-0.233-8.646-5.585-6.711-10.448c1.621-4.074,4.749-7.368,8.732-9.199l160.08-73.573L2898.651,3137.649z"/>
			
				<linearGradient id="SVGID_00000030482336806271220880000002381627572073113010_" gradientUnits="userSpaceOnUse" x1="-3941.6926" y1="3137.5076" x2="-3889.6228" y2="3137.5076" gradientTransform="matrix(-1 0 0 1 -1038.0688 0)">
				<stop  offset="0" style="stop-color:#F9B776"/>
				<stop  offset="1" style="stop-color:#F47960"/>
			</linearGradient>
			<path style="fill:url(#SVGID_00000030482336806271220880000002381627572073113010_);" d="M2903.624,3117.455l-4.877,41.11
				c0,0-28.042,13.054-47.192-1.646l11.613-45.812L2903.624,3117.455z"/>
			
				<linearGradient id="SVGID_00000048478086605382963110000013061641020245805975_" gradientUnits="userSpaceOnUse" x1="-4065.1624" y1="2739.3655" x2="-3892.9939" y2="2739.3655" gradientTransform="matrix(-1 0 0 1 -1038.0688 0)">
				<stop  offset="0" style="stop-color:#2B3582"/>
				<stop  offset="1" style="stop-color:#150E42"/>
			</linearGradient>
			<path style="fill:url(#SVGID_00000048478086605382963110000013061641020245805975_);" d="M2899.958,2344.591
				c2.107,10.736,11.309,535.722-44.808,770.987c-0.916,3.839,1.031,7.795,4.684,9.288c8.608,3.517,25.481,8.609,45.703,9.288
				c6.263,0.21,11.877-3.86,13.644-9.871c16.041-54.585,92.906-328.071,102.934-589.324c11.204-291.925,0-9.94,0-9.94l-6.572-180.45
				L2899.958,2344.591z"/>
			
				<linearGradient id="SVGID_00000127766291618111554960000001541032082700294814_" gradientUnits="userSpaceOnUse" x1="-3882.9248" y1="2969.2495" x2="-4469.1313" y2="3606.8779" gradientTransform="matrix(-1 0 0 1 -1038.0688 0)">
				<stop  offset="0" style="stop-color:#CB236D"/>
				<stop  offset="1" style="stop-color:#4C246D"/>
			</linearGradient>
			<path style="fill:url(#SVGID_00000127766291618111554960000001541032082700294814_);" d="M3082.795,3155.579
				c0,0,9.664,17.351,19.019,63.455c1.69,8.326-4.128,16.295-12.583,17.126c-14.959,1.471-37.99,3.362-56.438,3.236
				c-8.504-0.059-15.142-7.463-14.116-15.906c2.043-16.829,8.409-44.438,28.076-65.958L3082.795,3155.579z"/>
			
				<linearGradient id="SVGID_00000037662052459318339620000004007032362361967273_" gradientUnits="userSpaceOnUse" x1="-4129.3511" y1="3134.8369" x2="-4084.3938" y2="3134.8369" gradientTransform="matrix(-1 0 0 1 -1038.0688 0)">
				<stop  offset="0" style="stop-color:#F9B776"/>
				<stop  offset="1" style="stop-color:#F47960"/>
			</linearGradient>
			<path style="fill:url(#SVGID_00000037662052459318339620000004007032362361967273_);" d="M3091.282,3102.703l-11.397,62.168
				c0,0-11.269,8.381-33.561,2.305l5.44-66.889L3091.282,3102.703z"/>
			
				<linearGradient id="SVGID_00000036218878739810962640000012531281053037341081_" gradientUnits="userSpaceOnUse" x1="-4177.8086" y1="2733.7319" x2="-3933.385" y2="2733.7319" gradientTransform="matrix(-1 0 0 1 -1038.0688 0)">
				<stop  offset="0" style="stop-color:#2B3582"/>
				<stop  offset="1" style="stop-color:#150E42"/>
			</linearGradient>
			<path style="fill:url(#SVGID_00000036218878739810962640000012531281053037341081_);" d="M3122.072,2360.701
				c45.896,276.987-9.956,684.597-28.792,764.376c-1.154,4.884-5.095,8.626-10.046,9.447c-8.408,1.394-22.251,2.531-35.898-1.433
				c-4.702-1.366-8.006-5.607-8.198-10.5c-2.527-64.499,2.021-460.46-40.743-616.946c-2.167-7.931-7.01-14.846-13.711-19.61
				l-83.004-59.009l-6.364-95.382L3122.072,2360.701z"/>
			<g>
				
					<linearGradient id="SVGID_00000083072310022030679780000009047195519841972378_" gradientUnits="userSpaceOnUse" x1="2980.3833" y1="1979.5316" x2="2538.7471" y2="2713.3276">
					<stop  offset="0" style="stop-color:#FDF53F"/>
					<stop  offset="0.6645" style="stop-color:#E57A58"/>
					<stop  offset="1" style="stop-color:#D93C65"/>
				</linearGradient>
				<path style="fill:url(#SVGID_00000083072310022030679780000009047195519841972378_);" d="M2829.619,1835.864
					c137.543-2.273,289.305,36.115,289.305,36.115c40.998,239.225,7.169,515.154,7.169,515.154
					c-106.482,27.924-226.6-17.072-226.6-17.072c-17.698-99.991-100.272-381.397-100.272-381.397
					c-67.203-8.341-122.563-27.729-168.154-53.363c34.775-40.31,51.169-91.601,58.29-121.921
					C2737.987,1828.492,2787.196,1836.565,2829.619,1835.864z"/>
				
					<linearGradient id="SVGID_00000121985951126451459210000015914100129124394112_" gradientUnits="userSpaceOnUse" x1="-3727.4263" y1="1779.0735" x2="-3461.4114" y2="1779.0735" gradientTransform="matrix(-1 0 0 1 -1038.0688 0)">
					<stop  offset="0" style="stop-color:#F9B776"/>
					<stop  offset="1" style="stop-color:#F47960"/>
				</linearGradient>
				<path style="fill:url(#SVGID_00000121985951126451459210000015914100129124394112_);" d="M2423.343,1633.271
					c13.512-16.319,30.612-8.599,30.612-8.599c20.241,85.498,126.37,154.822,235.403,188.707
					c-7.121,30.32-23.514,81.612-58.29,121.921C2450.118,1833.559,2423.343,1633.271,2423.343,1633.271z"/>
			</g>
			<g>
				
					<linearGradient id="SVGID_00000114759268147472398120000002272265944673670051_" gradientUnits="userSpaceOnUse" x1="13968.4492" y1="1734.4833" x2="14146.9521" y2="2140.6169" gradientTransform="matrix(1 0 0 1 -11485.8467 0)">
					<stop  offset="0" style="stop-color:#F9B776"/>
					<stop  offset="1" style="stop-color:#F47960"/>
				</linearGradient>
				<path style="fill:url(#SVGID_00000114759268147472398120000002272265944673670051_);" d="M2426.622,1637.421
					c-1.414,4.494,14.958,11.338,24.598-7.044c0.337-8.81,5.695-46.552,0.43-53.729c-28.037-38.224-82.396-86.141-82.396-86.141
					c-9.187,9.065-1.618,17.97-1.618,17.97l26.369,27.47c-5.515,9.967-12.243,18.38-15.396,30.437
					c-2.388,9.13-0.927,18.887,3.684,27.196c4.629,8.339,10.944,19.18,16.914,27.663
					C2410.509,1637.3,2426.622,1637.421,2426.622,1637.421z"/>
				
					<linearGradient id="SVGID_00000168810655193679485860000015587655597563406738_" gradientUnits="userSpaceOnUse" x1="-3462.6882" y1="1599.2261" x2="-3388.2068" y2="1484.7107" gradientTransform="matrix(-1 0 0 1 -1038.0688 0)">
					<stop  offset="0" style="stop-color:#F9B776"/>
					<stop  offset="1" style="stop-color:#F47960"/>
				</linearGradient>
				<path style="fill:url(#SVGID_00000168810655193679485860000015587655597563406738_);" d="M2405.541,1553.771l24.03,20.371
					l7.545,20.282l-21.425,23.768c0,0-7.204-40.243-12.558-48.953C2397.778,1560.53,2400.554,1556.319,2405.541,1553.771z"/>
			</g>
			
				<linearGradient id="SVGID_00000118367530844581980470000008906187012259119498_" gradientUnits="userSpaceOnUse" x1="3133.209" y1="2071.5103" x2="2691.5728" y2="2805.3059">
				<stop  offset="0" style="stop-color:#FDF53F"/>
				<stop  offset="0.6645" style="stop-color:#E57A58"/>
				<stop  offset="1" style="stop-color:#D93C65"/>
			</linearGradient>
			<path style="fill:url(#SVGID_00000118367530844581980470000008906187012259119498_);" d="M3066.168,2005.159l52.756-133.181
				c0,0,128.472,87.291,149.6,197.968c-24.275,1.788-68.447,8.101-111.683,29.933
				C3147.34,2047.62,3066.168,2005.159,3066.168,2005.159z"/>
			
				<linearGradient id="SVGID_00000090990551146556083730000011519895161166844305_" gradientUnits="userSpaceOnUse" x1="-4309.5215" y1="2155.8765" x2="-3972.8777" y2="2155.8765" gradientTransform="matrix(-1 0 0 1 -1038.0688 0)">
				<stop  offset="0" style="stop-color:#F9B776"/>
				<stop  offset="1" style="stop-color:#F47960"/>
			</linearGradient>
			<path style="fill:url(#SVGID_00000090990551146556083730000011519895161166844305_);" d="M2953.898,2130.479
				c0,0,144.242,81.519,192.911,11.911c10.105-14.453,12.521-28.817,10.032-42.512c43.236-21.831,87.408-28.145,111.683-29.933
				c6.37,33.364,3.003,68.85-16.603,104.716c-85.253,155.951-317.112-8.619-317.112-8.619L2953.898,2130.479z"/>
			<g>
				
					<linearGradient id="SVGID_00000129185704099525634810000015967009800388216971_" gradientUnits="userSpaceOnUse" x1="-3871.0308" y1="1916.5332" x2="-3685.9226" y2="2687.8193" gradientTransform="matrix(-1 0 0 1 -1038.0688 0)">
					<stop  offset="0" style="stop-color:#2B3582"/>
					<stop  offset="1" style="stop-color:#150E42"/>
				</linearGradient>
				<path style="fill:url(#SVGID_00000129185704099525634810000015967009800388216971_);" d="M2971.229,2233.609l-78.722-274.914
					c-0.894-3.121-3.556-5.397-6.78-5.773c-14.263-1.664-55.592-6.336-103.31-10.372c-57.478-4.862-124.227-8.801-164.115-5.45
					c-5.67,0.477-9.097,6.474-6.575,11.576c22.682,45.889,115.983,232.555,162.705,293.705c1.548,2.026,3.942,3.21,6.491,3.187
					l182.648-1.699C2968.885,2243.817,2972.692,2238.719,2971.229,2233.609z"/>
				
					<linearGradient id="SVGID_00000177481448321840766300000012091710590771442844_" gradientUnits="userSpaceOnUse" x1="-3755.1355" y1="1794.957" x2="-3794.5586" y2="1968.0762" gradientTransform="matrix(-1 0 0 1 -1038.0688 0)">
					<stop  offset="0" style="stop-color:#53D8FF"/>
					<stop  offset="1" style="stop-color:#3840F7"/>
				</linearGradient>
				<path style="fill:url(#SVGID_00000177481448321840766300000012091710590771442844_);" d="M2774.251,1918.715l-57.075-9.51
					c-3.04-0.507-5.529,2.398-4.564,5.324l5.65,17.12c0.492,1.49,1.792,2.569,3.348,2.777l54.923,7.336
					c2.842,0.38,5.184-2.202,4.531-4.994l-3.498-14.947C2777.19,1920.213,2775.882,1918.987,2774.251,1918.715z"/>
				
					<linearGradient id="SVGID_00000165923713181190329650000011068144703103817857_" gradientUnits="userSpaceOnUse" x1="-3775.7678" y1="1867.5751" x2="-3794.6223" y2="1980.7026" gradientTransform="matrix(-1 0 0 1 -1038.0688 0)">
					<stop  offset="0" style="stop-color:#53D8FF"/>
					<stop  offset="1" style="stop-color:#3840F7"/>
				</linearGradient>
				<path style="fill:url(#SVGID_00000165923713181190329650000011068144703103817857_);" d="M2816.987,1967.034l-4.702-24.491
					c-0.472-2.457-2.5-4.313-4.988-4.565l-115.278-11.698c-3.88-0.394-6.987,3.162-6.076,6.954l7.329,30.518
					c0.587,2.442,2.712,4.205,5.22,4.332l112.65,5.671C2814.809,1973.939,2817.679,1970.639,2816.987,1967.034z"/>
				
					<linearGradient id="SVGID_00000147938810912275202470000012800952096759635348_" gradientUnits="userSpaceOnUse" x1="-3997.8721" y1="2120.5791" x2="-3892.9939" y2="2120.5791" gradientTransform="matrix(-1 0 0 1 -1038.0688 0)">
					<stop  offset="0" style="stop-color:#F9B776"/>
					<stop  offset="1" style="stop-color:#F47960"/>
				</linearGradient>
				<path style="fill:url(#SVGID_00000147938810912275202470000012800952096759635348_);" d="M2952.209,2167.189
					c0,0,10.966-45.092,6.542-61.09c-4.423-15.998-12.994-36.567-41.561-31.996c-28.568,4.571-62.266,16.605-62.266,16.605
					s1.702,20.838,23.414,14.115l-13.464,10.417c0,0,1.924,16.685,20.264,7.771l-12.522,13.816c0,0,7.876,13.703,21.368,4.914
					C2907.478,2132.954,2913.946,2172.619,2952.209,2167.189z"/>
			</g>
			
				<linearGradient id="SVGID_00000007392318266827422660000001907595965377065113_" gradientUnits="userSpaceOnUse" x1="-4051.0261" y1="1795.9833" x2="-3917.928" y2="1795.9833" gradientTransform="matrix(-1 0 0 1 -1038.0688 0)">
				<stop  offset="0" style="stop-color:#F9B776"/>
				<stop  offset="1" style="stop-color:#F47960"/>
			</linearGradient>
			<path style="fill:url(#SVGID_00000007392318266827422660000001907595965377065113_);" d="M2968.939,1724.201l43.764,126.562
				c0.725,2.097-0.137,4.419-2.079,5.492c-11.93,6.596-54.91,25.661-106.704-7.178c-5.396-3.421-9.069-9-9.888-15.336
				l-14.172-109.539H2968.939z"/>
			<g>
				
					<linearGradient id="SVGID_00000054230890841288113400000012656959867130034358_" gradientUnits="userSpaceOnUse" x1="-8398.3125" y1="-4125.9453" x2="-8448.0498" y2="-4289.9902" gradientTransform="matrix(-0.746 -0.6659 -0.6659 0.746 -6164.4043 -803.1727)">
					<stop  offset="0" style="stop-color:#F9B776"/>
					<stop  offset="1" style="stop-color:#F47960"/>
				</linearGradient>
				<path style="fill:url(#SVGID_00000054230890841288113400000012656959867130034358_);" d="M2873.714,1607
					c0,0-48.058,90.462-41.897,127.005c6.16,36.542,65.719,33.919,117.729,4.24l36.343-97.68L2873.714,1607z"/>
				
					<linearGradient id="SVGID_00000057845219339336926450000002638223409802552450_" gradientUnits="userSpaceOnUse" x1="-8443.1846" y1="-4411.769" x2="-8401.5801" y2="-4174.4678" gradientTransform="matrix(-0.746 -0.6659 -0.6659 0.746 -6164.4043 -803.1727)">
					<stop  offset="0" style="stop-color:#2B3582"/>
					<stop  offset="1" style="stop-color:#150E42"/>
				</linearGradient>
				<path style="fill:url(#SVGID_00000057845219339336926450000002638223409802552450_);" d="M2947.247,1690.275
					c-2.114-0.936-2.894-3.522-1.627-5.457c3.85-5.881,11.067-17.881,13.37-28.387c0,0,8.64-5.533-21.989-12.864
					c-30.627-7.331-76.302-18.71-85.902-44.78c-9.36-25.418,15.233-89.339,54.469-38.408c1.492,1.938,4.417,1.981,5.907,0.041
					c6.432-8.372,23.343-25.748,46.82-15.213c21.97,9.858,24.445,25.957,24.144,34.071c-0.089,2.388,2.045,4.243,4.391,3.795
					c11.109-2.118,37.764-3.938,50.207,23.407c10.248,22.523,3.587,35.273-2.479,41.509c-1.966,2.02-1.104,5.346,1.591,6.172
					c7.301,2.234,16.728,8.425,15.784,25.529c-1.305,23.645-27.742,21.562-35.269,20.484c-1.233-0.177-2.475,0.246-3.311,1.171
					c-6.454,7.142-35.531,37.468-67.002,41.123c-2.725,0.316-4.837-2.375-3.945-4.969l13.62-39.59
					c0.633-1.839-0.247-3.856-2.025-4.643L2947.247,1690.275z"/>
				
					<linearGradient id="SVGID_00000019674710918647244700000017329254706860708511_" gradientUnits="userSpaceOnUse" x1="-8449.1553" y1="-4126.708" x2="-8493.9053" y2="-4274.3037" gradientTransform="matrix(-0.746 -0.6659 -0.6659 0.746 -6164.4043 -803.1727)">
					<stop  offset="0" style="stop-color:#F9B776"/>
					<stop  offset="1" style="stop-color:#F47960"/>
				</linearGradient>
				<path style="fill:url(#SVGID_00000019674710918647244700000017329254706860708511_);" d="M2941.773,1695.895
					c0,0,34.217-23.476,36.717-3.706c2.5,19.77-30.813,28.636-47.313,21.266L2941.773,1695.895z"/>
			</g>
		</g>
		<g>
			
				<linearGradient id="SVGID_00000098908796720395203940000012803929645213897621_" gradientUnits="userSpaceOnUse" x1="977.3508" y1="103.1237" x2="1334.04" y2="1040.7045">
				<stop  offset="0" style="stop-color:#A737D5"/>
				<stop  offset="1" style="stop-color:#EF497A"/>
			</linearGradient>
			<path style="fill:url(#SVGID_00000098908796720395203940000012803929645213897621_);" d="M1291.693,1111.113l131.499,8.959
				c6.25,0.541,9.667-7.115,5.091-11.406l-126.1-93.378L1291.693,1111.113z"/>
			
				<linearGradient id="SVGID_00000150083581663257038800000013192882145189265573_" gradientUnits="userSpaceOnUse" x1="660.0376" y1="223.84" x2="1016.7269" y2="1161.4211">
				<stop  offset="0" style="stop-color:#A737D5"/>
				<stop  offset="1" style="stop-color:#EF497A"/>
			</linearGradient>
			<path style="fill:url(#SVGID_00000150083581663257038800000013192882145189265573_);" d="M540.464,690.271l740.58-4.531
				c16.956-0.104,30.727,12.46,30.598,27.916l-3.117,372.871c-0.13,15.544-14.261,27.949-31.307,27.482l-732.562-20.069
				c-16.272-0.446-29.27-12.5-29.479-27.338l-4.902-348.272C510.06,702.965,523.606,690.374,540.464,690.271z"/>
			<path style="opacity:0.14;fill:#FFFFFF;" d="M563.403,713.079l693.479-3.959c15.878-0.091,28.772,10.887,28.651,24.391
				l-2.918,325.782c-0.122,13.581,11.499,32.688-4.463,32.28l-710.823-25.803c-15.237-0.389-27.408-10.921-27.604-23.885
				l-4.59-304.289C534.932,724.17,547.616,713.169,563.403,713.079z"/>
			<path style="opacity:0.77;fill:#FFFFFF;" d="M1278.152,1091.574l-732.758-20.072c-3.092-0.082-5.545-2.363-5.59-5.185
				l-4.901-348.275c-0.025-1.417,0.546-2.714,1.649-3.742c1.099-1.028,2.51-1.574,4.081-1.581l740.579-4.531
				c1.595,0,3.015,0.535,4.122,1.544c1.12,1.024,1.698,2.325,1.682,3.765l-3.117,372.855
				C1283.881,1089.23,1281.301,1091.574,1278.152,1091.574z M545.698,1066.137l732.544,20.064l2.875-372.754l-740.448,4.647
				L545.698,1066.137z"/>
			<path style="opacity:0.77;fill:#FFFFFF;" d="M583.183,797.35c0,13.192,7.683,23.886,17.16,23.886h629.892
				c9.477,0,17.16-10.694,17.16-23.886c0-13.192-7.683-23.886-17.16-23.886H600.344C590.866,773.464,583.183,784.158,583.183,797.35
				z"/>
			<path style="opacity:0.77;fill:#FFFFFF;" d="M617.684,861.972h590.554c12.849,0,23.265,6.414,23.265,14.326
				s-10.416,14.326-23.265,14.326H617.684c-12.849,0-23.265-6.414-23.265-14.326S604.835,861.972,617.684,861.972z"/>
			<path style="opacity:0.77;fill:#FFFFFF;" d="M594.419,941.549c0,7.897,10.397,14.299,23.222,14.299h590.64
				c12.825,0,23.222-6.402,23.222-14.299v-8.839c0-8.033-10.744-14.49-23.786-14.295l-590.64,8.839
				C604.475,927.442,594.419,933.787,594.419,941.549z"/>
			<path style="opacity:0.77;fill:#FFFFFF;" d="M620.013,986.636h590.554c12.849,0,23.265,6.414,23.265,14.326
				s-10.416,14.326-23.265,14.326H620.013c-12.849,0-23.265-6.414-23.265-14.326S607.164,986.636,620.013,986.636z"/>
		</g>
	</g>
</g>
</svg>
